<svg width="84" height="30" viewBox="0 0 84 30" fill="none" xmlns="http://www.w3.org/2000/svg">
<path d="M7.184 7.517C7.556 8.199 7.97967 9.04633 8.455 10.059C8.951 11.051 9.45733 12.136 9.974 13.314C10.5113 14.4713 11.0383 15.6597 11.555 16.879C12.0717 18.0983 12.5573 19.2453 13.012 20.32C13.4667 19.2453 13.9523 18.0983 14.469 16.879C14.9857 15.6597 15.5023 14.4713 16.019 13.314C16.5563 12.136 17.0627 11.051 17.538 10.059C18.034 9.04633 18.468 8.199 18.84 7.517H23.242C23.4487 8.943 23.6347 10.5447 23.8 12.322C23.986 14.0787 24.141 15.918 24.265 17.84C24.4097 19.7413 24.5337 21.653 24.637 23.575C24.761 25.497 24.8643 27.3053 24.947 29H20.235C20.173 26.9127 20.0903 24.6393 19.987 22.18C19.8837 19.7207 19.7287 17.2407 19.522 14.74C19.15 15.608 18.7367 16.569 18.282 17.623C17.8273 18.677 17.3727 19.731 16.918 20.785C16.484 21.839 16.0603 22.8517 15.647 23.823C15.2337 24.7737 14.8823 25.59 14.593 26.272H11.214C10.9247 25.59 10.5733 24.7737 10.16 23.823C9.74667 22.8517 9.31267 21.839 8.858 20.785C8.424 19.731 7.97967 18.677 7.525 17.623C7.07033 16.569 6.657 15.608 6.285 14.74C6.07833 17.2407 5.92333 19.7207 5.82 22.18C5.71667 24.6393 5.634 26.9127 5.572 29H0.86C0.942667 27.3053 1.03567 25.497 1.139 23.575C1.263 21.653 1.387 19.7413 1.511 17.84C1.65567 15.918 1.81067 14.0787 1.976 12.322C2.162 10.5447 2.35833 8.943 2.565 7.517H7.184ZM57.0783 25.311C57.7603 25.311 58.3183 25.2593 58.7523 25.156C59.2069 25.032 59.5686 24.877 59.8373 24.691C60.1059 24.4843 60.2919 24.2467 60.3953 23.978C60.4986 23.7093 60.5503 23.4097 60.5503 23.079C60.5503 22.3763 60.2196 21.7977 59.5583 21.343C58.8969 20.8677 57.7603 20.3613 56.1483 19.824C55.4456 19.576 54.7429 19.297 54.0403 18.987C53.3376 18.6563 52.7073 18.2533 52.1493 17.778C51.5913 17.282 51.1366 16.693 50.7853 16.011C50.4339 15.3083 50.2583 14.461 50.2583 13.469C50.2583 12.477 50.4443 11.5883 50.8163 10.803C51.1883 9.997 51.7153 9.315 52.3973 8.757C53.0793 8.199 53.9059 7.77533 54.8773 7.486C55.8486 7.176 56.9439 7.021 58.1633 7.021C59.6099 7.021 60.8603 7.176 61.9143 7.486C62.9683 7.796 63.8363 8.137 64.5183 8.509L63.1233 12.322C62.5239 12.012 61.8523 11.7433 61.1083 11.516C60.3849 11.268 59.5066 11.144 58.4733 11.144C57.3159 11.144 56.4789 11.3093 55.9623 11.64C55.4663 11.95 55.2183 12.4357 55.2183 13.097C55.2183 13.4897 55.3113 13.8203 55.4973 14.089C55.6833 14.3577 55.9416 14.6057 56.2723 14.833C56.6236 15.0397 57.0163 15.236 57.4503 15.422C57.9049 15.5873 58.4009 15.763 58.9383 15.949C60.0543 16.3623 61.0256 16.7757 61.8523 17.189C62.6789 17.5817 63.3609 18.0467 63.8983 18.584C64.4563 19.1213 64.8696 19.7517 65.1383 20.475C65.4069 21.1983 65.5413 22.0767 65.5413 23.11C65.5413 25.1147 64.8386 26.675 63.4333 27.791C62.0279 28.8863 59.9096 29.434 57.0783 29.434C56.1276 29.434 55.2699 29.372 54.5053 29.248C53.7406 29.1447 53.0586 29.0103 52.4593 28.845C51.8806 28.6797 51.3743 28.504 50.9403 28.318C50.5269 28.132 50.1756 27.9563 49.8863 27.791L51.2503 23.947C51.8909 24.2983 52.6763 24.6187 53.6063 24.908C54.5569 25.1767 55.7143 25.311 57.0783 25.311ZM75.1212 25.311C75.8032 25.311 76.3612 25.2593 76.7952 25.156C77.2499 25.032 77.6116 24.877 77.8802 24.691C78.1489 24.4843 78.3349 24.2467 78.4382 23.978C78.5416 23.7093 78.5932 23.4097 78.5932 23.079C78.5932 22.3763 78.2626 21.7977 77.6012 21.343C76.9399 20.8677 75.8032 20.3613 74.1912 19.824C73.4886 19.576 72.7859 19.297 72.0832 18.987C71.3806 18.6563 70.7502 18.2533 70.1922 17.778C69.6342 17.282 69.1796 16.693 68.8282 16.011C68.4769 15.3083 68.3012 14.461 68.3012 13.469C68.3012 12.477 68.4872 11.5883 68.8592 10.803C69.2312 9.997 69.7582 9.315 70.4402 8.757C71.1222 8.199 71.9489 7.77533 72.9202 7.486C73.8916 7.176 74.9869 7.021 76.2062 7.021C77.6529 7.021 78.9032 7.176 79.9572 7.486C81.0112 7.796 81.8792 8.137 82.5612 8.509L81.1662 12.322C80.5669 12.012 79.8952 11.7433 79.1512 11.516C78.4279 11.268 77.5496 11.144 76.5162 11.144C75.3589 11.144 74.5219 11.3093 74.0052 11.64C73.5092 11.95 73.2612 12.4357 73.2612 13.097C73.2612 13.4897 73.3542 13.8203 73.5402 14.089C73.7262 14.3577 73.9846 14.6057 74.3152 14.833C74.6666 15.0397 75.0592 15.236 75.4932 15.422C75.9479 15.5873 76.4439 15.763 76.9812 15.949C78.0972 16.3623 79.0686 16.7757 79.8952 17.189C80.7219 17.5817 81.4039 18.0467 81.9412 18.584C82.4992 19.1213 82.9126 19.7517 83.1812 20.475C83.4499 21.1983 83.5842 22.0767 83.5842 23.11C83.5842 25.1147 82.8816 26.675 81.4762 27.791C80.0709 28.8863 77.9526 29.434 75.1212 29.434C74.1706 29.434 73.3129 29.372 72.5482 29.248C71.7836 29.1447 71.1016 29.0103 70.5022 28.845C69.9236 28.6797 69.4172 28.504 68.9832 28.318C68.5699 28.132 68.2186 27.9563 67.9292 27.791L69.2932 23.947C69.9339 24.2983 70.7192 24.6187 71.6492 24.908C72.5999 25.1767 73.7572 25.311 75.1212 25.311Z" fill="#3A001E"/>
<path d="M37.7023 29.434C36.1936 29.434 34.8916 29.2273 33.7963 28.814C32.701 28.38 31.7916 27.791 31.0683 27.047C30.3656 26.2823 29.8386 25.3833 29.4873 24.35C29.1566 23.296 28.9913 22.1387 28.9913 20.878V7.517H33.8273V20.475C33.8273 21.343 33.9203 22.087 34.1063 22.707C34.313 23.3063 34.5816 23.8023 34.9123 24.195C35.2636 24.567 35.677 24.8357 36.1523 25.001C36.6483 25.1663 37.1856 25.249 37.7643 25.249C38.9423 25.249 39.893 24.8873 40.6163 24.164C41.3603 23.4407 41.7323 22.211 41.7323 20.475V7.517H46.5683V20.878C46.5683 22.1387 46.3926 23.296 46.0413 24.35C45.69 25.404 45.1526 26.3133 44.4293 27.078C43.706 27.822 42.7863 28.4007 41.6703 28.814C40.5543 29.2273 39.2316 29.434 37.7023 29.434ZM34.3233 5.378C33.6826 5.378 33.1246 5.17133 32.6493 4.758C32.174 4.324 31.9363 3.74533 31.9363 3.022C31.9363 2.29867 32.174 1.73033 32.6493 1.317C33.1246 0.882999 33.6826 0.665999 34.3233 0.665999C34.964 0.665999 35.522 0.882999 35.9973 1.317C36.4726 1.73033 36.7103 2.29867 36.7103 3.022C36.7103 3.74533 36.4726 4.324 35.9973 4.758C35.522 5.17133 34.964 5.378 34.3233 5.378ZM41.2363 5.378C40.5956 5.378 40.0376 5.17133 39.5623 4.758C39.087 4.324 38.8493 3.74533 38.8493 3.022C38.8493 2.29867 39.087 1.73033 39.5623 1.317C40.0376 0.882999 40.5956 0.665999 41.2363 0.665999C41.877 0.665999 42.435 0.882999 42.9103 1.317C43.3856 1.73033 43.6233 2.29867 43.6233 3.022C43.6233 3.74533 43.3856 4.324 42.9103 4.758C42.435 5.17133 41.877 5.378 41.2363 5.378Z" fill="#FB7F4B"/>
</svg>
