<svg width="550" height="400" viewBox="0 0 550 400" fill="none" xmlns="http://www.w3.org/2000/svg">
<g clip-path="url(#clip0_23_2)">
<path d="M410.456 260.462C411.329 260.503 412.069 259.828 412.11 258.956C412.131 258.49 411.946 258.038 411.603 257.722L411.495 257.291L411.538 257.188C412.453 255.028 414.947 254.018 417.108 254.933C418.135 255.367 418.95 256.187 419.377 257.217C420.659 260.302 422.291 263.393 422.693 266.655C422.87 268.097 422.796 269.559 422.473 270.976C425.484 264.412 427.048 257.278 427.058 250.058C427.059 248.246 426.958 246.435 426.756 244.634C426.589 243.158 426.358 241.693 426.062 240.237C424.448 232.342 420.983 224.942 415.951 218.644C413.515 217.316 411.545 215.274 410.307 212.794C409.858 211.902 409.541 210.95 409.366 209.967C409.64 210.003 409.92 210.026 410.194 210.044C410.28 210.048 410.37 210.053 410.456 210.057L410.488 210.059C411.353 210.098 412.086 209.428 412.125 208.564C412.142 208.181 412.018 207.804 411.776 207.506C411.657 207.361 411.538 207.215 411.42 207.069C411.239 206.844 411.055 206.623 410.875 206.398C410.854 206.377 410.834 206.355 410.816 206.331C410.609 206.074 410.402 205.822 410.194 205.566C410.573 204.979 411.081 204.488 411.681 204.13C413.757 202.915 416.622 203.757 418.122 205.633C419.545 207.616 420.009 210.129 419.387 212.488C418.874 214.483 418.024 216.376 416.874 218.086C416.987 218.23 417.104 218.37 417.216 218.514C419.275 221.158 421.069 223.998 422.573 226.993C422.207 223.638 422.644 220.245 423.846 217.092C425.066 214.153 427.351 211.678 429.363 209.138C430.849 207.232 433.601 206.891 435.508 208.376C436.424 209.089 437.019 210.135 437.162 211.286L437.174 211.398C436.875 211.567 436.583 211.746 436.296 211.935C435.311 212.593 435.045 213.925 435.704 214.91C436.038 215.41 436.567 215.747 437.162 215.838L437.206 215.845C437.099 216.921 436.911 217.988 436.643 219.036C435.071 224.949 431.103 229.94 425.693 232.807C425.518 232.897 425.346 232.987 425.171 233.073C426.682 237.351 427.629 241.808 427.99 246.331C428.194 249 428.182 251.68 427.954 254.347L427.968 254.252C428.544 251.287 430.127 248.612 432.449 246.678C435.898 243.847 440.771 242.804 444.491 240.529C445.636 239.794 447.16 240.126 447.896 241.271C448.211 241.761 448.341 242.347 448.265 242.924L448.25 243.023C447.695 243.249 447.155 243.509 446.633 243.802C446.334 243.97 446.041 244.149 445.755 244.338C444.769 244.996 444.504 246.328 445.163 247.313C445.497 247.813 446.026 248.15 446.62 248.242L446.664 248.248C446.696 248.253 446.723 248.257 446.754 248.262C445.807 250.523 444.477 252.604 442.822 254.414C438.692 258.842 432.918 261.374 426.86 261.412H426.855C426.041 264.945 424.863 268.384 423.337 271.673H410.771C410.726 271.534 410.685 271.39 410.645 271.25C411.808 271.323 412.976 271.254 414.122 271.043C413.19 269.9 412.257 268.748 411.325 267.605C411.304 267.584 411.285 267.561 411.266 267.537C410.793 266.952 410.316 266.372 409.843 265.787L409.843 265.786C409.818 263.993 410.024 262.203 410.456 260.463L410.456 260.462Z" fill="#F2F2F2"/>
<path d="M372.44 145.27C372.44 152.182 375.9 159.215 382.818 159.215C389.735 159.215 399.28 154.209 397.132 143.482C395.776 136.704 391.883 132.755 384.965 132.755C378.048 132.755 372.44 138.358 372.44 145.27V145.27V145.27Z" fill="#2F2E41"/>
<path d="M401.457 244.022C400.033 242.444 400.159 240.011 401.739 238.588C401.907 238.436 402.089 238.299 402.282 238.18L399.253 224.845L405.909 227.347L407.764 239.626C408.773 241.511 408.061 243.855 406.175 244.862C404.597 245.705 402.647 245.358 401.457 244.022V244.022Z" fill="#A0616A"/>
<path d="M387.33 196.757L391.975 197.229C391.975 197.229 390.76 204.106 392.66 205.655C394.56 207.203 393.794 207.196 393.783 208.344C393.901 210.01 394.721 211.549 396.041 212.575C397.561 213.738 400.724 234.442 400.724 234.442L407.617 234.509C407.411 232.728 407.429 230.928 407.668 229.152C408.077 226.477 410.143 219.739 409.388 218.584C408.633 217.429 409.031 215.305 409.053 213.009C409.075 210.713 405.788 213.25 405.824 209.423C405.861 205.597 401.645 181.587 402.061 178.147C402.477 174.707 398.294 171.606 398.294 171.606L394.465 171.569L387.33 196.757V196.757Z" fill="#E6E6E6"/>
<path d="M338.012 164.466C337.574 166.432 338.814 168.379 340.781 168.817C340.991 168.864 341.204 168.892 341.419 168.901L345.146 181.31L349.467 176.144L345.266 165.152C345.218 163.129 343.537 161.527 341.511 161.575C339.816 161.615 338.37 162.81 338.012 164.466Z" fill="#A0616A"/>
<path d="M377.358 168.508C377.358 168.508 368.348 165.133 363.464 183.617L356.98 190.327L351.532 180.492L352.253 178.159L348.042 168.622L340.824 172.761L342.601 179.308L342.301 182.545L344.026 184.558L346.849 194.963L348.616 198.362C348.616 198.362 350.843 202.715 354.732 203.432C355.768 203.626 356.829 203.656 357.875 203.521C360.362 203.132 362.667 201.982 364.473 200.229C369.281 195.946 373.827 191.378 378.089 186.552L377.358 168.508H377.358Z" fill="#E6E6E6"/>
<path d="M389.442 199.46L390.079 202.494L390.621 213.688L368.85 210.742L367.179 197.781L369.489 193.987L389.442 199.46Z" fill="#A0616A"/>
<path d="M382.38 159.034C388.071 159.034 392.684 154.425 392.684 148.739C392.684 143.053 388.071 138.444 382.38 138.444C376.69 138.444 372.077 143.053 372.077 148.739C372.077 154.425 376.69 159.034 382.38 159.034Z" fill="#A0616A"/>
<path d="M399.644 172.813C397.944 168.806 394.425 165.855 390.18 164.876L390.141 164.868L388.101 162.125L379.824 162.954L378.311 166.054L374.386 168.387H374.378L374.37 168.395L372.315 169.62L365.496 177.596L365.488 177.604C363.465 178.953 362.091 181.08 361.695 183.479C361.592 184.164 361.558 184.857 361.594 185.548C361.819 189.788 364.472 193.563 364.836 194.067L365.729 199.082L365.907 200.113L367.513 200.345L390.133 203.578L390.762 203.671L390.948 203.694L391.6 202.012V201.996L397.906 185.51L400.738 178.154C400.745 176.317 400.373 174.499 399.644 172.813Z" fill="#E6E6E6"/>
<path d="M393.163 151.438C393.07 151.424 392.976 151.404 392.883 151.389C391.276 151.104 389.669 150.824 388.066 150.535L387.919 146.905L385.977 150.156C381.549 151.625 377.406 150.795 373.508 148.963C372.222 148.353 370.975 147.666 369.773 146.905C368.934 141.793 371.049 137.765 376.482 137.25C376.65 137.234 376.772 137.093 376.919 137.019L376.924 137.015V137.014C377.175 136.897 377.43 136.784 377.686 136.681C381.77 135.086 386.408 135.984 389.6 138.989C392.824 142.266 394.165 146.953 393.163 151.438V151.438Z" fill="#2F2E41"/>
<path d="M403.313 234.466C402.857 231.425 402.109 228.435 401.079 225.537V225.529C400.216 223.079 399.142 220.708 397.867 218.444C397.863 218.445 397.86 218.441 397.859 218.437V218.437C396.024 215.024 393.631 211.943 390.777 209.321L390.474 209.004H390.397L368.552 208.469H368.327L368.079 208.461C368.079 208.461 367.986 208.732 367.807 209.244C367.801 209.276 367.79 209.307 367.776 209.337C367.714 209.538 367.637 209.771 367.544 210.027C367.489 210.197 367.427 210.375 367.365 210.569C367.295 210.779 367.218 210.996 367.14 211.228C366.535 213.034 365.651 215.654 364.565 218.902C364.402 219.398 364.231 219.909 364.053 220.444C359.91 232.9 353.247 253.255 347.429 272.547H368.063C370.065 266.765 372.19 258.518 372.19 258.518C373.02 257.533 372.974 254.859 372.974 254.859L379.459 248.054L384.129 272.547H403.724L403.872 245.287V245.054C404.024 241.515 403.837 237.969 403.313 234.466V234.466Z" fill="#CCCCCC"/>
<path d="M389.215 136.758V136.767C389.214 137.306 389.283 137.843 389.42 138.364C389.442 138.455 389.468 138.551 389.498 138.642V138.647C390.091 140.533 391.533 142.034 393.396 142.702C393.531 142.754 393.67 142.797 393.809 142.837C394.103 142.922 394.403 142.983 394.706 143.019C394.979 143.058 395.254 143.077 395.529 143.076C395.744 143.077 395.96 143.067 396.174 143.045C396.675 142.995 397.168 142.882 397.641 142.71C397.715 142.689 397.788 142.663 397.859 142.632C397.894 142.619 397.929 142.605 397.963 142.589C401.183 141.242 402.701 137.542 401.353 134.325C401.313 134.229 401.27 134.133 401.225 134.039L401.22 134.035C400.911 133.387 400.491 132.798 399.979 132.294C398.839 131.159 398.336 128.313 396.603 128.313C396.52 128.311 396.437 128.314 396.355 128.322C395.192 128.361 393.043 130.867 392.128 131.459C391.449 131.888 390.86 132.445 390.395 133.099C389.909 133.772 389.563 134.536 389.376 135.344C389.27 135.808 389.216 136.282 389.215 136.758H389.215Z" fill="#2F2E41"/>
<path d="M396.93 134.562C397.91 135.702 399.445 136.146 400.83 136.739C405.793 138.915 409.36 143.397 410.364 148.718C410.747 150.853 410.697 153.063 411.301 155.144C411.903 157.225 413.391 159.266 415.528 159.628C416.974 159.874 418.423 159.316 419.783 158.766C420.531 158.465 421.279 158.164 422.026 157.861C421.246 155.905 420.467 153.949 419.69 151.993C420.94 153.839 422.393 155.539 424.023 157.06C426.704 155.98 429.386 154.9 432.072 153.821C425.466 153.846 426.593 147.438 425.115 141.009C424.302 137.476 417.385 135.084 416.029 131.723C413.91 126.453 407.918 123.897 402.644 126.014C400.371 126.926 398.499 128.618 397.363 130.786C396.006 131.326 395.967 133.435 396.93 134.562V134.562Z" fill="#2F2E41"/>
<path d="M368.871 210.035C365.786 210.839 363.289 213.099 362.184 216.088C361.793 216.932 361.804 217.907 362.212 218.743C362.532 219.34 363.243 219.61 363.878 219.375C364.516 219.031 365.025 218.49 365.328 217.832C365.773 216.988 366.155 216.112 366.471 215.212C366.99 213.854 368.095 211.587 366.517 210.525C365.189 209.632 363.431 209.979 361.937 209.918C360.323 209.852 358.528 209.234 357.955 207.562C357.397 205.936 358.705 204.407 360.114 203.788C361.835 203.076 363.798 203.262 365.354 204.287C366.867 205.336 367.948 206.898 368.395 208.684C368.464 208.972 368.286 209.262 367.998 209.331C367.723 209.396 367.444 209.238 367.36 208.969C366.964 207.312 365.92 205.883 364.462 205.002C363.013 204.166 361.213 204.237 359.833 205.182C359.109 205.632 358.773 206.508 359.01 207.327C359.374 208.053 360.059 208.565 360.858 208.71C362.562 209.121 364.343 208.589 366.041 209.132C367.621 209.537 368.629 211.083 368.359 212.691C368.183 213.656 367.897 214.597 367.507 215.497C367.175 216.422 366.788 217.327 366.347 218.205C365.673 219.478 364.457 220.856 362.853 220.483C361.025 220.057 360.591 217.925 360.983 216.356C362.043 212.737 364.931 209.943 368.586 209.001C368.875 208.932 369.164 209.11 369.233 209.399C369.299 209.673 369.141 209.951 368.871 210.035V210.035Z" fill="#CCCCCC"/>
<path d="M449.578 273.323H322.357C319.359 273.319 316.93 270.892 316.927 267.897V95.0464C316.93 92.0512 319.359 89.624 322.357 89.6206H449.578C452.576 89.624 455.005 92.0512 455.009 95.0464V267.897C455.005 270.892 452.576 273.319 449.578 273.323ZM322.357 91.1708C320.216 91.1733 318.481 92.907 318.478 95.0464V267.897C318.481 270.036 320.216 271.77 322.357 271.773H449.578C451.719 271.77 453.455 270.036 453.457 267.897V95.0464C453.455 92.907 451.719 91.1733 449.578 91.1708H322.357Z" fill="#3F3D56"/>
<path d="M469.796 26.431H108.849C108.075 26.4145 107.461 25.7741 107.478 25.0007C107.494 24.2507 108.099 23.6464 108.849 23.6304H469.796C470.57 23.6469 471.184 24.2873 471.167 25.0606C471.151 25.8107 470.547 26.415 469.796 26.431Z" fill="#CACACA"/>
<path d="M539.915 192.711H498.801C493.231 192.711 488.716 188.199 488.716 182.634C488.716 177.069 493.231 172.558 498.801 172.558H539.915C545.485 172.558 550 177.069 550 182.634C550 188.199 545.485 192.711 539.915 192.711Z" fill="#FB7F4B"/>
<path d="M245.118 234.884C244.245 234.924 243.505 234.249 243.465 233.377C243.443 232.911 243.629 232.46 243.971 232.143L244.08 231.712L244.037 231.609C243.122 229.449 240.628 228.44 238.466 229.354C237.439 229.788 236.625 230.609 236.197 231.638C234.915 234.724 233.283 237.814 232.881 241.077C232.704 242.519 232.779 243.981 233.102 245.397C230.09 238.833 228.527 231.699 228.516 224.479C228.516 222.667 228.617 220.857 228.818 219.056C228.985 217.58 229.216 216.114 229.512 214.659C231.126 206.763 234.591 199.363 239.624 193.066C242.059 191.738 244.029 189.696 245.267 187.215C245.716 186.323 246.033 185.371 246.209 184.389C245.934 184.425 245.655 184.447 245.38 184.465C245.294 184.47 245.204 184.474 245.119 184.479L245.086 184.48C244.221 184.519 243.488 183.85 243.45 182.985C243.432 182.602 243.557 182.226 243.799 181.928C243.917 181.782 244.036 181.636 244.155 181.49C244.335 181.265 244.52 181.045 244.7 180.82C244.721 180.798 244.74 180.776 244.758 180.752C244.965 180.496 245.173 180.244 245.38 179.987C245.002 179.401 244.493 178.909 243.893 178.552C241.817 177.336 238.952 178.178 237.453 180.055C236.03 182.037 235.566 184.55 236.187 186.909C236.701 188.904 237.551 190.797 238.7 192.508C238.588 192.652 238.471 192.791 238.358 192.935C236.3 195.58 234.505 198.42 233.002 201.414C233.367 198.059 232.931 194.666 231.728 191.513C230.509 188.574 228.224 186.099 226.212 183.559C224.725 181.653 221.974 181.312 220.066 182.797C219.151 183.51 218.556 184.557 218.412 185.707L218.4 185.82C218.699 185.988 218.992 186.167 219.278 186.356C220.264 187.014 220.529 188.346 219.87 189.331C219.536 189.831 219.007 190.168 218.413 190.26L218.369 190.266C218.475 191.343 218.663 192.409 218.932 193.457C220.504 199.371 224.472 204.362 229.881 207.229C230.057 207.319 230.228 207.409 230.404 207.494C228.893 211.773 227.945 216.23 227.584 220.753C227.38 223.421 227.392 226.101 227.62 228.768L227.607 228.673C227.03 225.708 225.447 223.033 223.125 221.099C219.676 218.268 214.804 217.226 211.083 214.95C209.938 214.216 208.414 214.548 207.679 215.692C207.364 216.182 207.233 216.768 207.309 217.345L207.325 217.445C207.879 217.67 208.419 217.93 208.942 218.223C209.241 218.392 209.533 218.571 209.819 218.76C210.805 219.418 211.07 220.75 210.412 221.735C210.077 222.235 209.549 222.571 208.954 222.663L208.91 222.67C208.879 222.674 208.852 222.679 208.82 222.683C209.768 224.944 211.098 227.025 212.752 228.835C216.882 233.264 222.657 235.795 228.715 235.834H228.719C229.533 239.366 230.712 242.805 232.237 246.095H244.803C244.848 245.955 244.889 245.811 244.93 245.672C243.766 245.745 242.599 245.675 241.452 245.465C242.385 244.321 243.317 243.169 244.249 242.026C244.27 242.005 244.29 241.982 244.308 241.959C244.781 241.374 245.258 240.793 245.731 240.208L245.732 240.207C245.757 238.414 245.551 236.625 245.119 234.884L245.118 234.884H245.118Z" fill="#F2F2F2"/>
<g opacity="0.38">
<path d="M221.257 216.642C219.316 215.054 219.03 212.195 220.62 210.255C220.789 210.048 220.976 209.856 221.18 209.683L210.91 182.856L219.117 184.593L227.831 210.397C229.342 212.415 228.929 215.275 226.908 216.785C225.218 218.048 222.882 217.989 221.257 216.643V216.642Z" fill="#FFB8B8"/>
<path d="M225.482 187.262L216.267 148.94L212.303 137.794C212.298 137.79 212.296 137.784 212.295 137.778C211.649 135.957 210.3 134.472 208.548 133.655C206.796 132.816 204.779 132.721 202.955 133.391C202.799 133.445 202.646 133.507 202.497 133.577C202.179 133.722 201.871 133.888 201.574 134.073C199.864 135.151 198.676 136.887 198.293 138.871L197.595 142.53L197.3 144.088L208.183 182.099V182.115L211.969 195.354L213.722 201.462V201.469L215.755 208.577L215.801 208.724L220.681 208.399H220.688L221.425 208.345L227.011 207.973L227.817 207.918L225.482 187.261V187.262Z" fill="#2F2E41"/>
<path d="M188.068 123.28L208.595 164.76L221.581 208.866C194.223 214.197 159.894 225.6 157.423 209.246C158.946 163.649 163.743 149.105 173.645 129.338L188.068 123.28Z" fill="#2F2E41"/>
<path d="M215.514 246.193H198.658L191.823 223.118L187.014 245.899C186.998 246 186.99 246.093 186.975 246.193H169.009C169.591 239.062 170.653 226.66 171.158 224.901C171.871 222.405 171.158 222.405 169.73 220.979C169.412 220.661 169.304 219.39 169.335 217.615C169.42 211.499 171.088 199.384 171.088 199.384L173.066 195.726L173.749 194.454L208.983 193.214L209.285 193.207L209.937 196.043L210.736 199.539L212.14 205.67L213.435 210.561L213.505 210.809V212.259C213.285 212.764 213.184 213.313 213.211 213.863C213.21 214.359 214.328 229.815 215.514 246.193Z" fill="#2F2E41"/>
<path d="M185.662 129.431L188.081 123.648L195.568 123.779L203.376 134.814L211.57 169.246C211.57 169.246 214.513 194.399 211.57 195.727C208.627 197.055 172.988 196.348 172.988 196.348C174.638 182.765 175.868 168.947 177.164 160.692C181.448 133.41 183.469 139.151 185.662 129.431Z" fill="#FB7F4B"/>
<path d="M195.569 123.779C195.569 123.779 211.697 133.095 212.328 137.957C212.958 142.82 215.07 202.336 215.07 202.336L209.367 198.654L207.808 176.962C208.895 157.688 206.242 143.321 200.848 132.551L195.569 123.779H195.569Z" fill="#2F2E41"/>
<path d="M202.611 111.846C203.584 105.859 199.514 100.217 193.522 99.2456C187.53 98.274 181.884 102.34 180.912 108.327C179.939 114.315 184.009 119.956 190.001 120.928C195.993 121.899 201.639 117.833 202.611 111.846Z" fill="#FFB8B8"/>
<path d="M178.218 109.435C178.709 111.66 179.594 113.779 180.832 115.693C181.161 116.346 181.652 116.903 182.258 117.311C182.891 117.717 183.725 117.613 184.239 117.063L184.506 116.846C183.982 116.523 183.513 116.117 183.12 115.644C182.724 115.162 182.586 114.519 182.748 113.917C182.946 113.309 183.589 112.966 184.204 113.14C184.848 113.393 185.239 114.323 185.912 114.179C186.457 114.06 186.571 113.343 186.571 112.779C186.551 109.83 187.977 105.64 189.081 105.769C190.197 105.83 191.314 105.68 192.374 105.328C193.435 104.976 194.555 104.833 195.671 104.908C195.751 104.918 195.83 104.933 195.914 104.947C196.093 104.387 196.339 103.851 196.647 103.349C196.612 103.954 196.642 104.561 196.736 105.16C197.624 105.526 198.542 105.816 199.479 106.026C200.499 106.169 202.742 109.217 202.846 108.905C203.025 108.345 203.271 107.809 203.579 107.307C203.544 107.912 203.574 108.519 203.668 109.118C203.673 109.143 203.673 109.163 203.678 109.187C204.173 108.529 204.475 107.728 204.307 108.341C205.965 104.591 205.322 101.905 202.712 98.7434C202.204 98.0637 201.531 97.524 200.756 97.1751C199.968 96.829 199.056 96.919 198.35 97.4126C196.183 95.4272 193.108 94.7719 190.319 95.7008C187.601 96.6458 185.506 97.1999 185.09 100.05C182.776 99.7966 180.521 100.893 179.292 102.87C178.121 104.845 177.737 107.189 178.218 109.435L178.218 109.435Z" fill="#2F2E41"/>
<path d="M147.417 213.932C146.484 211.605 147.615 208.963 149.944 208.03C150.192 207.931 150.449 207.854 150.711 207.799L154.674 179.352L161.023 184.831L156.192 211.633C156.54 214.129 154.796 216.435 152.298 216.782C150.207 217.073 148.19 215.895 147.417 213.932H147.417Z" fill="#FFB8B8"/>
<path d="M182.398 137.995L182.095 135.236C181.81 132.687 180.209 130.475 177.875 129.407C176.989 128.996 176.028 128.772 175.052 128.748H175.044C172.106 128.68 169.412 130.378 168.21 133.058L163.369 143.871L151.151 181.347L147.203 201.733L151.469 202.361L157.652 203.268L157.698 203.275L159.118 203.485L178.954 150.436L178.961 150.42L182.67 140.507L182.398 137.995H182.398Z" fill="#2F2E41"/>
</g>
<path d="M256.419 246.969H129.197C126.2 246.965 123.771 244.538 123.767 241.543V68.6924C123.77 65.6972 126.2 63.27 129.197 63.2666H256.419C259.416 63.27 261.846 65.6972 261.849 68.6924V241.543C261.845 244.538 259.416 246.965 256.419 246.969ZM129.197 64.8168C127.056 64.8193 125.321 66.553 125.319 68.6924V241.543C125.321 243.682 127.056 245.416 129.197 245.419H256.419C258.56 245.416 260.295 243.682 260.297 241.543V68.6924C260.295 66.553 258.56 64.8193 256.419 64.8168H129.197Z" fill="#E6E6E6"/>
<path d="M51.1989 192.711H10.0846C4.51504 192.711 0 188.199 0 182.634C0 177.069 4.51504 172.558 10.0846 172.558H51.1989C56.7684 172.558 61.2835 177.069 61.2835 182.634C61.2835 188.199 56.7684 192.711 51.1989 192.711Z" fill="#E6E6E6"/>
<path d="M71.3683 232.241H30.2541C24.6845 232.241 20.1694 227.73 20.1694 222.165C20.1694 216.6 24.6845 212.088 30.2541 212.088H71.3683C76.9379 212.088 81.4529 216.6 81.4529 222.165C81.4529 227.73 76.9379 232.241 71.3683 232.241Z" fill="#E6E6E6"/>
<path d="M93.1152 224.849L93.0928 226.399L172.544 227.546L172.566 225.996L93.1152 224.849Z" fill="#E6E6E6"/>
<path d="M175.888 230.319C174.403 230.32 173.047 229.475 172.395 228.142C171.456 226.218 172.256 223.898 174.182 222.96C176.107 222.022 178.429 222.821 179.368 224.745C180.306 226.669 179.507 228.989 177.581 229.927C177.054 230.184 176.475 230.318 175.888 230.319V230.319ZM175.88 224.117C174.594 224.118 173.553 225.161 173.554 226.445C173.555 226.797 173.635 227.145 173.79 227.462C174.354 228.615 175.747 229.092 176.901 228.528C178.055 227.964 178.532 226.572 177.968 225.419C177.578 224.623 176.768 224.117 175.88 224.117H175.88Z" fill="#E6E6E6"/>
<path d="M76.0488 183.768L76.0264 185.318L155.477 186.465L155.5 184.915L76.0488 183.768Z" fill="#E6E6E6"/>
<path d="M158.822 189.238C157.337 189.239 155.981 188.394 155.329 187.061C154.389 185.137 155.188 182.816 157.114 181.877C159.04 180.937 161.363 181.736 162.303 183.66C163.243 185.585 162.444 187.906 160.518 188.845C159.99 189.103 159.41 189.237 158.822 189.238ZM156.724 186.381C157.287 187.535 158.68 188.014 159.835 187.451C160.99 186.888 161.469 185.497 160.906 184.343C160.342 183.189 158.949 182.71 157.794 183.273C157.24 183.543 156.816 184.022 156.615 184.605C156.414 185.188 156.453 185.827 156.724 186.381Z" fill="#E6E6E6"/>
<path d="M82.2287 153.955H41.1144C35.5448 153.955 31.0298 149.443 31.0298 143.878C31.0298 138.313 35.5448 133.802 41.1144 133.802H82.2287C87.7982 133.802 92.3133 138.313 92.3133 143.878C92.3133 149.443 87.7982 153.955 82.2287 153.955Z" fill="#E6E6E6"/>
<path d="M107.079 145.012L107.056 146.562L186.507 147.709L186.529 146.159L107.079 145.012Z" fill="#E6E6E6"/>
<path d="M189.852 150.482C188.367 150.483 187.011 149.638 186.359 148.305C185.419 146.381 186.218 144.06 188.144 143.121C190.07 142.182 192.393 142.98 193.333 144.905C194.273 146.829 193.473 149.15 191.548 150.089C191.019 150.347 190.439 150.481 189.852 150.482ZM187.753 147.626C188.317 148.779 189.71 149.258 190.865 148.695C192.019 148.133 192.499 146.741 191.935 145.587C191.372 144.433 189.979 143.954 188.824 144.517C188.27 144.787 187.846 145.266 187.645 145.849C187.444 146.432 187.483 147.071 187.753 147.626Z" fill="#E6E6E6"/>
<path d="M399.435 178.484L399.413 180.035L478.864 181.181L478.886 179.631L399.435 178.484Z" fill="#3F3D56"/>
<path d="M396.101 183.465C393.955 183.47 392.211 181.736 392.206 179.592C392.201 177.447 393.937 175.705 396.083 175.7C398.229 175.695 399.972 177.429 399.977 179.574C399.981 181.06 399.134 182.418 397.797 183.071C397.269 183.329 396.689 183.464 396.101 183.465V183.465ZM396.095 177.261C394.809 177.261 393.766 178.302 393.766 179.588C393.766 180.873 394.809 181.915 396.095 181.915C397.381 181.915 398.424 180.873 398.424 179.588C398.424 179.235 398.344 178.886 398.189 178.568V178.568C397.798 177.769 396.986 177.262 396.095 177.261V177.261Z" fill="#3F3D56"/>
<path d="M539.915 272.548H498.801C493.231 272.548 488.716 268.036 488.716 262.471C488.716 256.906 493.231 252.395 498.801 252.395H539.915C545.485 252.395 550 256.906 550 262.471C550 268.036 545.485 272.548 539.915 272.548Z" fill="#FB7F4B"/>
<path d="M399.435 258.321L399.413 259.872L478.864 261.018L478.886 259.468L399.435 258.321Z" fill="#3F3D56"/>
<path d="M396.1 263.301C393.958 263.303 392.219 261.57 392.217 259.429C392.215 257.288 393.95 255.55 396.093 255.548C397.577 255.547 398.933 256.392 399.583 257.726C400.521 259.652 399.719 261.973 397.791 262.91C397.264 263.167 396.686 263.3 396.1 263.301ZM396.095 257.097C394.809 257.097 393.766 258.139 393.766 259.424C393.766 260.71 394.808 261.752 396.095 261.752C397.381 261.752 398.424 260.71 398.424 259.425C398.424 259.072 398.344 258.723 398.189 258.405C397.798 257.606 396.986 257.098 396.095 257.097Z" fill="#3F3D56"/>
<path d="M293.983 272.453C295.948 270.877 296.262 268.007 294.685 266.043C294.532 265.853 294.364 265.675 294.183 265.512L301.571 244.016L296.123 240.512L287.535 266.107C285.992 268.094 286.354 270.954 288.342 272.496C290.006 273.786 292.338 273.768 293.983 272.453V272.453Z" fill="#FFB6B6"/>
<path d="M300.288 213.145C298.983 218.66 297.035 223.478 297.299 225.792C297.56 228.1 294.738 230.317 295.635 232.141C296.53 233.969 293.774 234.165 294.52 237.108C295.267 240.057 295.753 240.688 295.122 241.173C294.486 241.657 291.127 252.912 291.127 252.912L293.098 253.634L298.846 255.729L312.355 233.528L312.314 206.278L308.96 206.17C308.155 206.472 307.263 206.834 306.373 207.27C303.656 208.58 300.907 210.518 300.288 213.145Z" fill="#FB7F4B"/>
<path d="M350.033 386.055H357.058L360.4 358.981H350.031L350.033 386.055Z" fill="#FFB6B6"/>
<path d="M359.395 386.687V381.929L357.549 382.041L350.031 382.486L348.291 382.593L346.961 398.53L346.89 399.385H351.878L352.038 398.536L352.762 394.68L354.633 398.536L355.043 399.385H368.267C369.905 399.374 371.229 398.048 371.236 396.412C371.794 393.807 360.797 388.177 359.395 386.687V386.687Z" fill="#2F2E41"/>
<path d="M267.732 378.415L273.842 381.879L290.121 359.979L281.103 354.867L267.732 378.415Z" fill="#FFB6B6"/>
<path d="M275.566 383.578L277.912 379.443L276.261 378.63L269.498 375.313L267.93 374.542L260.228 385.809L258.417 388.456L260.466 389.619L262.752 390.918L265.852 387.263L265.507 392.479L276.309 398.608H276.315L277.009 398.999C278.438 399.806 280.25 399.304 281.059 397.878C282.829 395.884 276.047 385.572 275.566 383.578Z" fill="#2F2E41"/>
<path d="M315.17 253.154C305.757 259.387 296.438 319.27 298.883 318.293L276.695 359.61L288.036 367.272L329.042 301.712L342.673 330.714L348.302 375.23L362.422 374.222C358.753 324.071 349.593 271.177 342.001 250.717L315.17 253.154V253.154Z" fill="#2F2E41"/>
<path d="M308.023 257.601L307.921 257.986C317.872 263.519 345.113 257.11 345.113 257.11L340.722 242.975L346.649 211.573C346.617 206.503 342.479 202.42 337.405 202.452C337.197 202.453 336.989 202.462 336.781 202.477L329.629 197.184L319.448 197.535L312.638 205.051L308.569 206.503L305.408 207.629C304.769 208.205 304.072 208.867 303.403 209.599L308.404 239.332L310.531 248.223L308.023 257.601Z" fill="#FB7F4B"/>
<path d="M324.548 196.004C331.763 196.004 337.611 190.161 337.611 182.952C337.611 175.743 331.763 169.899 324.548 169.899C317.334 169.899 311.485 175.743 311.485 182.952C311.485 190.161 317.334 196.004 324.548 196.004Z" fill="#FFB6B6"/>
<path d="M307.372 178.405C307.411 178.42 307.446 178.434 307.485 178.449C307.559 178.482 307.635 178.51 307.714 178.533C308.212 178.715 308.731 178.835 309.259 178.887C309.484 178.912 309.711 178.924 309.937 178.923C310.228 178.924 310.518 178.905 310.806 178.867C311.126 178.828 311.443 178.763 311.753 178.674C311.9 178.635 312.045 178.588 312.187 178.534C314.153 177.836 315.678 176.258 316.305 174.27V174.265C316.338 174.169 316.366 174.071 316.389 173.973C316.534 173.424 316.608 172.859 316.608 172.292V172.282C316.612 170.898 316.18 169.548 315.374 168.423C314.888 167.734 314.326 167.619 314.641 166.832C315.646 164.321 311.535 162.268 309.108 163.372C309.021 163.364 308.933 163.36 308.845 163.362C307.21 163.357 306.604 165.769 305.63 167.126L305.658 167.135C306.312 167.364 306.656 168.079 306.427 168.732C306.299 169.097 306.01 169.383 305.642 169.506C304.994 169.717 304.338 169.903 303.676 170.065C301.493 172.642 303.996 180.181 307.372 178.405Z" fill="#2F2E41"/>
<path d="M308.575 185.315C309.196 188.107 310.685 190.631 312.83 192.525C315.04 194.31 325.435 198.538 326.312 194.919C325.725 197.447 326.079 198.413 327.023 199.317C327.185 199.098 327.356 198.889 327.532 198.685C328.181 197.938 328.959 197.314 329.83 196.843C329.852 198.37 329.742 199.897 329.501 201.405C329.89 201.763 330.26 202.142 330.61 202.538C332.291 197.532 335.976 191.535 333.308 186.976C332.25 185.167 333.132 184.919 334.07 184.712C335.707 184.349 336.61 177.636 337 176.004C337.483 173.958 337.674 171.604 336.405 169.924C335.136 168.244 331.927 168.172 331.278 170.174L329.926 168.338C328.18 164.497 323.543 165.266 319.352 165.762C315.101 166.405 311.441 169.103 309.572 172.971C307.772 176.834 307.418 181.214 308.575 185.315V185.315Z" fill="#2F2E41"/>
<path d="M315.183 167.772C315.365 172.506 312.701 176.891 308.414 178.915C307.562 179.301 306.821 178.039 307.678 177.651C311.511 175.884 313.897 171.981 313.719 167.768C313.67 166.827 315.134 166.834 315.183 167.772V167.772V167.772Z" fill="#FB7F4B"/>
<path d="M374.183 174.993C371.754 175.666 370.332 178.179 371.006 180.606C371.071 180.841 371.155 181.07 371.257 181.292L355.979 198.13L359.601 203.497L377.601 183.366C379.803 182.149 380.6 179.378 379.382 177.178C378.362 175.336 376.213 174.433 374.183 174.993L374.183 174.993Z" fill="#FFB6B6"/>
<path d="M330.752 229.617C330.752 229.617 341.588 231.562 344.965 227.004C348.342 222.446 352.035 218.79 352.707 216.562C353.378 214.334 356.846 213.413 356.743 211.381C356.641 209.349 359.253 210.257 359.728 207.256C360.204 204.254 360.008 203.481 360.783 203.285C361.557 203.089 369.085 194.073 369.085 194.073L363.107 188.441L341.928 203.514L330.752 229.617L330.752 229.617Z" fill="#FB7F4B"/>
<path d="M249.251 393.701C240.748 392.689 233.156 387.896 228.59 380.658C225.658 375.907 224.146 370.265 222.683 364.809C222.257 363.221 221.817 361.58 221.35 359.997C220.272 356.458 221.457 352.62 224.342 350.303C227.132 347.967 231.063 347.561 234.272 349.279L234.614 349.46L235.214 362.932C236.103 361.127 238.053 357.05 239.598 352.979L239.728 352.638L240.024 352.852C243.131 355.082 245.944 357.694 248.398 360.627C257.166 371.278 260.802 385.244 258.339 398.814L258.264 399.214L249.251 393.701H249.251Z" fill="#F2F2F2"/>
<path d="M194.275 399.078C194.273 399.586 194.684 399.999 195.193 400H420.388C420.898 400 421.311 399.587 421.311 399.078C421.311 398.568 420.898 398.155 420.388 398.155H195.198C194.69 398.154 194.276 398.564 194.275 399.072V399.078Z" fill="#CCCCCC"/>
<path d="M126.9 13.4018C130.523 13.4018 133.46 10.4017 133.46 6.70092C133.46 3.0001 130.523 0 126.9 0C123.277 0 120.34 3.0001 120.34 6.70092C120.34 10.4017 123.277 13.4018 126.9 13.4018Z" fill="#3F3D56"/>
<path d="M149.562 13.4018C153.185 13.4018 156.122 10.4017 156.122 6.70092C156.122 3.0001 153.185 0 149.562 0C145.939 0 143.002 3.0001 143.002 6.70092C143.002 10.4017 145.939 13.4018 149.562 13.4018Z" fill="#3F3D56"/>
<path d="M172.225 13.4018C175.848 13.4018 178.785 10.4017 178.785 6.70092C178.785 3.0001 175.848 0 172.225 0C168.602 0 165.665 3.0001 165.665 6.70092C165.665 10.4017 168.602 13.4018 172.225 13.4018Z" fill="#3F3D56"/>
<path d="M198.066 11.9972C197.864 11.9972 197.663 11.9193 197.511 11.7641L193.085 7.24285C192.79 6.94159 192.79 6.46017 193.085 6.1589L197.511 1.63803C197.811 1.33223 198.303 1.3273 198.608 1.62592C198.914 1.9253 198.92 2.41618 198.62 2.72198L194.724 6.70088L198.62 10.6802C198.92 10.986 198.914 11.4768 198.608 11.7762C198.457 11.9238 198.261 11.9972 198.066 11.9972Z" fill="#3F3D56"/>
<path d="M205.504 11.9973C205.308 11.9973 205.112 11.9239 204.961 11.7763C204.655 11.4769 204.65 10.9864 204.949 10.6802L208.845 6.70096L204.949 2.72206C204.65 2.41626 204.655 1.92538 204.961 1.626C205.267 1.32625 205.759 1.33193 206.058 1.63811L210.484 6.15898C210.779 6.46025 210.779 6.94167 210.484 7.24293L206.058 11.7642C205.906 11.9194 205.705 11.9973 205.504 11.9973Z" fill="#3F3D56"/>
<path d="M437.07 0.775879H428.839C427.901 0.775879 427.141 1.53548 427.141 2.47338V10.7051C427.141 11.643 427.901 12.4026 428.839 12.4026H437.07C438.009 12.4026 438.777 11.643 438.777 10.7051V2.47338C438.777 1.53548 438.009 0.775879 437.07 0.775879Z" fill="#3F3D56"/>
<path d="M416.901 0.775879H408.67C407.731 0.775879 406.971 1.53548 406.971 2.47338V10.7051C406.971 11.643 407.731 12.4026 408.67 12.4026H416.901C417.839 12.4026 418.607 11.643 418.607 10.7051V2.47338C418.607 1.53548 417.839 0.775879 416.901 0.775879Z" fill="#3F3D56"/>
<path d="M456.075 1.16357H447.845C446.906 1.16357 446.146 1.92317 446.146 2.86107V11.0928C446.146 12.0307 446.906 12.7903 447.845 12.7903H456.075C457.014 12.7903 457.782 12.0307 457.782 11.0928V2.86107C457.782 1.92317 457.014 1.16357 456.075 1.16357Z" fill="#3F3D56"/>
<path d="M332.018 4.29492H266.227C265.079 4.29492 264.156 5.22507 264.156 6.36451C264.156 7.50395 265.079 8.43405 266.227 8.43405H332.018C333.158 8.43405 334.089 7.5039 334.089 6.36451C334.089 5.22511 333.158 4.29492 332.018 4.29492Z" fill="#3F3D56"/>
</g>
<defs>
<clipPath id="clip0_23_2">
<rect width="550" height="400" fill="white"/>
</clipPath>
</defs>
</svg>
