<svg width="91" height="37" viewBox="0 0 91 37" fill="none" xmlns="http://www.w3.org/2000/svg">
<path d="M8.184 8.517C8.556 9.199 8.97967 10.0463 9.455 11.059C9.951 12.051 10.4573 13.136 10.974 14.314C11.5113 15.4713 12.0383 16.6597 12.555 17.879C13.0717 19.0983 13.5573 20.2453 14.012 21.32C14.4667 20.2453 14.9523 19.0983 15.469 17.879C15.9857 16.6597 16.5023 15.4713 17.019 14.314C17.5563 13.136 18.0627 12.051 18.538 11.059C19.034 10.0463 19.468 9.199 19.84 8.517H24.242C24.4487 9.943 24.6347 11.5447 24.8 13.322C24.986 15.0787 25.141 16.918 25.265 18.84C25.4097 20.7413 25.5337 22.653 25.637 24.575C25.761 26.497 25.8643 28.3053 25.947 30H21.235C21.173 27.9127 21.0903 25.6393 20.987 23.18C20.8837 20.7207 20.7287 18.2407 20.522 15.74C20.15 16.608 19.7367 17.569 19.282 18.623C18.8273 19.677 18.3727 20.731 17.918 21.785C17.484 22.839 17.0603 23.8517 16.647 24.823C16.2337 25.7737 15.8823 26.59 15.593 27.272H12.214C11.9247 26.59 11.5733 25.7737 11.16 24.823C10.7467 23.8517 10.3127 22.839 9.858 21.785C9.424 20.731 8.97967 19.677 8.525 18.623C8.07033 17.569 7.657 16.608 7.285 15.74C7.07833 18.2407 6.92333 20.7207 6.82 23.18C6.71667 25.6393 6.634 27.9127 6.572 30H1.86C1.94267 28.3053 2.03567 26.497 2.139 24.575C2.263 22.653 2.387 20.7413 2.511 18.84C2.65567 16.918 2.81067 15.0787 2.976 13.322C3.162 11.5447 3.35833 9.943 3.565 8.517H8.184ZM58.0783 26.311C58.7603 26.311 59.3183 26.2593 59.7523 26.156C60.2069 26.032 60.5686 25.877 60.8373 25.691C61.1059 25.4843 61.2919 25.2467 61.3953 24.978C61.4986 24.7093 61.5503 24.4097 61.5503 24.079C61.5503 23.3763 61.2196 22.7977 60.5583 22.343C59.8969 21.8677 58.7603 21.3613 57.1483 20.824C56.4456 20.576 55.7429 20.297 55.0403 19.987C54.3376 19.6563 53.7073 19.2533 53.1493 18.778C52.5913 18.282 52.1366 17.693 51.7853 17.011C51.4339 16.3083 51.2583 15.461 51.2583 14.469C51.2583 13.477 51.4443 12.5883 51.8163 11.803C52.1883 10.997 52.7153 10.315 53.3973 9.757C54.0793 9.199 54.9059 8.77533 55.8773 8.486C56.8486 8.176 57.9439 8.021 59.1633 8.021C60.6099 8.021 61.8603 8.176 62.9143 8.486C63.9683 8.796 64.8363 9.137 65.5183 9.509L64.1233 13.322C63.5239 13.012 62.8523 12.7433 62.1083 12.516C61.3849 12.268 60.5066 12.144 59.4733 12.144C58.3159 12.144 57.4789 12.3093 56.9623 12.64C56.4663 12.95 56.2183 13.4357 56.2183 14.097C56.2183 14.4897 56.3113 14.8203 56.4973 15.089C56.6833 15.3577 56.9416 15.6057 57.2723 15.833C57.6236 16.0397 58.0163 16.236 58.4503 16.422C58.9049 16.5873 59.4009 16.763 59.9383 16.949C61.0543 17.3623 62.0256 17.7757 62.8523 18.189C63.6789 18.5817 64.3609 19.0467 64.8983 19.584C65.4563 20.1213 65.8696 20.7517 66.1383 21.475C66.4069 22.1983 66.5413 23.0767 66.5413 24.11C66.5413 26.1147 65.8386 27.675 64.4333 28.791C63.0279 29.8863 60.9096 30.434 58.0783 30.434C57.1276 30.434 56.2699 30.372 55.5053 30.248C54.7406 30.1447 54.0586 30.0103 53.4593 29.845C52.8806 29.6797 52.3743 29.504 51.9403 29.318C51.5269 29.132 51.1756 28.9563 50.8863 28.791L52.2503 24.947C52.8909 25.2983 53.6763 25.6187 54.6063 25.908C55.5569 26.1767 56.7143 26.311 58.0783 26.311ZM76.1212 26.311C76.8032 26.311 77.3612 26.2593 77.7952 26.156C78.2499 26.032 78.6116 25.877 78.8802 25.691C79.1489 25.4843 79.3349 25.2467 79.4382 24.978C79.5416 24.7093 79.5932 24.4097 79.5932 24.079C79.5932 23.3763 79.2626 22.7977 78.6012 22.343C77.9399 21.8677 76.8032 21.3613 75.1912 20.824C74.4886 20.576 73.7859 20.297 73.0832 19.987C72.3806 19.6563 71.7502 19.2533 71.1922 18.778C70.6342 18.282 70.1796 17.693 69.8282 17.011C69.4769 16.3083 69.3012 15.461 69.3012 14.469C69.3012 13.477 69.4872 12.5883 69.8592 11.803C70.2312 10.997 70.7582 10.315 71.4402 9.757C72.1222 9.199 72.9489 8.77533 73.9202 8.486C74.8916 8.176 75.9869 8.021 77.2062 8.021C78.6529 8.021 79.9032 8.176 80.9572 8.486C82.0112 8.796 82.8792 9.137 83.5612 9.509L82.1662 13.322C81.5669 13.012 80.8952 12.7433 80.1512 12.516C79.4279 12.268 78.5496 12.144 77.5162 12.144C76.3589 12.144 75.5219 12.3093 75.0052 12.64C74.5092 12.95 74.2612 13.4357 74.2612 14.097C74.2612 14.4897 74.3542 14.8203 74.5402 15.089C74.7262 15.3577 74.9846 15.6057 75.3152 15.833C75.6666 16.0397 76.0592 16.236 76.4932 16.422C76.9479 16.5873 77.4439 16.763 77.9812 16.949C79.0972 17.3623 80.0686 17.7757 80.8952 18.189C81.7219 18.5817 82.4039 19.0467 82.9412 19.584C83.4992 20.1213 83.9126 20.7517 84.1812 21.475C84.4499 22.1983 84.5842 23.0767 84.5842 24.11C84.5842 26.1147 83.8816 27.675 82.4762 28.791C81.0709 29.8863 78.9526 30.434 76.1212 30.434C75.1706 30.434 74.3129 30.372 73.5482 30.248C72.7836 30.1447 72.1016 30.0103 71.5022 29.845C70.9236 29.6797 70.4172 29.504 69.9832 29.318C69.5699 29.132 69.2186 28.9563 68.9292 28.791L70.2932 24.947C70.9339 25.2983 71.7192 25.6187 72.6492 25.908C73.5999 26.1767 74.7572 26.311 76.1212 26.311Z" fill="#3A001E"/>
<path d="M38.7023 30.434C37.1936 30.434 35.8916 30.2273 34.7963 29.814C33.701 29.38 32.7916 28.791 32.0683 28.047C31.3656 27.2823 30.8386 26.3833 30.4873 25.35C30.1566 24.296 29.9913 23.1387 29.9913 21.878V8.517H34.8273V21.475C34.8273 22.343 34.9203 23.087 35.1063 23.707C35.313 24.3063 35.5816 24.8023 35.9123 25.195C36.2636 25.567 36.677 25.8357 37.1523 26.001C37.6483 26.1663 38.1856 26.249 38.7643 26.249C39.9423 26.249 40.893 25.8873 41.6163 25.164C42.3603 24.4407 42.7323 23.211 42.7323 21.475V8.517H47.5683V21.878C47.5683 23.1387 47.3926 24.296 47.0413 25.35C46.69 26.404 46.1526 27.3133 45.4293 28.078C44.706 28.822 43.7863 29.4007 42.6703 29.814C41.5543 30.2273 40.2316 30.434 38.7023 30.434ZM35.3233 6.378C34.6826 6.378 34.1246 6.17133 33.6493 5.758C33.174 5.324 32.9363 4.74533 32.9363 4.022C32.9363 3.29867 33.174 2.73033 33.6493 2.317C34.1246 1.883 34.6826 1.666 35.3233 1.666C35.964 1.666 36.522 1.883 36.9973 2.317C37.4726 2.73033 37.7103 3.29867 37.7103 4.022C37.7103 4.74533 37.4726 5.324 36.9973 5.758C36.522 6.17133 35.964 6.378 35.3233 6.378ZM42.2363 6.378C41.5956 6.378 41.0376 6.17133 40.5623 5.758C40.087 5.324 39.8493 4.74533 39.8493 4.022C39.8493 3.29867 40.087 2.73033 40.5623 2.317C41.0376 1.883 41.5956 1.666 42.2363 1.666C42.877 1.666 43.435 1.883 43.9103 2.317C44.3856 2.73033 44.6233 3.29867 44.6233 4.022C44.6233 4.74533 44.3856 5.324 43.9103 5.758C43.435 6.17133 42.877 6.378 42.2363 6.378Z" fill="#FB7F4B"/>
</svg>
