<svg width="111" height="31" viewBox="0 0 111 31" fill="none" xmlns="http://www.w3.org/2000/svg">
<path d="M16.864 25C16.6367 24.256 16.3783 23.4913 16.089 22.706C15.8203 21.9207 15.5517 21.1353 15.283 20.35H6.913C6.64433 21.1353 6.36533 21.9207 6.076 22.706C5.80733 23.4913 5.55933 24.256 5.332 25H0.31C1.116 22.6853 1.88067 20.5463 2.604 18.583C3.32733 16.6197 4.03 14.77 4.712 13.034C5.41467 11.298 6.09667 9.655 6.758 8.105C7.44 6.53433 8.14267 5.005 8.866 3.517H13.485C14.1877 5.005 14.88 6.53433 15.562 8.105C16.244 9.655 16.926 11.298 17.608 13.034C18.3107 14.77 19.0237 16.6197 19.747 18.583C20.4703 20.5463 21.235 22.6853 22.041 25H16.864ZM11.067 8.384C10.9637 8.694 10.8087 9.11767 10.602 9.655C10.3953 10.1923 10.1577 10.8123 9.889 11.515C9.62033 12.2177 9.32067 12.9927 8.99 13.84C8.68 14.6873 8.35967 15.576 8.029 16.506H14.136C13.8053 15.576 13.485 14.6873 13.175 13.84C12.865 12.9927 12.5653 12.2177 12.276 11.515C12.0073 10.8123 11.7697 10.1923 11.563 9.655C11.3563 9.11767 11.191 8.694 11.067 8.384ZM34.9588 16.971C34.9588 15.545 34.6385 14.4083 33.9978 13.561C33.3571 12.693 32.4065 12.259 31.1458 12.259C30.7325 12.259 30.3501 12.2797 29.9988 12.321C29.6475 12.3417 29.3581 12.3727 29.1308 12.414V20.753C29.4201 20.939 29.7921 21.094 30.2468 21.218C30.7221 21.342 31.1975 21.404 31.6728 21.404C33.8635 21.404 34.9588 19.9263 34.9588 16.971ZM39.6708 16.847C39.6708 18.1077 39.5158 19.2547 39.2058 20.288C38.8958 21.3213 38.4411 22.21 37.8418 22.954C37.2425 23.698 36.4985 24.2767 35.6098 24.69C34.7211 25.1033 33.6981 25.31 32.5408 25.31C31.9001 25.31 31.3008 25.248 30.7428 25.124C30.1848 25 29.6475 24.8243 29.1308 24.597V30.735H24.5118V9.252C24.9251 9.128 25.4005 9.01433 25.9378 8.911C26.4751 8.787 27.0331 8.68367 27.6118 8.601C28.2111 8.51833 28.8105 8.45633 29.4098 8.415C30.0298 8.353 30.6188 8.322 31.1768 8.322C32.5201 8.322 33.7188 8.52867 34.7728 8.942C35.8268 9.33467 36.7155 9.903 37.4388 10.647C38.1621 11.3703 38.7098 12.259 39.0818 13.313C39.4745 14.367 39.6708 15.545 39.6708 16.847ZM53.0478 12.786C52.6344 12.6827 52.1488 12.5793 51.5908 12.476C51.0328 12.352 50.4334 12.29 49.7928 12.29C49.5034 12.29 49.1521 12.321 48.7388 12.383C48.3461 12.4243 48.0464 12.476 47.8398 12.538V25H43.2208V9.562C44.0474 9.27267 45.0188 9.004 46.1348 8.756C47.2714 8.48733 48.5321 8.353 49.9168 8.353C50.1648 8.353 50.4644 8.37367 50.8158 8.415C51.1671 8.43567 51.5184 8.477 51.8698 8.539C52.2211 8.58033 52.5724 8.64233 52.9238 8.725C53.2751 8.787 53.5748 8.86967 53.8228 8.973L53.0478 12.786ZM60.9179 25H56.2989V8.694H60.9179V25ZM61.3519 3.982C61.3519 4.82933 61.0729 5.501 60.5149 5.997C59.9776 6.47233 59.3369 6.71 58.5929 6.71C57.8489 6.71 57.1979 6.47233 56.6399 5.997C56.1026 5.501 55.8339 4.82933 55.8339 3.982C55.8339 3.13467 56.1026 2.47333 56.6399 1.998C57.1979 1.502 57.8489 1.254 58.5929 1.254C59.3369 1.254 59.9776 1.502 60.5149 1.998C61.0729 2.47333 61.3519 3.13467 61.3519 3.982ZM71.7698 25.31C70.4265 25.2893 69.3312 25.1447 68.4838 24.876C67.6572 24.6073 66.9958 24.2353 66.4998 23.76C66.0245 23.264 65.6938 22.675 65.5078 21.993C65.3425 21.2903 65.2598 20.505 65.2598 19.637V1.688L69.8788 0.943999V18.707C69.8788 19.1203 69.9098 19.4923 69.9718 19.823C70.0338 20.1537 70.1475 20.4327 70.3128 20.66C70.4988 20.8873 70.7572 21.0733 71.0878 21.218C71.4185 21.3627 71.8628 21.4557 72.4208 21.497L71.7698 25.31ZM81.8264 3.269C85.0298 3.269 87.4891 3.83733 89.2044 4.974C90.9198 6.09 91.7774 7.92933 91.7774 10.492C91.7774 13.0753 90.9094 14.9457 89.1734 16.103C87.4374 17.2397 84.9574 17.808 81.7334 17.808H80.2144V25H75.3784V3.827C76.4324 3.62033 77.5484 3.47567 78.7264 3.393C79.9044 3.31033 80.9378 3.269 81.8264 3.269ZM82.1364 7.392C81.7851 7.392 81.4338 7.40233 81.0824 7.423C80.7518 7.44367 80.4624 7.46433 80.2144 7.485V13.685H81.7334C83.4074 13.685 84.6681 13.4577 85.5154 13.003C86.3628 12.5483 86.7864 11.701 86.7864 10.461C86.7864 9.86167 86.6728 9.36567 86.4454 8.973C86.2388 8.58033 85.9288 8.27033 85.5154 8.043C85.1228 7.795 84.6371 7.62967 84.0584 7.547C83.4798 7.44367 82.8391 7.392 82.1364 7.392ZM95.3286 25V3.517H109.837V7.578H100.165V11.794H108.752V15.762H100.165V20.939H110.55V25H95.3286Z" fill="#27187F"/>
</svg>
