<svg width="520" height="307" viewBox="0 0 520 307" fill="none" xmlns="http://www.w3.org/2000/svg">
<path d="M67.8629 299.997C67.8629 299.997 -54.3021 223.26 29.1869 140.997C112.676 58.7343 224.405 -25.3677 299.3 7.16833C374.195 39.7043 367.459 80.8353 449.721 140.383C531.983 199.931 512.952 247.201 498.221 271.142C483.49 295.083 481.032 301.223 481.032 301.223L67.8629 299.997Z" fill="#FB7F4B"/>
<path d="M161.244 82.6812C179.334 66.5692 192.619 76.1812 202.512 86.9212C210.398 95.4832 211.498 97.3811 218.012 106.251C219.038 107.505 219.646 109.048 219.753 110.664C219.936 120.47 224.953 161.933 219.376 176.241C212.876 192.918 132.694 200.549 132.694 200.549L161.244 82.6812Z" fill="#303C60"/>
<path d="M212.592 185.735C212.484 185.738 212.376 185.719 212.275 185.68C212.173 185.641 212.081 185.582 212.002 185.508C211.924 185.433 211.86 185.343 211.816 185.244C211.772 185.145 211.749 185.038 211.746 184.929C211.743 184.821 211.762 184.713 211.801 184.612C211.84 184.511 211.898 184.418 211.973 184.34C212.048 184.261 212.138 184.198 212.237 184.154C212.336 184.11 212.443 184.086 212.551 184.083C213.722 184.026 214.864 183.701 215.89 183.134C216.916 182.568 217.799 181.774 218.471 180.813C227.461 169.165 222.407 130.277 218.002 109.136C217.958 108.921 218 108.698 218.12 108.515C218.24 108.331 218.428 108.203 218.643 108.158C218.857 108.114 219.081 108.156 219.264 108.276C219.447 108.396 219.576 108.584 219.62 108.799C222.207 121.36 223.938 134.082 224.802 146.878C225.834 164.412 224.144 176.17 219.78 181.823C218.961 182.971 217.892 183.919 216.655 184.596C215.418 185.273 214.044 185.662 212.635 185.734L212.592 185.735Z" fill="#303C60"/>
<path d="M168.027 77.8813C133.26 97.1023 154.46 162.113 110.365 185.291C98.1494 191.712 60.6174 224.297 85.2084 267.262C101.294 295.362 149.372 289.309 165.2 264.436C181.028 239.563 168.027 77.8813 168.027 77.8813Z" fill="#303C60"/>
<path d="M75.5061 225.684C75.3883 225.684 75.2717 225.66 75.1643 225.611C75.0569 225.563 74.9612 225.492 74.8835 225.403C74.8058 225.315 74.748 225.21 74.7139 225.098C74.6799 224.985 74.6704 224.866 74.6861 224.749C75.4748 220.249 76.9079 215.886 78.9411 211.794C83.5427 202.187 90.7522 194.066 99.7471 188.358C120.147 175.374 133.694 163.139 149.705 102.821C149.761 102.609 149.9 102.428 150.089 102.318C150.279 102.207 150.505 102.177 150.717 102.233C150.929 102.289 151.11 102.428 151.221 102.617C151.331 102.807 151.361 103.033 151.305 103.245C143.567 132.392 135.895 152.095 127.161 165.254C119.051 177.473 110.705 183.345 100.637 189.754C94.412 193.672 89.0475 198.814 84.8687 204.867C80.6899 210.921 77.7841 217.759 76.3272 224.969C76.3001 225.168 76.2019 225.349 76.0509 225.481C75.9 225.612 75.7064 225.685 75.5061 225.684Z" fill="#303C60"/>
<path d="M76.2663 208.845C76.1185 208.845 75.9734 208.805 75.8462 208.73C75.7189 208.655 75.6141 208.547 75.5427 208.418C75.4712 208.288 75.4356 208.142 75.4398 207.995C75.4439 207.847 75.4876 207.703 75.5662 207.578C80.4317 199.777 86.9463 193.136 94.6523 188.122C123.304 169.593 128.045 158.94 151.71 97.9218C151.79 97.7175 151.947 97.5531 152.148 97.4649C152.349 97.3767 152.576 97.3718 152.781 97.4514C152.985 97.5309 153.15 97.6885 153.238 97.8892C153.326 98.09 153.331 98.3176 153.251 98.5219C141.42 129.028 134.351 146.904 126.614 159.574C118.307 173.18 108.933 180.854 95.5503 189.509C88.0458 194.393 81.702 200.862 76.9643 208.46C76.8899 208.578 76.7868 208.675 76.6648 208.742C76.5427 208.809 76.4057 208.845 76.2663 208.845Z" fill="#303C60"/>
<path d="M166.827 118.444C154.857 143.305 156.698 165.864 156.698 165.864C156.698 165.864 158.079 174.612 163.604 176.453C169.129 178.294 176.955 172.769 176.495 165.403C176.035 158.037 178.337 140.082 181.095 133.636C183.853 127.19 166.827 118.444 166.827 118.444Z" fill="#FDCEAE"/>
<path d="M103.581 291.189C104.335 297.973 102.639 297.408 108.669 298.538C114.699 299.668 125.44 295.523 125.44 295.523L113.38 273.099L103.581 291.189Z" fill="#6791C9"/>
<path d="M158.144 152.515C154.753 163.538 129.315 155.059 120.412 157.603C111.509 160.147 103.877 197.456 102.605 230.949C101.333 264.442 103.029 291.149 106.421 295.392C109.813 299.635 165.777 301.327 170.864 299.632C175.951 297.937 128.464 276.738 128.464 276.738C128.464 276.738 125.496 237.733 129.312 217.807C133.128 197.881 167.469 171.594 167.469 171.594L158.144 152.515Z" fill="#FDCEAE"/>
<path d="M170.014 155.907C178.914 169.474 202.235 167.778 210.291 178.801C218.347 189.824 235.305 250.451 235.305 250.451L253.112 188.976C253.112 188.976 267.553 186.55 262.863 196.607C254.523 214.493 251.413 272.207 242.368 280.4C232.309 289.515 222.299 282.1 216.651 266.137C211.187 250.699 197.572 217.381 187.821 204.662C178.07 191.943 167.47 171.592 167.47 171.592L170.014 155.907Z" fill="#FDCEAE"/>
<path d="M131.432 157.602C149.239 178.377 184.004 177.528 191.632 174.985L199.263 172.441C199.263 172.441 205.198 170.321 210.286 176.257C215.374 182.193 227.669 219.502 229.786 227.981C231.903 236.46 235.297 250.451 235.297 250.451C235.297 250.451 226.197 261.369 226.197 272.392C226.197 283.415 230.06 283.51 230.06 283.51C230.06 283.51 218.76 280.977 216.215 274.193C213.67 267.409 190.777 205.934 190.777 205.934L127.606 207.206L128.454 276.736C128.454 276.736 122.943 271.648 115.311 276.736C107.679 281.824 105.136 293.695 106.411 295.39C107.686 297.085 103.867 297.09 103.867 295.814C103.867 294.538 96.6601 263.592 101.747 212.714C106.834 161.836 116.585 156.327 122.098 155.903C125.306 155.62 128.53 156.206 131.432 157.602Z" fill="#C4515F"/>
<path d="M227.483 282.631C227.544 282.654 227.608 282.668 227.672 282.672C227.672 282.672 227.603 282.658 227.483 282.631Z" fill="#6791C9"/>
<path d="M229.93 251.993C226.255 253.124 220.037 266.126 220.037 266.126C220.037 266.126 205.904 235.316 201.664 192.635L196.619 221.59C203.583 240.29 214.514 269.627 216.226 274.19C218.553 280.395 227.937 282.984 229.226 283.271C228.874 283.152 228.097 282.682 227.453 280.82C227.082 280.482 224.959 279.489 224.562 279.125C221.17 276.016 222.584 268.667 224.845 260.47C227.106 252.273 233.605 250.862 229.93 251.993Z" fill="#E05768"/>
<path d="M130.66 207.145L123.653 175.11C116.021 185.852 115.173 222.597 118.282 247.753C120.832 268.384 124.647 273.738 127.267 275.889C127.694 276.132 128.096 276.416 128.467 276.737L127.619 207.206L130.66 207.145Z" fill="#C4515F"/>
<path d="M110.365 174.827C123.365 209.877 116.865 216.943 133.976 258.081C143.532 281.058 161.958 298.358 161.958 298.358C172.943 300.811 184.223 301.668 195.452 300.901C214.107 299.629 227.764 298.347 227.764 298.347C227.764 298.347 208.171 286.486 207.323 278.43C206.475 270.374 202.795 238.423 207.6 215.81C211.353 198.152 195.876 180.494 195.876 180.494L170.014 179.222L110.365 174.827Z" fill="#C4515F"/>
<path opacity="0.5" d="M133.261 228.532C131 220.332 142.871 231.076 162.374 233.055C181.877 235.034 203.643 231.924 192.902 235.316C182.161 238.708 152.764 233.616 158.135 244.361C164.455 257.002 171.918 269.235 182.725 276.584C189.792 281.389 206.751 285.911 190.357 283.368C173.963 280.825 156.438 261.603 148.806 249.168C141.174 236.733 133.764 230.36 133.261 228.532Z" fill="#E05768"/>
<path d="M176.447 162.178C176.619 153.717 178.682 139.278 181.098 133.638C183.077 129.02 174.898 123.221 170.098 120.303L166.039 120.129C165.421 121.476 164.841 122.815 164.299 124.145C160.013 152.284 172.839 163.912 178.959 166.252C181.569 167.152 184.347 167.458 187.089 167.146C183.357 165.92 179.784 164.252 176.447 162.178Z" fill="#F3B898"/>
<path d="M168.682 174.69C167.161 174.688 165.646 174.505 164.169 174.144C160.632 173.281 152.192 170.004 150.23 158.229C150.22 158.168 150.222 158.106 150.236 158.046C150.249 157.986 150.275 157.93 150.311 157.88C150.346 157.83 150.392 157.787 150.444 157.754C150.496 157.722 150.554 157.7 150.615 157.69C150.675 157.679 150.737 157.681 150.797 157.695C150.857 157.709 150.914 157.734 150.964 157.77C151.014 157.806 151.057 157.851 151.089 157.903C151.122 157.955 151.144 158.013 151.154 158.074C153.025 169.299 161.034 172.415 164.391 173.234C169.607 174.505 175.14 173.328 177.264 170.496C178.964 168.225 177.945 163.388 177.935 163.339C177.922 163.279 177.921 163.217 177.932 163.156C177.942 163.096 177.965 163.038 177.998 162.986C178.031 162.935 178.075 162.89 178.125 162.855C178.176 162.82 178.233 162.795 178.293 162.782C178.353 162.768 178.415 162.767 178.475 162.778C178.536 162.789 178.594 162.812 178.646 162.845C178.697 162.878 178.742 162.921 178.777 162.972C178.812 163.022 178.837 163.079 178.85 163.139C178.897 163.354 179.974 168.439 178.013 171.057C176.276 173.373 172.692 174.69 168.682 174.69Z" fill="#F5CE5C"/>
<path d="M208.578 129.506C205.703 144.692 199.06 156.943 187.82 154.635C176.58 152.327 164.763 136.285 167.873 121.145C170.983 106.005 182.617 95.6031 193.857 97.9121C205.097 100.221 212.41 109.27 208.578 129.506Z" fill="#FDCEAE"/>
<path d="M248.586 204.506C248.586 204.506 227.81 260.331 226.821 266.126C225.832 271.921 227.811 275.595 228.377 275.595C228.943 275.595 246.608 245.35 246.608 245.35L248.586 204.506Z" fill="#FDCEAE"/>
<path d="M249.433 202.057C251.133 196.404 248.491 189.243 248.491 189.243L256.029 190.185L249.433 202.057Z" fill="#FDCEAE"/>
<path d="M257.715 192.414H236.683C236.386 192.414 236.093 192.344 235.828 192.211C235.562 192.078 235.332 191.884 235.154 191.646C234.976 191.408 234.857 191.131 234.805 190.839C234.753 190.546 234.771 190.246 234.855 189.961L248.132 145.445C248.25 145.051 248.492 144.706 248.821 144.461C249.151 144.216 249.551 144.083 249.961 144.083H270.993C271.29 144.083 271.584 144.153 271.849 144.286C272.115 144.419 272.345 144.613 272.523 144.851C272.7 145.089 272.82 145.366 272.872 145.658C272.923 145.951 272.906 146.251 272.821 146.536L259.544 191.052C259.427 191.446 259.185 191.791 258.856 192.036C258.526 192.282 258.126 192.414 257.715 192.414Z" fill="#4381DB"/>
<path d="M260.355 192.414H239.324C239.026 192.414 238.733 192.345 238.468 192.211C238.202 192.078 237.971 191.885 237.794 191.646C237.616 191.408 237.496 191.132 237.444 190.839C237.392 190.546 237.41 190.246 237.494 189.961L250.772 145.445C250.889 145.051 251.13 144.706 251.46 144.461C251.789 144.215 252.189 144.083 252.599 144.083H273.632C273.929 144.083 274.222 144.153 274.487 144.286C274.753 144.419 274.983 144.613 275.161 144.851C275.338 145.089 275.458 145.366 275.51 145.658C275.562 145.951 275.544 146.251 275.46 146.536L262.182 191.052C262.065 191.446 261.824 191.791 261.494 192.036C261.165 192.282 260.765 192.414 260.355 192.414Z" fill="#2E5B9A"/>
<path d="M245.126 160.147C242.884 168.226 241.375 174.861 241.755 174.967C242.135 175.073 244.262 168.609 246.504 160.53C248.746 152.451 250.255 145.816 249.875 145.711C249.495 145.606 247.368 152.068 245.126 160.147Z" fill="#9CBEED"/>
<path d="M259.42 205.637C260.042 198.296 266.4 191.415 268.82 189.219C269.184 188.89 269.473 188.487 269.67 188.038C269.867 187.589 269.966 187.103 269.962 186.612C269.927 182.953 269.762 174.312 269.008 173.305C268.045 172.021 265.636 155.481 264.508 156.123C263.38 156.765 264.829 171.217 264.829 171.217C264.829 171.217 262.099 169.933 260.654 169.29C259.209 168.647 253.267 175.232 253.267 175.232C253.267 175.232 250.481 182.27 258.098 179.256C267.143 175.675 260.359 185.663 254.329 192.07C249.36 197.349 253.589 198.517 253.589 198.517L257.603 198.357L259.42 205.637Z" fill="#FDCEAE"/>
<path d="M257.143 211.414C256.404 211.41 255.668 211.295 254.963 211.074C253.007 210.464 249.59 208.497 248.687 202.174C248.67 202.051 248.702 201.926 248.776 201.827C248.851 201.727 248.961 201.662 249.084 201.644C249.207 201.626 249.332 201.658 249.432 201.733C249.531 201.807 249.597 201.918 249.614 202.041C250.387 207.45 253.014 209.424 255.073 210.128C256.171 210.562 257.385 210.603 258.509 210.242C258.524 210.139 258.571 210.044 258.645 209.972C258.719 209.899 258.814 209.853 258.917 209.841C259.02 209.828 259.124 209.85 259.213 209.903C259.302 209.955 259.371 210.036 259.41 210.132C259.455 210.251 259.465 210.38 259.438 210.504C259.412 210.628 259.35 210.742 259.26 210.832C258.649 211.278 257.896 211.485 257.143 211.414Z" fill="#F5CE5C"/>
<path d="M256.354 209.595C255.719 209.595 255.084 209.549 254.454 209.458C250.819 208.93 248.383 207.086 247.771 204.399C247.756 204.338 247.752 204.275 247.761 204.213C247.77 204.151 247.792 204.091 247.825 204.038C247.857 203.984 247.9 203.937 247.951 203.901C248.002 203.864 248.06 203.838 248.121 203.824C248.182 203.81 248.245 203.808 248.307 203.819C248.369 203.83 248.428 203.853 248.481 203.888C248.533 203.922 248.578 203.966 248.614 204.018C248.649 204.07 248.673 204.128 248.685 204.19C249.269 206.755 251.601 207.845 253.453 208.308C256.053 208.957 258.49 208.557 258.782 208.22C258.812 208.167 258.853 208.12 258.901 208.082C258.949 208.044 259.004 208.017 259.063 208.001C259.122 207.985 259.184 207.981 259.245 207.989C259.305 207.997 259.364 208.017 259.416 208.048C259.525 208.111 259.604 208.214 259.637 208.335C259.669 208.455 259.653 208.584 259.591 208.693C259.244 209.309 257.88 209.595 256.354 209.595Z" fill="#F5CE5C"/>
<path d="M195.677 137.408C195.445 137.408 195.214 137.391 194.985 137.356C191.418 136.81 189.264 132.208 190.08 126.88C190.391 124.559 191.348 122.373 192.84 120.568C193.422 119.796 194.193 119.187 195.078 118.799C195.964 118.411 196.934 118.258 197.896 118.353C201.463 118.899 203.617 123.501 202.801 128.829C202.037 133.81 198.986 137.408 195.677 137.408ZM197.218 119.953C196.604 119.997 196.007 120.172 195.466 120.465C194.925 120.758 194.453 121.163 194.081 121.653C192.796 123.221 191.975 125.117 191.712 127.126C191.059 131.391 192.672 135.326 195.234 135.718C197.796 136.11 200.513 132.838 201.166 128.573C201.819 124.308 200.206 120.373 197.644 119.981C197.503 119.961 197.361 119.952 197.219 119.953H197.218Z" fill="white"/>
<path d="M207.435 137.432C207.322 137.432 207.209 137.424 207.096 137.407C204.761 137.049 203.497 133.093 204.214 128.401C204.931 123.709 207.329 120.301 209.659 120.67C210.859 120.854 211.811 121.955 212.327 123.77C212.809 125.702 212.882 127.713 212.543 129.675C211.858 134.14 209.658 137.432 207.435 137.432ZM209.315 121.893C207.939 121.893 206.068 124.54 205.447 128.593C204.804 132.793 205.9 135.963 207.286 136.175C208.672 136.387 210.663 133.694 211.307 129.49C211.62 127.705 211.558 125.875 211.125 124.115C210.755 122.815 210.152 122.015 209.47 121.907C209.419 121.898 209.367 121.893 209.314 121.892L209.315 121.893Z" fill="white"/>
<path d="M191.771 123.365C191.694 123.365 191.618 123.354 191.544 123.333L163.844 115.419C163.634 115.359 163.456 115.217 163.349 115.026C163.243 114.834 163.217 114.608 163.277 114.398C163.337 114.187 163.479 114.009 163.67 113.902C163.862 113.796 164.088 113.77 164.298 113.83L191.998 121.745C192.19 121.799 192.356 121.921 192.466 122.088C192.575 122.256 192.62 122.456 192.592 122.654C192.565 122.852 192.466 123.033 192.316 123.164C192.165 123.295 191.972 123.367 191.772 123.366L191.771 123.365Z" fill="white"/>
<path d="M211.56 106.142C168.69 131.393 166.335 114.433 166.335 114.433L168.878 90.313L194.317 91.726L211.56 106.142Z" fill="#303C60"/>
<path d="M169.648 120.036C170.648 124.304 169.284 128.272 166.606 128.897C163.928 129.522 160.949 126.57 159.952 122.297C158.955 118.024 160.317 114.061 162.994 113.435C165.671 112.809 168.652 115.768 169.648 120.036Z" fill="#F09959"/>
<path d="M166.711 125.643C166.711 125.977 166.612 126.303 166.426 126.581C166.241 126.858 165.977 127.075 165.669 127.203C165.36 127.33 165.021 127.364 164.694 127.299C164.366 127.233 164.065 127.073 163.829 126.837C163.593 126.601 163.432 126.3 163.367 125.972C163.302 125.645 163.336 125.306 163.464 124.997C163.591 124.689 163.808 124.425 164.085 124.24C164.363 124.054 164.689 123.955 165.023 123.955C165.471 123.955 165.9 124.133 166.216 124.449C166.533 124.766 166.711 125.195 166.711 125.643Z" fill="#F5CE5C"/>
<path d="M497.431 306.043H68.5994C67.5571 306.043 66.5575 305.629 65.8204 304.892C65.0834 304.155 64.6694 303.155 64.6694 302.113C64.6694 301.071 65.0834 300.071 65.8204 299.334C66.5575 298.597 67.5571 298.183 68.5994 298.183H497.431C498.474 298.183 499.473 298.597 500.21 299.334C500.947 300.071 501.361 301.071 501.361 302.113C501.361 303.155 500.947 304.155 500.21 304.892C499.473 305.629 498.474 306.043 497.431 306.043Z" fill="#2E5B9A"/>
<path d="M170.248 297.427C170.248 297.427 154.082 297.627 153.878 299.064C153.674 300.501 154.492 301.11 160.221 302.134C165.95 303.158 230.41 303.566 231.021 303.157C231.632 302.748 250.461 298.246 250.461 298.246L205.238 297.428L170.248 297.427Z" fill="#DBE5EB"/>
<path d="M179.051 286.666C179.051 286.666 190.64 281.578 194.032 283.839C197.424 286.1 207.222 296.465 207.222 296.465L179.051 286.666Z" fill="#FDCEAE"/>
<path d="M206.584 297.388C206.363 297.664 206.035 297.779 205.85 297.641L182.004 279.888C180.72 278.932 180.104 277.469 180.726 276.697C181.348 275.925 182.904 276.197 184.119 277.244L206.67 296.616C206.845 296.766 206.805 297.112 206.584 297.388Z" fill="#2E5B9A"/>
<path d="M144.002 284.499C144.002 284.499 163.223 292.13 165.485 292.13C167.747 292.13 180.371 283.651 184.611 284.781C188.851 285.911 209.579 296.37 209.011 297.217C208.443 298.064 202.511 300.044 184.985 299.479C167.459 298.914 138.912 296.37 138.912 296.37L144.002 284.499Z" fill="#FDCEAE"/>
<path d="M307.377 281.935H381.527C383.725 281.935 385.833 282.808 387.388 284.363C388.942 285.917 389.815 288.025 389.815 290.223C389.815 291.311 389.601 292.389 389.184 293.394C388.768 294.4 388.157 295.313 387.388 296.083C386.618 296.852 385.705 297.463 384.699 297.879C383.694 298.296 382.616 298.51 381.528 298.51H307.377C306.502 298.51 305.663 298.162 305.044 297.544C304.425 296.925 304.077 296.085 304.077 295.21V285.235C304.077 284.36 304.425 283.52 305.044 282.902C305.663 282.283 306.502 281.935 307.377 281.935V281.935Z" fill="#F37168"/>
<path d="M378.469 284.739H304.088C303.548 285.629 303.263 286.649 303.261 287.689V292.753C303.263 293.794 303.548 294.814 304.088 295.703H378.469C379.741 295.699 380.96 295.192 381.859 294.293C382.758 293.394 383.265 292.175 383.269 290.903V289.545C383.267 288.272 382.761 287.052 381.861 286.152C380.962 285.251 379.742 284.743 378.469 284.739Z" fill="#F2E5DE"/>
<path d="M322.905 271.908H380.459C381.789 271.908 383.064 272.436 384.004 273.376C384.944 274.317 385.472 275.592 385.472 276.921C385.472 278.251 384.944 279.526 384.004 280.466C383.064 281.406 381.789 281.934 380.459 281.934H322.905C322.375 281.934 321.866 281.723 321.491 281.348C321.116 280.973 320.905 280.465 320.905 279.934V273.908C320.905 273.378 321.116 272.869 321.491 272.494C321.866 272.119 322.375 271.908 322.905 271.908V271.908Z" fill="#7BCEE8"/>
<path d="M376.924 273.604H320.91C320.513 274.115 320.294 274.742 320.287 275.389V278.453C320.294 279.1 320.513 279.727 320.91 280.238H376.924C378.913 280.238 380.54 278.931 380.54 277.338V276.514C380.543 274.911 378.916 273.604 376.924 273.604Z" fill="#F2E5DE"/>
<path d="M392.096 69.16H328.558C326.532 69.16 325.478 67.5021 326.215 65.4771L335.823 39.077C336.228 38.052 336.915 37.1624 337.804 36.5107C338.693 35.8591 339.748 35.472 340.847 35.394H404.386C406.411 35.394 407.466 37.052 406.729 39.077L397.121 65.4771C396.716 66.5023 396.029 67.392 395.14 68.0437C394.251 68.6954 393.196 69.0824 392.096 69.16Z" fill="#9EC8FF"/>
<path d="M389.938 66.3982H332.72C330.965 66.3982 330.052 64.9623 330.69 63.2073L338.647 41.3483C338.998 40.4604 339.593 39.6897 340.362 39.1252C341.132 38.5608 342.046 38.2256 342.998 38.1582H400.217C401.972 38.1582 402.885 39.5933 402.246 41.3483L394.29 63.2073C393.94 64.0953 393.345 64.8661 392.575 65.4307C391.805 65.9953 390.891 66.3306 389.938 66.3982Z" fill="white"/>
<path d="M353.77 67.626C348.501 81.541 340.389 85.838 340.389 85.838C340.389 85.838 346.158 77.858 345.323 73.97C345.079 72.8303 344.606 71.7524 343.931 70.8022C343.256 69.8521 342.395 69.0496 341.399 68.444L353.77 67.626Z" fill="#9EC8FF"/>
<path d="M394.534 45.935H357.65C357.518 45.9429 357.385 45.9151 357.267 45.8546C357.148 45.794 357.048 45.7031 356.977 45.5909C356.906 45.4787 356.865 45.3494 356.861 45.2165C356.856 45.0836 356.887 44.9519 356.95 44.835L356.969 44.783C357.09 44.477 357.295 44.2114 357.561 44.0168C357.826 43.8222 358.141 43.7065 358.469 43.683H395.354C395.487 43.6749 395.62 43.7025 395.738 43.7629C395.857 43.8233 395.957 43.9144 396.029 44.0267C396.1 44.139 396.14 44.2683 396.145 44.4013C396.149 44.5343 396.118 44.6661 396.054 44.783L396.035 44.835C395.914 45.1413 395.709 45.407 395.444 45.6016C395.178 45.7963 394.863 45.9118 394.534 45.935Z" fill="#9EC8FF"/>
<path d="M392.824 50.641H355.939C355.806 50.6488 355.674 50.621 355.555 50.5605C355.437 50.5 355.337 50.4089 355.266 50.2967C355.194 50.1845 355.154 50.0553 355.149 49.9224C355.145 49.7896 355.176 49.6578 355.239 49.5409L355.257 49.49C355.378 49.1839 355.583 48.9183 355.848 48.7237C356.114 48.5291 356.429 48.4134 356.757 48.39H393.642C393.775 48.3821 393.907 48.4098 394.026 48.4703C394.144 48.5308 394.244 48.6219 394.315 48.7341C394.387 48.8463 394.427 48.9755 394.432 49.1084C394.436 49.2412 394.405 49.373 394.342 49.49L394.323 49.5409C394.202 49.8469 393.997 50.1126 393.732 50.3072C393.467 50.5018 393.152 50.6175 392.824 50.641Z" fill="#9EC8FF"/>
<path d="M390.885 55.9619H354C353.867 55.9697 353.735 55.9419 353.616 55.8814C353.498 55.8209 353.398 55.7298 353.327 55.6176C353.255 55.5055 353.215 55.3763 353.21 55.2434C353.206 55.1105 353.237 54.9787 353.3 54.8618L353.319 54.8109C353.44 54.5047 353.645 54.2389 353.91 54.0443C354.176 53.8496 354.491 53.734 354.819 53.7108H391.704C391.837 53.7029 391.969 53.7307 392.088 53.7912C392.206 53.8517 392.306 53.9428 392.377 54.055C392.449 54.1672 392.489 54.2964 392.494 54.4293C392.498 54.5622 392.467 54.694 392.404 54.8109L392.385 54.8618C392.264 55.1679 392.059 55.4337 391.794 55.6284C391.528 55.823 391.213 55.9386 390.885 55.9619Z" fill="#9EC8FF"/>
<path d="M351.897 49.7181C350.437 53.7301 346.597 56.9822 343.319 56.9822C340.041 56.9822 338.569 53.7291 340.028 49.7181C341.487 45.7071 345.328 42.4531 348.607 42.4531C351.886 42.4531 353.358 45.7091 351.897 49.7181Z" fill="#9EC8FF"/>
<path d="M355.978 137.813H352.829C352.684 137.821 352.54 137.791 352.41 137.725C352.281 137.66 352.172 137.56 352.094 137.438C352.016 137.315 351.972 137.174 351.966 137.029C351.961 136.884 351.995 136.74 352.064 136.613L353.008 134.019C353.14 133.684 353.364 133.393 353.655 133.181C353.946 132.968 354.291 132.843 354.65 132.819H357.798C357.943 132.81 358.088 132.84 358.217 132.906C358.346 132.972 358.455 133.071 358.533 133.194C358.612 133.316 358.656 133.457 358.661 133.602C358.666 133.747 358.633 133.891 358.564 134.019L357.62 136.613C357.488 136.948 357.264 137.239 356.973 137.451C356.682 137.663 356.337 137.789 355.978 137.813Z" fill="#9EC8FF"/>
<path d="M366.081 137.813H362.932C362.787 137.821 362.643 137.791 362.513 137.725C362.384 137.659 362.274 137.56 362.196 137.438C362.118 137.315 362.074 137.174 362.069 137.029C362.064 136.884 362.097 136.741 362.166 136.613L363.11 134.019C363.242 133.684 363.467 133.394 363.757 133.181C364.048 132.969 364.393 132.843 364.752 132.819H367.901C368.046 132.81 368.19 132.84 368.32 132.906C368.449 132.972 368.558 133.071 368.636 133.194C368.714 133.316 368.758 133.457 368.764 133.602C368.769 133.747 368.736 133.891 368.667 134.019L367.723 136.613C367.591 136.948 367.367 137.239 367.076 137.451C366.785 137.663 366.44 137.789 366.081 137.813Z" fill="#9EC8FF"/>
<path d="M376.187 137.813H373.039C372.894 137.822 372.749 137.792 372.62 137.726C372.49 137.66 372.381 137.561 372.303 137.438C372.224 137.316 372.181 137.175 372.175 137.03C372.17 136.885 372.204 136.741 372.273 136.613L373.216 134.019C373.348 133.684 373.572 133.393 373.863 133.18C374.154 132.968 374.499 132.843 374.859 132.819H378.008C378.153 132.81 378.298 132.84 378.427 132.906C378.557 132.972 378.666 133.071 378.744 133.193C378.822 133.316 378.866 133.457 378.872 133.602C378.877 133.747 378.843 133.891 378.774 134.019L377.83 136.613C377.698 136.948 377.474 137.239 377.183 137.451C376.892 137.664 376.546 137.789 376.187 137.813Z" fill="#9EC8FF"/>
<path d="M315.944 117.863H252.406C250.38 117.863 249.326 116.206 250.063 114.179L259.67 87.7792C260.075 86.7542 260.762 85.8646 261.651 85.213C262.54 84.5614 263.595 84.1743 264.694 84.0962H328.232C330.258 84.0962 331.313 85.7532 330.575 87.7792L320.968 114.179C320.563 115.204 319.876 116.094 318.988 116.746C318.099 117.398 317.044 117.785 315.944 117.863Z" fill="#9EC8FF"/>
<path d="M313.79 115.1H256.571C254.816 115.1 253.903 113.665 254.541 111.91L262.497 90.0514C262.848 89.1634 263.443 88.3926 264.213 87.828C264.983 87.2634 265.897 86.928 266.849 86.8604H324.068C325.823 86.8604 326.737 88.2964 326.098 90.0514L318.141 111.91C317.791 112.798 317.196 113.569 316.426 114.133C315.656 114.697 314.743 115.033 313.79 115.1Z" fill="white"/>
<path d="M255.625 116.328C250.765 130.243 255.749 134.54 255.749 134.54C255.749 134.54 255.789 126.56 259.455 122.671C261.701 120.31 264.404 118.429 267.4 117.145L255.625 116.328Z" fill="#9EC8FF"/>
<path d="M298.261 96.4792H267.136C267.014 96.4863 266.892 96.4606 266.783 96.4048C266.674 96.3491 266.582 96.2652 266.516 96.1619C266.451 96.0586 266.414 95.9398 266.41 95.8174C266.405 95.6951 266.434 95.5739 266.492 95.4662L266.574 95.2413C266.686 94.9595 266.874 94.7148 267.119 94.5356C267.363 94.3564 267.653 94.2498 267.955 94.2282H299.08C299.202 94.2211 299.324 94.2468 299.433 94.3026C299.542 94.3583 299.634 94.4422 299.7 94.5455C299.765 94.6488 299.802 94.7678 299.807 94.8901C299.811 95.0124 299.782 95.1336 299.724 95.2413L299.642 95.4662C299.531 95.748 299.342 95.9925 299.098 96.1717C298.853 96.3509 298.563 96.4575 298.261 96.4792Z" fill="#9EC8FF"/>
<path d="M296.547 101.186H265.423C265.301 101.193 265.179 101.168 265.07 101.112C264.961 101.056 264.869 100.972 264.803 100.869C264.738 100.766 264.701 100.647 264.697 100.524C264.692 100.402 264.721 100.281 264.779 100.173L264.861 99.9482C264.973 99.6663 265.162 99.4218 265.406 99.2426C265.651 99.0633 265.941 98.9568 266.243 98.9353H297.367C297.489 98.928 297.612 98.9535 297.721 99.0092C297.83 99.0649 297.922 99.1488 297.988 99.2521C298.054 99.3554 298.09 99.4744 298.095 99.5968C298.099 99.7192 298.07 99.8405 298.012 99.9482L297.93 100.173C297.819 100.456 297.63 100.7 297.385 100.88C297.14 101.059 296.85 101.165 296.547 101.186Z" fill="#9EC8FF"/>
<path d="M294.612 106.506H263.486C263.364 106.514 263.242 106.488 263.133 106.432C263.024 106.377 262.932 106.293 262.866 106.189C262.8 106.086 262.763 105.967 262.759 105.845C262.754 105.722 262.783 105.601 262.841 105.493L262.923 105.268C263.035 104.986 263.224 104.742 263.468 104.562C263.713 104.383 264.003 104.277 264.305 104.255H295.43C295.553 104.248 295.675 104.273 295.784 104.329C295.893 104.385 295.985 104.469 296.051 104.572C296.117 104.675 296.153 104.794 296.158 104.917C296.162 105.039 296.134 105.16 296.075 105.268L295.992 105.493C295.881 105.775 295.693 106.019 295.448 106.199C295.204 106.378 294.914 106.485 294.612 106.506Z" fill="#9EC8FF"/>
<path d="M373.823 147.738H312.497C311.397 147.738 310.829 147.282 311.228 146.725L311.389 146.5C311.754 146.16 312.182 145.895 312.649 145.721C313.116 145.547 313.613 145.468 314.111 145.487H375.437C376.537 145.487 377.104 145.942 376.705 146.5L376.544 146.725C376.179 147.066 375.752 147.331 375.284 147.505C374.817 147.678 374.321 147.758 373.823 147.738Z" fill="#9EC8FF"/>
<path d="M370.447 155.514H309.122C308.022 155.514 307.453 155.058 307.853 154.501L308.015 154.276C308.379 153.936 308.807 153.671 309.275 153.497C309.742 153.323 310.239 153.244 310.737 153.263H372.062C373.162 153.263 373.731 153.719 373.331 154.276L373.17 154.501C372.806 154.842 372.378 155.107 371.91 155.281C371.443 155.454 370.945 155.534 370.447 155.514Z" fill="#9EC8FF"/>
<path d="M309.073 108.347H304.573C302.547 108.347 301.493 106.69 302.229 104.664L305.581 95.4559C305.986 94.4307 306.673 93.541 307.562 92.8892C308.451 92.2373 309.506 91.85 310.605 91.772H315.105C317.131 91.772 318.185 93.4289 317.448 95.4559L314.096 104.664C313.691 105.689 313.005 106.578 312.116 107.23C311.227 107.882 310.172 108.269 309.073 108.347Z" fill="#9EC8FF"/>
<path d="M466.128 286.307C474.3 241.464 472.511 225.424 450.621 188.821C428.731 152.218 426.642 84.1014 418.39 104.08C410.138 124.059 411.249 174.229 437.11 198.58C462.971 222.931 466.451 233.829 467.987 243.74C469.523 253.651 464.294 284.109 464.294 284.109L466.128 286.307Z" fill="#9CD499"/>
<path d="M470.222 257.408C470.235 257.236 470.247 257.066 470.259 256.894C469.779 253.215 467.181 234.294 463.587 226.828C459.597 218.54 442.101 204.114 437.187 186.004C432.273 167.894 424.487 153.857 419.387 142.417C412.644 127.317 416.33 107.233 421.905 100.71C421.78 100.626 421.643 100.563 421.497 100.523L419.645 101.642C419.143 102.409 418.722 103.226 418.389 104.079C410.139 124.058 411.248 174.228 437.108 198.579C462.968 222.93 466.45 233.828 467.986 243.739C468.367 247.563 468.367 251.415 467.986 255.239L470.222 257.408Z" fill="#74B570"/>
<path d="M454.956 278.395C461.037 225.695 459.01 207.455 447.256 165.295C435.502 123.135 512.116 27.0633 509.684 43.6833C507.252 60.3033 499.145 101.651 478.066 127.595C456.987 153.539 455.366 174.618 459.419 196.914C463.472 219.21 458.608 271.097 458.608 271.097L456.175 280.421L454.956 278.395Z" fill="#9CD499"/>
<path d="M457.756 256.497H457.736C457.669 256.495 457.604 256.479 457.543 256.451C457.482 256.424 457.427 256.384 457.382 256.335C457.337 256.286 457.301 256.228 457.278 256.166C457.255 256.103 457.245 256.036 457.247 255.969C457.253 255.806 457.856 239.561 457.553 226.226C457.25 212.891 453.633 190.007 451.433 182.151C449.433 174.997 446.91 151.006 459.14 126.231C465.232 113.891 470.094 106.089 476.824 95.2903C483.476 84.6173 491.754 71.3343 504.888 47.9363C504.955 47.8187 505.065 47.7323 505.195 47.696C505.325 47.6597 505.464 47.6765 505.582 47.7429C505.699 47.8092 505.786 47.9194 505.822 48.0495C505.858 48.1796 505.842 48.3187 505.775 48.4363C492.63 71.8553 484.346 85.1494 477.688 95.8304C470.974 106.604 466.122 114.388 460.052 126.684C447.963 151.172 450.438 174.83 452.412 181.884C454.626 189.784 458.265 212.792 458.57 226.21C458.87 239.576 458.27 255.852 458.263 256.01C458.258 256.141 458.202 256.265 458.107 256.355C458.013 256.446 457.887 256.497 457.756 256.497Z" fill="#74B570"/>
<path d="M456.984 297.328C460.632 262.061 461.243 279.453 446.091 231.535C428.75 176.691 490.63 128.002 500.764 147.865C510.898 167.728 522.655 230.156 518.195 228.129C513.735 226.102 484.144 168.129 483.333 170.566C482.522 173.003 443.201 193.266 444.823 213.941C446.445 234.616 461.443 267.45 461.443 267.45L461.038 297.732L456.984 297.328Z" fill="#9CD499"/>
<path d="M461.037 297.322H460.986L456.932 296.916C456.866 296.909 456.801 296.889 456.742 296.858C456.683 296.826 456.631 296.783 456.589 296.731C456.547 296.679 456.515 296.619 456.496 296.555C456.477 296.491 456.47 296.424 456.477 296.357C456.899 292.283 457.288 288.851 457.601 286.094C459.301 271.121 459.301 271.121 454.651 258.294C452.551 252.494 449.675 244.56 445.606 231.694C442.567 222.122 441.768 211.979 443.269 202.049C444.679 192.92 447.741 184.125 452.305 176.095C460.331 161.75 472.962 149.43 484.485 144.707C492.492 141.425 498.591 142.493 501.217 147.638C505.517 156.07 510.662 173.338 514.975 193.818C517.465 205.641 521.122 226.229 519.045 228.402C518.913 228.544 518.739 228.64 518.547 228.675C518.356 228.71 518.159 228.682 517.985 228.596C515.552 227.489 507.497 213.276 496.385 193.317C490.813 183.311 485.063 172.984 483.511 171.204C481.799 172.685 479.967 174.023 478.035 175.204C467.021 182.674 444.102 198.22 445.335 213.904C446.935 234.25 461.761 266.914 461.91 267.242C461.942 267.31 461.957 267.385 461.956 267.46L461.55 296.823C461.548 296.956 461.494 297.083 461.399 297.177C461.304 297.27 461.176 297.323 461.042 297.323L461.037 297.322ZM457.537 295.952L460.532 296.252L460.932 267.558C459.997 265.488 445.879 233.928 444.315 213.982C443.039 197.711 466.289 181.941 477.462 174.362C480.116 172.562 482.624 170.862 482.856 170.392C482.892 170.282 482.959 170.185 483.049 170.113C483.139 170.041 483.249 169.997 483.363 169.986C484.346 169.894 486.29 173.095 497.272 192.819C505.154 206.974 515.926 226.319 518.352 227.64C518.539 227.34 519.09 225.673 518.018 217.114C517.242 210.925 515.818 202.781 514.018 194.186C509.718 173.711 504.592 156.486 500.318 148.097C497.963 143.482 492.335 142.588 484.878 145.645C464.671 153.927 433.711 190.674 446.583 231.383C450.645 244.231 453.517 252.159 455.614 257.947C460.343 270.999 460.343 270.999 458.614 286.208C458.296 288.984 457.941 292.115 457.541 295.952H457.537Z" fill="#74B570"/>
<path d="M469.724 298.79H451.324C450.059 298.79 448.924 298.071 448.81 297.176L442.629 250.706C442.534 250.234 442.544 249.746 442.658 249.278C442.771 248.809 442.986 248.371 443.287 247.995C443.588 247.618 443.968 247.312 444.4 247.098C444.832 246.884 445.305 246.768 445.787 246.756H475.258C475.74 246.768 476.214 246.884 476.646 247.098C477.078 247.312 477.458 247.618 477.759 247.995C478.06 248.371 478.275 248.809 478.388 249.278C478.502 249.746 478.511 250.234 478.416 250.706L472.235 297.176C472.118 298.071 470.988 298.79 469.724 298.79Z" fill="#7BCEE8"/>
<path d="M467.542 297.187H464.912C463.624 297.187 462.587 296.441 462.612 295.513L463.543 255.372C463.561 254.41 463.949 253.491 464.626 252.806C465.303 252.121 466.218 251.724 467.18 251.695H471.18C471.64 251.698 472.093 251.799 472.51 251.992C472.928 252.185 473.299 252.465 473.598 252.814C473.898 253.162 474.119 253.571 474.247 254.013C474.375 254.454 474.407 254.918 474.341 255.372L470.073 295.513C469.964 296.441 468.831 297.187 467.542 297.187Z" fill="#A2DFF2"/>
<path d="M447.933 232.149L448.258 231.583C447.085 227.441 446.142 223.238 445.434 218.991C445.806 223.452 446.644 227.862 447.933 232.149Z" fill="#74B570"/>
<path d="M447.933 198.18C446.777 201.13 445.996 204.214 445.608 207.359C451.038 189.533 481.276 173.44 483.241 170.726L483.59 170.043C472.232 166.873 454.071 182.833 447.933 198.18Z" fill="#74B570"/>
<path d="M518.223 227.03C518.109 227.03 517.999 226.992 517.909 226.922C517.82 226.852 517.756 226.754 517.729 226.643L512.235 204.289C507.944 186.773 502.605 164.973 496.611 155.269C495.623 153.669 491.311 151.505 485.193 151.937C476.93 152.522 461.003 158.23 447.171 189.89C447.145 189.953 447.107 190.009 447.059 190.056C447.011 190.103 446.954 190.141 446.891 190.166C446.828 190.191 446.761 190.203 446.694 190.202C446.627 190.201 446.56 190.187 446.498 190.16C446.436 190.133 446.381 190.094 446.334 190.045C446.288 189.996 446.251 189.939 446.227 189.876C446.203 189.813 446.191 189.746 446.193 189.678C446.195 189.611 446.21 189.545 446.238 189.483C460.285 157.332 476.628 151.523 485.121 150.922C491.727 150.458 496.321 152.87 497.476 154.735C503.555 164.575 508.691 185.546 513.223 204.047L518.717 226.4C518.736 226.475 518.737 226.554 518.721 226.629C518.705 226.705 518.672 226.776 518.624 226.837C518.576 226.897 518.515 226.946 518.446 226.98C518.376 227.014 518.299 227.031 518.222 227.03H518.223Z" fill="#74B570"/>
<path d="M502.109 197.871C502.089 197.872 502.069 197.872 502.049 197.871C501.915 197.856 501.793 197.787 501.709 197.682C501.625 197.576 501.587 197.441 501.602 197.307C502.709 184.615 501.781 171.827 498.852 159.428C498.824 159.299 498.848 159.164 498.918 159.052C498.988 158.94 499.098 158.859 499.226 158.827C499.354 158.795 499.49 158.814 499.604 158.88C499.719 158.946 499.803 159.054 499.839 159.181C502.796 171.7 503.732 184.611 502.613 197.425C502.598 197.548 502.538 197.661 502.445 197.743C502.353 197.825 502.233 197.871 502.109 197.871Z" fill="#74B570"/>
<path d="M496.434 186.514C496.362 186.514 496.291 186.499 496.226 186.469C496.16 186.44 496.102 186.397 496.054 186.343C496.006 186.29 495.971 186.226 495.949 186.158C495.927 186.09 495.92 186.018 495.928 185.946C495.948 185.778 497.9 168.954 496.54 155.053C496.529 154.92 496.57 154.787 496.656 154.684C496.741 154.581 496.864 154.516 496.997 154.503C497.13 154.49 497.263 154.53 497.367 154.614C497.471 154.698 497.538 154.82 497.553 154.953C498.924 168.965 496.958 185.895 496.938 186.064C496.924 186.188 496.864 186.302 496.771 186.385C496.679 186.468 496.559 186.514 496.434 186.514Z" fill="#74B570"/>
<path d="M477.093 96.2713C476.978 96.2708 476.867 96.2314 476.777 96.1595C476.687 96.0875 476.625 95.9874 476.599 95.8753C476.574 95.7631 476.587 95.6456 476.637 95.5419C476.686 95.4382 476.77 95.3545 476.873 95.3044C486.585 90.0565 494.599 82.147 499.973 72.5043C500.005 72.4452 500.048 72.393 500.1 72.3505C500.152 72.308 500.211 72.2762 500.275 72.2568C500.34 72.2374 500.407 72.2307 500.474 72.2374C500.54 72.244 500.605 72.2637 500.664 72.2953C500.723 72.327 500.776 72.3699 500.818 72.4218C500.861 72.4737 500.892 72.5334 500.912 72.5976C500.931 72.6617 500.938 72.729 500.931 72.7957C500.925 72.8624 500.905 72.9273 500.873 72.9864C495.394 82.8173 487.222 90.8792 477.317 96.2243C477.247 96.2571 477.171 96.2732 477.093 96.2713Z" fill="#74B570"/>
<path d="M466.349 114.688C466.224 114.687 466.103 114.64 466.011 114.555C465.918 114.47 465.86 114.354 465.848 114.23C465.835 114.105 465.87 113.98 465.944 113.879C466.018 113.778 466.126 113.707 466.249 113.681C466.368 113.657 478.28 111.104 492.429 99.6644C492.535 99.5845 492.667 99.5488 492.798 99.5648C492.929 99.5807 493.049 99.647 493.132 99.7498C493.216 99.8526 493.255 99.9837 493.244 100.115C493.232 100.247 493.169 100.369 493.069 100.455C478.712 112.063 466.575 114.655 466.454 114.678C466.42 114.685 466.384 114.689 466.349 114.688Z" fill="#74B570"/>
<path d="M457.472 132.499C457.264 132.499 457.139 132.492 457.103 132.489C457.035 132.486 456.969 132.469 456.908 132.439C456.847 132.41 456.793 132.368 456.748 132.318C456.703 132.267 456.669 132.208 456.647 132.143C456.626 132.079 456.617 132.011 456.622 131.944C456.627 131.876 456.645 131.81 456.676 131.75C456.707 131.689 456.75 131.636 456.801 131.592C456.853 131.548 456.913 131.515 456.978 131.495C457.042 131.475 457.11 131.468 457.178 131.474C457.259 131.48 465.47 131.927 478.628 122.059C478.736 121.981 478.87 121.949 479.002 121.969C479.134 121.989 479.252 122.06 479.332 122.167C479.412 122.273 479.448 122.407 479.43 122.539C479.413 122.671 479.344 122.791 479.239 122.873C467.157 131.936 459.249 132.499 457.472 132.499Z" fill="#74B570"/>
</svg>
