<svg width="622" height="616" viewBox="0 0 622 616" fill="none" xmlns="http://www.w3.org/2000/svg">
<path fill-rule="evenodd" clip-rule="evenodd" d="M246.982 600.236H119.577C116.442 599.234 113.589 597.504 111.253 595.186C102.994 586.84 100.487 580.986 100.473 581.011C100.495 581.29 124.628 588.136 121.593 582.738C118.701 577.732 98.2028 577.864 92.5368 570.671C86.8688 563.718 80.0148 550.983 80.0658 550.971C80.0248 551.161 97.8338 562.383 97.4658 556.904C97.1068 551.83 76.7428 542.886 72.2658 534.136C67.8038 525.86 89.9278 540.805 92.2518 538.036C94.4668 535.888 70.9948 520.688 66.3938 513.104C61.5878 505.904 60.8058 491.917 64.1368 494.975C67.4258 498.004 72.8098 502.875 72.8088 499.635C72.6568 496.606 58.6658 477.099 58.7938 470.582C58.6838 464.465 73.7398 481.831 74.8688 479.51C75.8048 477.665 57.6348 459.71 55.9438 449.21C54.0788 439.029 55.5258 430.236 56.4248 430.397C57.2568 430.628 65.5428 444.033 67.4718 443.446C69.0938 443.136 64.8088 380.477 94.4198 367.094C119.013 383.013 141.586 424.012 141.697 423.988C143.475 423.452 145.585 411.171 146.451 410.788C147.243 410.381 151.631 415.688 154.4 422.651C156.917 429.466 151.734 449.272 153.964 449.968C155.84 450.415 158.792 432.76 162.083 436.32C165.049 439.72 165.46 457.355 167.678 458.857C169.699 460.31 170.558 454.763 171.308 451.457C172.059 448.202 179.55 454.794 180.787 460.425C181.687 465.963 178.049 487.693 181.429 486.825C184.329 485.684 187.688 465.717 190.748 471.395C193.483 476.789 188.871 494.037 192.969 495.51C196.761 496.775 197.746 481.155 197.893 481.227C197.869 481.254 203.293 488.867 205.993 494.027C208.493 499.069 200.118 515.579 203.565 518.545C206.699 521.251 210.159 501.166 210.385 501.296C210.409 501.296 213.714 503.807 217.414 510.536C221.147 517.205 215.473 525.685 218.959 532.113C222.508 538.469 229.096 528.336 229.102 528.367C249.409 557.506 250.316 583.328 246.982 600.236Z" fill="#91A2FC"/>
<path fill-rule="evenodd" clip-rule="evenodd" d="M246.956 563.607L128.095 609.479C124.81 609.673 121.526 609.085 118.511 607.764C107.803 602.952 103.351 598.389 103.351 598.421C103.473 598.673 128.451 596.372 123.677 592.428C119.177 588.8 100.099 596.301 92.2232 591.628C84.4312 587.184 73.4522 577.771 73.4932 577.737C73.5242 577.929 94.1792 581.988 91.8652 577.006C89.7022 572.406 67.4832 571.391 60.1562 564.84C53.0132 558.725 79.0342 564.703 80.2052 561.284C81.4972 558.484 54.1272 552.751 47.1052 547.333C40.0282 542.348 34.2632 529.579 38.4732 531.233C42.6322 532.874 49.4092 535.484 48.2402 532.458C47.0082 529.687 26.9312 516.525 24.7052 510.4C22.4002 504.732 42.6992 515.514 42.9162 512.941C43.1252 510.884 19.7162 500.675 14.3532 491.487C8.94719 482.661 7.13119 473.937 8.02819 473.764C8.88719 473.68 21.4442 483.202 23.0282 481.964C24.4282 481.09 -2.12781 424.175 20.6782 401.029C49.3542 407.029 85.1782 437.148 85.2702 437.086C86.7352 435.944 84.2832 423.729 84.9522 423.059C85.5442 422.393 91.5522 425.766 96.6392 431.259C101.439 436.712 103.739 457.059 106.069 456.901C107.981 456.644 104.376 439.109 108.728 441.247C112.721 443.354 119.452 459.655 122.062 460.257C124.472 460.885 123.275 455.402 122.788 452.049C122.316 448.743 131.677 452.196 134.86 457.003C137.691 461.845 142.121 483.427 144.96 481.403C147.26 479.293 143.199 459.458 148.099 463.652C152.591 467.699 154.499 485.452 158.852 485.352C162.852 485.165 158.14 470.239 158.304 470.252C158.292 470.285 166.096 475.434 170.469 479.273C174.612 483.079 172.745 501.494 177.031 503.02C180.931 504.42 176.931 484.432 177.183 484.472C177.205 484.465 181.191 485.617 187.066 490.563C192.95 495.439 190.71 505.394 196.277 510.136C201.877 514.788 204.377 502.962 204.392 502.989C233.833 522.867 243.975 546.631 246.956 563.607Z" fill="#758BFD"/>
<path fill-rule="evenodd" clip-rule="evenodd" d="M343.018 599.721H487.818C491.381 598.583 494.624 596.617 497.279 593.983C506.664 584.497 509.515 577.839 509.531 577.872C509.504 578.19 482.078 585.972 485.525 579.835C488.813 574.146 512.11 574.295 518.548 566.12C524.991 558.22 532.78 543.745 532.723 543.728C532.768 543.944 512.528 556.697 512.946 550.471C513.353 544.704 536.498 534.54 541.586 524.595C546.659 515.189 521.515 532.175 518.872 529.028C516.356 526.586 543.03 509.311 548.26 500.692C553.723 492.51 554.611 476.613 550.825 480.092C547.086 483.535 540.967 489.077 540.969 485.392C541.142 481.949 557.042 459.779 556.897 452.372C557.022 445.42 539.911 465.156 538.63 462.517C537.565 460.422 558.214 440.017 560.135 428.082C562.257 416.513 560.611 406.518 559.589 406.701C558.644 406.963 549.228 422.201 547.034 421.53C545.189 421.179 550.06 349.966 516.407 334.755C488.458 352.848 462.807 399.444 462.678 399.415C460.657 398.807 458.257 384.849 457.278 384.415C456.378 383.951 451.391 389.984 448.242 397.897C445.381 405.643 451.273 428.151 448.742 428.942C446.61 429.45 443.255 409.386 439.516 413.433C436.145 417.301 435.677 437.333 433.156 439.046C430.856 440.696 429.884 434.393 429.03 430.64C428.178 426.94 419.665 434.433 418.257 440.831C417.235 447.124 421.37 471.821 417.53 470.839C414.23 469.539 410.417 446.85 406.938 453.302C403.83 459.432 409.072 479.035 404.414 480.708C400.103 482.147 398.985 464.395 398.814 464.477C398.841 464.506 392.672 473.159 389.608 479.02C386.772 484.748 396.286 503.51 392.369 506.883C388.808 509.958 384.869 487.132 384.616 487.283C384.59 487.283 380.836 490.136 376.631 497.783C372.387 505.359 378.837 514.998 374.873 522.304C370.839 529.53 363.353 518.01 363.343 518.046C340.261 551.155 339.228 580.502 343.018 599.721Z" fill="#91A2FC"/>
<path fill-rule="evenodd" clip-rule="evenodd" d="M543.469 302.571C530.089 317.771 519.54 335.998 510.34 353.91C493.837 386.097 482.8 420.803 477.678 456.61L475.941 455.987C481.106 420.829 491.854 386.722 507.778 354.954C517.11 336.283 528.104 317.272 541.978 301.519C542.744 300.646 544.25 301.687 543.469 302.571Z" fill="#3F79DA"/>
<path fill-rule="evenodd" clip-rule="evenodd" d="M476.401 456.103C476.401 456.103 473.274 439.103 446.027 427.855C446.027 427.855 453.81 448.874 476.401 456.103Z" fill="#3F79DA"/>
<path fill-rule="evenodd" clip-rule="evenodd" d="M478.475 443.125C478.475 443.125 474.493 424.401 442.856 411.44C442.856 411.44 452.293 434.684 478.475 443.125Z" fill="#3F79DA"/>
<path fill-rule="evenodd" clip-rule="evenodd" d="M480.553 432.895C480.553 432.895 479.293 413.795 449.84 396.437C449.84 396.437 455.85 420.794 480.553 432.895Z" fill="#3F79DA"/>
<path fill-rule="evenodd" clip-rule="evenodd" d="M484.595 421.633C484.595 421.633 485.339 402.506 457.858 382.168C457.861 382.168 461.291 407.022 484.595 421.633Z" fill="#3F79DA"/>
<path fill-rule="evenodd" clip-rule="evenodd" d="M488.647 406.317C488.647 406.317 489.008 384.249 456.136 360.025C456.139 360.024 460.847 388.817 488.647 406.317Z" fill="#3F79DA"/>
<path fill-rule="evenodd" clip-rule="evenodd" d="M494.156 390.984C494.156 390.984 494.556 368.062 460.464 342.936C460.464 342.936 465.316 372.831 494.156 390.984Z" fill="#3F79DA"/>
<path fill-rule="evenodd" clip-rule="evenodd" d="M497.827 378.149C497.827 378.149 501.868 355.583 472.209 325.354C472.21 325.354 472.241 355.641 497.827 378.149Z" fill="#3F79DA"/>
<path fill-rule="evenodd" clip-rule="evenodd" d="M504.896 361.643C504.896 361.643 511.196 341.95 488.277 311.395C488.277 311.395 484.704 338.478 504.896 361.643Z" fill="#3F79DA"/>
<path fill-rule="evenodd" clip-rule="evenodd" d="M513.872 345.968C513.872 345.968 518.791 328.195 497.025 299.384C497.025 299.384 494.833 324.018 513.872 345.968Z" fill="#3F79DA"/>
<path fill-rule="evenodd" clip-rule="evenodd" d="M522.008 330.513C522.008 330.513 525.4 315.477 505.9 289.86C505.901 289.86 505.086 310.891 522.008 330.513Z" fill="#3F79DA"/>
<path fill-rule="evenodd" clip-rule="evenodd" d="M528.103 322.46C528.103 322.46 532.886 309.998 519.81 283.194C519.809 283.194 516.417 301.494 528.103 322.46Z" fill="#3F79DA"/>
<path fill-rule="evenodd" clip-rule="evenodd" d="M535.272 310.976C535.272 310.976 540.533 300.74 530.872 280.542C528.426 290.878 529.999 301.756 535.272 310.976Z" fill="#3F79DA"/>
<path fill-rule="evenodd" clip-rule="evenodd" d="M540.539 304.109C540.539 304.109 555.065 301.559 557.539 280.959C557.542 280.959 541.095 287.738 540.539 304.109Z" fill="#3F79DA"/>
<path fill-rule="evenodd" clip-rule="evenodd" d="M565.522 302.083C565.522 302.083 554.778 297.965 535.747 309.764C546.287 311.072 556.93 308.326 565.522 302.083V302.083Z" fill="#3F79DA"/>
<path fill-rule="evenodd" clip-rule="evenodd" d="M476.334 454.925C476.334 454.925 489.56 443.799 517.745 452.45C517.741 452.45 498.367 463.718 476.334 454.925Z" fill="#3F79DA"/>
<path fill-rule="evenodd" clip-rule="evenodd" d="M480.916 433.028C480.916 433.028 494.039 419.092 527.805 424.433C527.805 424.433 507.675 439.404 480.916 433.028Z" fill="#3F79DA"/>
<path fill-rule="evenodd" clip-rule="evenodd" d="M483.842 420.508C483.842 420.508 495.437 405.275 529.574 407.062C529.574 407.059 511.12 424.049 483.842 420.508Z" fill="#3F79DA"/>
<path fill-rule="evenodd" clip-rule="evenodd" d="M488.152 405.468C488.152 405.468 501.913 388.212 542.684 390.432C542.679 390.43 520.737 409.653 488.152 405.468Z" fill="#3F79DA"/>
<path fill-rule="evenodd" clip-rule="evenodd" d="M493.695 389.66C493.695 389.66 507.968 371.721 550.255 374.019C550.258 374.02 527.495 394 493.695 389.66Z" fill="#3F79DA"/>
<path fill-rule="evenodd" clip-rule="evenodd" d="M498.482 377.228C498.482 377.228 509.721 357.244 551.831 352.788C551.831 352.788 532.541 376.135 498.482 377.228Z" fill="#3F79DA"/>
<path fill-rule="evenodd" clip-rule="evenodd" d="M505.782 360.297C505.782 360.297 515.582 342.089 553.482 337.361C553.482 337.362 536.476 358.742 505.782 360.297Z" fill="#3F79DA"/>
<path fill-rule="evenodd" clip-rule="evenodd" d="M514.554 344.07C514.554 344.07 522.067 327.226 557.187 318.841C557.187 318.841 543.21 339.243 514.554 344.07Z" fill="#3F79DA"/>
<path fill-rule="evenodd" clip-rule="evenodd" d="M528.318 321.863C528.318 321.863 536.518 311.333 566.232 308.699C566.232 308.699 552.308 321.05 528.318 321.863Z" fill="#3F79DA"/>
<path fill-rule="evenodd" clip-rule="evenodd" d="M478.091 442.985C478.091 442.985 493.076 431.07 525.729 441.195C525.729 441.195 503.663 453.129 478.091 442.985Z" fill="#3F79DA"/>
<path fill-rule="evenodd" clip-rule="evenodd" d="M349.883 551.867L484.969 604C488.703 604.221 492.436 603.553 495.862 602.052C508.034 596.582 513.091 591.397 513.092 591.433C512.953 591.72 484.566 589.105 489.992 584.622C495.106 580.499 516.792 589.022 525.738 583.717C534.593 578.665 547.071 567.967 547.023 567.929C546.989 568.148 523.515 572.759 526.146 567.099C528.604 561.867 553.855 560.717 562.183 553.271C570.3 546.321 540.727 553.115 539.396 549.229C537.929 546.046 569.034 539.529 577.014 533.375C585.058 527.708 591.614 513.198 586.827 515.075C582.1 516.94 574.397 519.908 575.727 516.47C577.127 513.319 599.943 498.362 602.475 491.4C605.095 484.958 582.026 497.21 581.775 494.287C581.537 491.951 608.148 480.348 614.239 469.905C620.383 459.874 622.445 449.959 621.427 449.762C620.451 449.662 606.18 460.489 604.375 459.077C602.782 458.084 632.964 393.4 607.045 367.094C574.455 373.909 533.745 408.144 533.638 408.072C531.971 406.772 534.759 392.892 533.999 392.132C533.325 391.375 526.499 395.207 520.715 401.456C515.256 407.656 512.649 430.774 509.998 430.599C507.826 430.306 511.923 410.377 506.976 412.807C502.439 415.201 494.789 433.727 491.822 434.407C489.086 435.121 490.443 428.889 490.999 425.08C491.535 421.322 480.899 425.246 477.28 430.71C474.061 436.21 469.026 460.742 465.795 458.443C463.183 456.043 467.795 433.501 462.228 438.267C457.121 442.867 454.955 463.043 450.005 462.928C445.465 462.716 450.814 445.752 450.63 445.768C450.642 445.806 441.774 451.659 436.805 456.023C432.095 460.348 434.217 481.276 429.347 483.012C424.916 484.598 429.467 461.887 429.174 461.931C429.148 461.922 424.618 463.231 417.942 468.854C411.254 474.396 413.8 485.71 407.473 491.099C401.107 496.385 398.273 482.946 398.25 482.977C364.796 505.563 353.272 532.573 349.883 551.867Z" fill="#758BFD"/>
<path fill-rule="evenodd" clip-rule="evenodd" d="M84.8493 327.307C98.2293 342.507 108.778 360.736 117.978 378.647C134.482 410.834 145.519 445.54 150.64 481.347L152.377 480.722C147.212 445.563 136.464 411.455 120.54 379.686C111.208 361.015 100.214 342.006 86.3403 326.251C85.5743 325.381 84.0683 326.423 84.8493 327.307Z" fill="#3F79DA"/>
<path fill-rule="evenodd" clip-rule="evenodd" d="M151.917 480.837C151.917 480.837 155.044 463.837 182.291 452.589C182.287 452.589 174.509 473.608 151.917 480.837Z" fill="#3F79DA"/>
<path fill-rule="evenodd" clip-rule="evenodd" d="M149.845 467.859C149.845 467.859 153.827 449.135 185.463 436.174C185.463 436.174 176.026 459.418 149.845 467.859Z" fill="#3F79DA"/>
<path fill-rule="evenodd" clip-rule="evenodd" d="M147.767 457.631C147.767 457.631 149.027 438.531 178.48 421.171C178.48 421.171 172.469 445.528 147.767 457.631Z" fill="#3F79DA"/>
<path fill-rule="evenodd" clip-rule="evenodd" d="M143.723 446.368C143.723 446.368 142.979 427.241 170.46 406.903C170.46 406.902 167.027 431.752 143.723 446.368Z" fill="#3F79DA"/>
<path fill-rule="evenodd" clip-rule="evenodd" d="M139.669 431.05C139.669 431.05 139.308 408.981 172.18 384.76C172.181 384.758 167.476 413.547 139.669 431.05Z" fill="#3F79DA"/>
<path fill-rule="evenodd" clip-rule="evenodd" d="M134.163 415.718C134.163 415.718 133.763 392.797 167.855 367.67C167.855 367.67 163.007 397.56 134.163 415.718Z" fill="#3F79DA"/>
<path fill-rule="evenodd" clip-rule="evenodd" d="M130.49 402.883C130.49 402.883 126.449 380.318 156.106 350.088C156.103 350.088 156.077 380.375 130.49 402.883Z" fill="#3F79DA"/>
<path fill-rule="evenodd" clip-rule="evenodd" d="M123.422 386.377C123.422 386.377 117.122 366.684 140.041 336.13C140.042 336.13 143.619 363.211 123.422 386.377Z" fill="#3F79DA"/>
<path fill-rule="evenodd" clip-rule="evenodd" d="M114.446 370.702C114.446 370.702 109.527 352.929 131.293 324.116C131.293 324.116 133.484 348.755 114.446 370.702Z" fill="#3F79DA"/>
<path fill-rule="evenodd" clip-rule="evenodd" d="M106.312 355.247C106.312 355.247 102.92 340.211 122.42 314.594C122.42 314.597 123.236 335.625 106.312 355.247Z" fill="#3F79DA"/>
<path fill-rule="evenodd" clip-rule="evenodd" d="M100.216 347.194C100.216 347.194 95.4331 334.732 108.509 307.928C108.511 307.926 111.901 326.226 100.216 347.194Z" fill="#3F79DA"/>
<path fill-rule="evenodd" clip-rule="evenodd" d="M93.0461 335.706C93.0461 335.706 87.7851 325.47 97.4461 305.272C99.892 315.608 98.3192 326.486 93.0461 335.706V335.706Z" fill="#3F79DA"/>
<path fill-rule="evenodd" clip-rule="evenodd" d="M87.7793 328.843C87.7793 328.843 73.2533 326.293 70.7793 305.693C70.7763 305.697 87.2233 312.474 87.7793 328.843Z" fill="#3F79DA"/>
<path fill-rule="evenodd" clip-rule="evenodd" d="M62.7959 326.817C62.7959 326.817 73.5399 322.699 92.5709 334.498C82.031 335.806 71.3878 333.061 62.7959 326.817Z" fill="#3F79DA"/>
<path fill-rule="evenodd" clip-rule="evenodd" d="M151.982 479.659C151.982 479.659 138.758 468.533 110.573 477.184C110.573 477.184 129.949 488.452 151.982 479.659Z" fill="#3F79DA"/>
<path fill-rule="evenodd" clip-rule="evenodd" d="M147.403 457.761C147.403 457.761 134.28 443.825 100.514 449.166C100.514 449.166 120.642 464.137 147.403 457.761Z" fill="#3F79DA"/>
<path fill-rule="evenodd" clip-rule="evenodd" d="M144.478 445.239C144.478 445.239 132.883 430.006 98.7461 431.793C98.7461 431.793 117.2 448.783 144.478 445.239Z" fill="#3F79DA"/>
<path fill-rule="evenodd" clip-rule="evenodd" d="M140.17 430.202C140.17 430.202 126.41 412.946 85.6396 415.166C85.6366 415.166 107.58 434.387 140.17 430.202Z" fill="#3F79DA"/>
<path fill-rule="evenodd" clip-rule="evenodd" d="M134.623 414.396C134.623 414.396 120.35 396.457 78.0635 398.756C78.0635 398.754 100.823 418.734 134.623 414.396Z" fill="#3F79DA"/>
<path fill-rule="evenodd" clip-rule="evenodd" d="M129.832 401.962C129.832 401.962 118.595 381.978 76.4834 377.522C76.4874 377.522 95.7784 400.869 129.832 401.962Z" fill="#3F79DA"/>
<path fill-rule="evenodd" clip-rule="evenodd" d="M122.536 385.032C122.536 385.032 112.736 366.824 74.8359 362.096C74.8379 362.096 91.8469 383.475 122.536 385.032Z" fill="#3F79DA"/>
<path fill-rule="evenodd" clip-rule="evenodd" d="M113.766 368.804C113.766 368.804 106.251 351.96 71.1318 343.575C71.1318 343.575 85.1058 363.978 113.766 368.804Z" fill="#3F79DA"/>
<path fill-rule="evenodd" clip-rule="evenodd" d="M99.9999 346.597C99.9999 346.597 91.7999 336.067 62.0859 333.433C62.0859 333.428 76.0099 345.784 99.9999 346.597Z" fill="#3F79DA"/>
<path fill-rule="evenodd" clip-rule="evenodd" d="M150.229 467.719C150.229 467.719 135.244 455.804 102.591 465.929C102.59 465.929 124.657 477.863 150.229 467.719Z" fill="#3F79DA"/>
<path fill-rule="evenodd" clip-rule="evenodd" d="M307.263 615.238C431.678 615.238 533.152 608.264 533.152 599.714C533.152 591.164 431.677 584.192 307.263 584.192C182.849 584.192 81.374 591.164 81.374 599.714C81.374 608.264 182.846 615.238 307.263 615.238Z" fill="#BEDAF7"/>
<path fill-rule="evenodd" clip-rule="evenodd" d="M451.478 87.925V557.857C451.478 580.984 433.014 599.72 410.221 599.72H206.544C183.753 599.72 165.287 580.983 165.287 557.857V87.925C165.287 64.825 183.753 46.063 206.544 46.063H410.221C433.014 46.063 451.478 64.822 451.478 87.925Z" fill="#91A2FC"/>
<path d="M194.046 57.2539H422.72C427.379 57.2539 431.847 59.1048 435.142 62.3995C438.437 65.6941 440.288 70.1626 440.288 74.8219V570.962C440.288 575.622 438.437 580.09 435.142 583.385C431.847 586.68 427.378 588.531 422.719 588.531H194.045C189.385 588.531 184.917 586.68 181.622 583.385C178.327 580.091 176.477 575.622 176.477 570.963V74.8229C176.477 70.1633 178.328 65.6946 181.622 62.3997C184.917 59.1049 189.386 57.2539 194.046 57.2539V57.2539Z" fill="#EDF7FB"/>
<path d="M306.23 514.14C350.482 514.14 386.355 507.826 386.355 500.038C386.355 492.25 350.482 485.936 306.23 485.936C261.979 485.936 226.105 492.25 226.105 500.038C226.105 507.826 261.979 514.14 306.23 514.14Z" fill="#AABEEB"/>
<path fill-rule="evenodd" clip-rule="evenodd" d="M453.876 241.893H451.476V132.617H453.876C454.586 132.617 455.289 132.757 455.945 133.029C456.601 133.301 457.197 133.7 457.699 134.202C458.201 134.704 458.599 135.301 458.871 135.957C459.142 136.613 459.282 137.317 459.282 138.027V236.484C459.282 237.918 458.712 239.293 457.698 240.308C456.685 241.322 455.31 241.892 453.876 241.893V241.893Z" fill="#407ADB"/>
<path fill-rule="evenodd" clip-rule="evenodd" d="M165.286 183.657H163.059C162.399 183.658 161.744 183.528 161.134 183.275C160.523 183.023 159.968 182.652 159.501 182.185C159.033 181.718 158.663 181.163 158.41 180.553C158.158 179.942 158.028 179.288 158.028 178.627V135.534C158.028 134.201 158.558 132.922 159.5 131.979C160.443 131.036 161.721 130.506 163.054 130.506H165.282L165.286 183.657Z" fill="#407ADB"/>
<path fill-rule="evenodd" clip-rule="evenodd" d="M165.286 242.695H163.344C162.182 242.695 161.067 242.233 160.245 241.411C159.423 240.589 158.961 239.474 158.961 238.312V214.372C158.961 213.796 159.074 213.226 159.294 212.694C159.514 212.162 159.837 211.679 160.244 211.272C160.651 210.865 161.134 210.542 161.666 210.321C162.198 210.101 162.768 209.987 163.344 209.987H165.286V242.695Z" fill="#407ADB"/>
<path fill-rule="evenodd" clip-rule="evenodd" d="M240.836 46.063H376.115V65.487C376.101 70.6342 374.05 75.5666 370.411 79.2067C366.772 82.8468 361.84 84.8987 356.693 84.914H260.26C255.113 84.8992 250.181 82.8482 246.542 79.2089C242.902 75.5696 240.851 70.6378 240.836 65.491V46.063Z" fill="#91A2FC"/>
<path fill-rule="evenodd" clip-rule="evenodd" d="M279.603 65.4881C279.603 66.4177 279.327 67.3264 278.811 68.0993C278.295 68.8722 277.561 69.4746 276.702 69.8303C275.843 70.186 274.898 70.2791 273.986 70.0978C273.074 69.9164 272.237 69.4688 271.58 68.8115C270.922 68.1542 270.475 67.3167 270.293 66.405C270.112 65.4933 270.205 64.5483 270.561 63.6895C270.917 62.8307 271.519 62.0966 272.292 61.5802C273.065 61.0637 273.974 60.7881 274.903 60.7881C276.15 60.7881 277.345 61.2833 278.227 62.1647C279.108 63.0461 279.603 64.2416 279.603 65.4881V65.4881Z" fill="#424B96"/>
<path d="M345.349 62.041H285.152C284.381 62.041 283.757 62.6656 283.757 63.436V67.537C283.757 68.3075 284.381 68.932 285.152 68.932H345.349C346.119 68.932 346.744 68.3075 346.744 67.537V63.436C346.744 62.6656 346.119 62.041 345.349 62.041Z" fill="#424B96"/>
<path fill-rule="evenodd" clip-rule="evenodd" d="M152.144 232.178C156.886 229.821 163.644 234.588 167.312 242.838C170.012 243.423 171.856 247.438 171.512 252.259C171.226 256.253 169.522 259.635 167.365 260.948C166.816 261.624 166.13 262.176 165.352 262.569C160.567 264.948 153.732 260.069 150.085 251.679C146.438 243.289 147.359 234.557 152.144 232.178Z" fill="#FDCEAE"/>
<path fill-rule="evenodd" clip-rule="evenodd" d="M441.903 292.489C437.161 290.134 430.403 294.899 426.735 303.149C424.035 303.734 422.191 307.749 422.535 312.572C422.821 316.566 424.525 319.946 426.682 321.259C427.231 321.936 427.917 322.489 428.695 322.881C433.48 325.258 440.315 320.381 443.962 311.99C447.609 303.599 446.688 294.864 441.903 292.489Z" fill="#FDCEAE"/>
<path fill-rule="evenodd" clip-rule="evenodd" d="M294.178 317.493L259.868 322.363C216.306 328.546 185.598 301.19 171.195 256.594C169.299 258.437 167.004 259.82 164.488 260.634C161.972 261.448 159.302 261.672 156.686 261.288C163.607 317.853 196.142 350.388 253.137 362.565C254.557 406.873 256.953 454.777 255.877 498.322C287.51 505.344 320.206 506.15 352.148 500.697C348.455 456.459 349.34 417.715 353.428 374.849C368.119 389.591 395.128 407.28 404.64 405.536C421.449 402.455 430.45 360.236 435.74 322.136C429.481 321.578 425.152 318.292 422.54 312.571C416.006 333.854 408.407 351.582 400.116 371.546C369.684 351.601 358.316 333.526 323.728 315.846L294.178 317.493Z" fill="#8172D5"/>
<path fill-rule="evenodd" clip-rule="evenodd" d="M293.703 300.542H323.725V315.85C332.068 324.013 327.695 330.282 315.784 329.661C305.642 329.13 293.705 325.607 293.705 313.588L293.703 300.542Z" fill="#FDCEAE"/>
<path fill-rule="evenodd" clip-rule="evenodd" d="M293.703 300.542H323.725V308.197L298.345 324.106C296.83 322.815 295.626 321.199 294.822 319.378C294.019 317.556 293.637 315.577 293.705 313.588L293.703 300.542Z" fill="#F3B898"/>
<path fill-rule="evenodd" clip-rule="evenodd" d="M335.666 241.864L293.702 300.543L294.082 307.019C282.456 290.79 270.396 287.519 265.161 270.169C258.267 247.329 264.079 227.73 284.344 220.424C290.336 218.264 297.438 222.524 303.125 219.474C317.757 211.622 324.117 214.674 325.404 220.16C327.542 229.278 342.698 216.246 347.173 224.89C351.594 233.427 346.27 240.339 335.666 241.864Z" fill="#424B96"/>
<path fill-rule="evenodd" clip-rule="evenodd" d="M307.127 245.67C316.808 247.102 326.697 245.785 335.666 241.87C350.425 266.68 350.954 301.545 324.749 308.233C310.249 311.933 290.755 306.381 288.418 288.8C278.1 287.761 273.548 271.02 279.07 266.67C284.87 262.097 288.857 270.661 289.778 275.609L292.311 274.863L290.958 261.523C298.084 258.363 303.827 252.732 307.127 245.67Z" fill="#FDCEAE"/>
<path fill-rule="evenodd" clip-rule="evenodd" d="M307.127 245.67C316.808 247.102 326.697 245.785 335.666 241.87C328.39 249.495 318.592 254.219 308.095 255.164C295.853 275.627 301.871 299.924 329.095 306.764C327.685 307.366 326.231 307.857 324.745 308.234C310.245 311.934 290.751 306.382 288.414 288.801C278.096 287.762 273.544 271.021 279.066 266.671C284.866 262.098 288.853 270.662 289.774 275.61L292.307 274.864L290.958 261.523C298.084 258.363 303.827 252.732 307.127 245.67Z" fill="#F3B898"/>
<path fill-rule="evenodd" clip-rule="evenodd" d="M426.625 295.829L437.794 293.272L441.963 311.485C442.12 312.179 441.996 312.906 441.619 313.509C441.241 314.112 440.64 314.54 439.947 314.701L434.008 316.06C433.314 316.216 432.586 316.091 431.984 315.713C431.382 315.334 430.954 314.732 430.794 314.039L426.625 295.829Z" fill="#3B70CC"/>
<path fill-rule="evenodd" clip-rule="evenodd" d="M415.561 258.044C441.04 254.058 462.554 247.172 474.705 231.244L499.738 287.932L482.946 308.306C459.101 293.4 441.78 294.343 419.823 296.434C409.349 297.434 399.901 290.35 398.74 279.893C398.349 276.315 398.959 272.699 400.501 269.448V269.439C400.557 269.321 400.614 269.203 400.672 269.086L400.693 269.041C401.056 268.311 401.463 267.604 401.911 266.924V266.917C401.979 266.817 402.048 266.71 402.118 266.609L402.157 266.551C402.224 266.451 402.291 266.359 402.357 266.263L402.398 266.208C402.47 266.108 402.542 266.008 402.617 265.908L402.629 265.893C402.706 265.793 402.785 265.688 402.863 265.585L402.902 265.534C403.222 265.127 403.558 264.731 403.91 264.346L403.946 264.305L404.158 264.079L404.258 263.973L404.446 263.78L404.573 263.653L404.756 263.472L404.877 263.356L405.077 263.171L405.202 263.056C405.27 262.994 405.337 262.933 405.402 262.871L405.502 262.789C405.577 262.722 405.653 262.656 405.73 262.589C405.83 262.498 405.942 262.409 406.048 262.322L406.248 262.158L406.39 262.045L406.59 261.896L406.746 261.776L406.946 261.627L407.095 261.519L407.304 261.372L407.472 261.256L407.652 261.134L407.874 260.989L408.019 260.895C408.098 260.844 408.178 260.795 408.259 260.746L408.408 260.654C408.492 260.603 408.576 260.554 408.66 260.505L408.785 260.431L408.891 260.371L409.177 260.212L409.304 260.144L409.566 260.007L409.732 259.921L409.975 259.799L410.141 259.72L410.377 259.609L410.557 259.527C410.637 259.491 410.72 259.455 410.802 259.421L410.97 259.347C411.062 259.309 411.155 259.27 411.249 259.232L411.382 259.179C411.485 259.138 411.588 259.098 411.69 259.061L411.818 259.011H411.825C411.957 258.961 412.09 258.911 412.225 258.869H412.232L412.401 258.813L412.668 258.726L412.843 258.673C412.932 258.646 413.021 258.618 413.11 258.593L413.298 258.54L413.548 258.472L413.736 258.422L414.022 258.352L414.174 258.316C414.28 258.292 414.385 258.268 414.491 258.246L414.633 258.215C414.733 258.194 414.84 258.174 414.943 258.155L415.1 258.124C415.258 258.094 415.409 258.068 415.561 258.044Z" fill="#AABEEB"/>
<path fill-rule="evenodd" clip-rule="evenodd" d="M415.561 258.044C441.04 254.058 462.554 247.172 474.705 231.244C468.105 250.992 466.005 270.744 469.098 290.487C452.958 287.087 436.818 287.126 420.677 289.116L408.817 260.416L408.897 260.37L409.183 260.211L409.31 260.143L409.572 260.006L409.738 259.92L409.981 259.798L410.147 259.719L410.383 259.608L410.563 259.526C410.643 259.49 410.726 259.454 410.808 259.42L410.976 259.346C411.068 259.308 411.161 259.269 411.255 259.231L411.388 259.178C411.491 259.137 411.594 259.097 411.696 259.06L411.824 259.01H411.831C411.963 258.96 412.096 258.91 412.231 258.868H412.238L412.407 258.812L412.674 258.725L412.849 258.672C412.938 258.645 413.027 258.617 413.116 258.592L413.304 258.539L413.554 258.471L413.742 258.421L414.028 258.351L414.18 258.315C414.286 258.291 414.39 258.267 414.497 258.245L414.639 258.214C414.739 258.193 414.846 258.173 414.949 258.154L415.107 258.123C415.258 258.094 415.409 258.068 415.561 258.044Z" fill="#BAC5FF"/>
<path fill-rule="evenodd" clip-rule="evenodd" d="M415.561 258.045C416.947 257.83 418.321 257.604 419.682 257.369C418.566 265.11 418.469 272.964 419.393 280.73C419.961 285.958 420.953 291.131 422.361 296.198C421.521 296.273 420.675 296.353 419.823 296.436C409.349 297.436 399.901 290.352 398.74 279.895C398.242 274.797 399.704 269.701 402.829 265.643C405.953 261.584 410.506 258.868 415.561 258.045Z" fill="#8172D5"/>
<path fill-rule="evenodd" clip-rule="evenodd" d="M498.407 200.877C516.652 198.852 534.738 226.916 538.807 263.56C542.876 300.204 531.381 331.549 513.138 333.573C494.895 335.597 476.805 307.534 472.738 270.891C468.671 234.248 480.166 202.901 498.407 200.877Z" fill="#B7CDFE"/>
<path fill-rule="evenodd" clip-rule="evenodd" d="M498.866 204.974C514.847 203.199 530.897 229.634 534.711 264.014C538.525 298.394 528.665 327.704 512.684 329.477C496.703 331.25 480.653 304.819 476.837 270.437C473.021 236.055 482.883 206.749 498.866 204.974Z" fill="#AABEEB"/>
<path d="M512.191 325.032C526.681 323.424 535.555 296.24 532.011 264.315C528.468 232.389 513.85 207.812 499.36 209.42C484.87 211.028 475.996 238.213 479.54 270.138C483.083 302.064 497.701 326.641 512.191 325.032Z" fill="#9684FF"/>
<path fill-rule="evenodd" clip-rule="evenodd" d="M494.473 314.289C487.258 304.368 481.573 288.466 479.539 270.137C478.357 260.095 478.505 249.941 479.98 239.937C488.255 239.737 496.747 256.419 499.119 277.793C500.849 293.417 498.849 307.31 494.473 314.289Z" fill="#A697FC"/>
<path fill-rule="evenodd" clip-rule="evenodd" d="M497.463 263.587L478.79 258.935C478.87 262.579 479.113 266.323 479.538 270.135C480.086 275.111 480.932 280.05 482.069 284.925L499.209 278.642L497.463 263.587Z" fill="#505BB5"/>
<path fill-rule="evenodd" clip-rule="evenodd" d="M480.038 274.07L498.338 271.116L499.211 278.644L482.071 284.929C481.255 281.446 480.57 277.818 480.038 274.07Z" fill="#424B96"/>
<path fill-rule="evenodd" clip-rule="evenodd" d="M497.465 263.586C499.58 263.352 501.665 266.535 502.13 270.695C502.595 274.855 501.252 278.42 499.137 278.655C497.022 278.89 494.937 275.706 494.472 271.546C494.007 267.386 495.351 263.821 497.465 263.586Z" fill="#AABEEB"/>
<path fill-rule="evenodd" clip-rule="evenodd" d="M421.638 257.021C420.501 264.805 420.397 272.704 421.328 280.515C421.896 285.757 422.893 290.943 424.307 296.022C423.662 296.079 423.012 296.137 422.359 296.197C420.952 291.13 419.96 285.957 419.391 280.729C418.467 272.962 418.564 265.108 419.68 257.367C420.337 257.254 420.989 257.138 421.638 257.021Z" fill="#424B96"/>
<path fill-rule="evenodd" clip-rule="evenodd" d="M155.633 173.076L172.551 196.458C178.339 204.459 180.712 214.431 179.147 224.182C177.583 233.932 172.209 242.662 164.208 248.45C156.207 254.238 146.234 256.611 136.484 255.046C126.734 253.482 118.004 248.108 112.216 240.107L95.2979 216.726L109.628 206.36L126.543 229.739C129.591 233.928 134.174 236.741 139.289 237.561C144.404 238.382 149.637 237.145 153.843 234.12V234.12C158.032 231.071 160.844 226.489 161.665 221.374C162.485 216.258 161.248 211.026 158.224 206.82L141.31 183.439L155.633 173.076Z" fill="#BAC5FF"/>
<path d="M98.5102 191.001L84.1846 201.365L95.6397 217.199L109.965 206.835L98.5102 191.001Z" fill="#424B96"/>
<path d="M95.593 217.514L95.463 217.334L83.873 201.314L84.054 201.184L98.565 190.684L98.6951 190.865L110.285 206.885L110.104 207.015L95.593 217.514ZM84.493 201.414L95.6931 216.89L109.66 206.79L98.4601 191.314L84.493 201.414Z" fill="#3F79DC"/>
<path d="M144.521 157.714L130.191 168.081L141.649 183.919L155.979 173.553L144.521 157.714Z" fill="#424B96"/>
<path fill-rule="evenodd" clip-rule="evenodd" d="M549.54 230.267L551.192 234.397L591.392 219.638L585.886 207.524L549.54 230.267Z" fill="#B7CDFE"/>
<path fill-rule="evenodd" clip-rule="evenodd" d="M553.396 258.742L553.947 266.452L614.523 275.263L613.697 257.363L553.396 258.742Z" fill="#B7CDFE"/>
<path fill-rule="evenodd" clip-rule="evenodd" d="M550.641 288.751L548.163 294.533L579.553 321.793L585.335 312.155L550.641 288.751Z" fill="#B7CDFE"/>
<path d="M39.558 296.047H116.958C120.753 296.047 124.393 297.554 127.076 300.238C129.759 302.921 131.267 306.561 131.267 310.356V380.495C131.267 384.289 129.76 387.928 127.078 390.611C124.395 393.294 120.757 394.803 116.963 394.804H39.558C37.6789 394.804 35.8183 394.434 34.0822 393.715C32.3462 392.996 30.7687 391.942 29.44 390.613C28.1113 389.284 27.0573 387.707 26.3382 385.971C25.6191 384.235 25.249 382.374 25.249 380.495V310.356C25.249 306.561 26.7566 302.921 29.44 300.238C32.1235 297.554 35.763 296.047 39.558 296.047V296.047Z" fill="#BAC5FF"/>
<path d="M47.6098 317.415H108.91C110.13 317.416 111.3 317.902 112.163 318.765C113.025 319.629 113.51 320.799 113.51 322.02V368.83C113.51 370.05 113.025 371.22 112.162 372.082C111.3 372.945 110.13 373.43 108.91 373.43H47.6098C46.3898 373.43 45.2197 372.945 44.3571 372.082C43.4944 371.22 43.0098 370.05 43.0098 368.83V322.015C43.0098 320.795 43.4944 319.625 44.3571 318.762C45.2197 317.899 46.3898 317.415 47.6098 317.415V317.415Z" fill="white"/>
<path fill-rule="evenodd" clip-rule="evenodd" d="M78.2601 349.07L48.7891 323.189L78.2601 341.907L107.731 323.189L78.2601 349.07Z" fill="#BAC5FF"/>
<path d="M485.697 135.81C508.91 128.731 521.99 104.174 514.91 80.9601C507.831 57.7465 483.274 44.6672 460.06 51.7466C436.847 58.826 423.767 83.3832 430.847 106.597C437.926 129.81 462.483 142.89 485.697 135.81Z" fill="#BAC5FF"/>
<path fill-rule="evenodd" clip-rule="evenodd" d="M481.21 78.936L461.645 87.836C461.352 87.677 461.024 87.377 460.723 87.181C459.545 86.4108 458.192 85.9497 456.789 85.8402C455.386 85.7307 453.978 85.9763 452.695 86.5543C451.412 87.1324 450.295 88.0243 449.447 89.1477C448.6 90.2711 448.049 91.59 447.845 92.9825C447.641 94.375 447.792 95.7963 448.282 97.1154C448.773 98.4345 449.588 99.6088 450.651 100.53C451.715 101.451 452.994 102.09 454.37 102.386C455.745 102.683 457.174 102.629 458.523 102.228C459.272 102.001 459.986 101.673 460.647 101.253C460.959 101.056 461.258 100.836 461.539 100.596C461.812 100.317 462.105 100.059 462.415 99.822C463.032 100.114 463.633 100.439 464.215 100.796C469.525 103.767 475.115 106.728 480.42 109.651C481.639 110.322 481.154 109.937 481.538 111.291C481.954 112.783 482.776 114.131 483.912 115.185C485.048 116.238 486.454 116.956 487.974 117.258C489.493 117.56 491.067 117.435 492.52 116.897C493.973 116.359 495.248 115.428 496.204 114.209C497.159 112.989 497.758 111.529 497.934 109.989C498.109 108.45 497.855 106.892 497.198 105.489C496.541 104.085 495.508 102.892 494.214 102.04C492.92 101.188 491.414 100.712 489.866 100.665C488.757 100.625 487.651 100.81 486.615 101.206C485.578 101.603 484.632 102.204 483.833 102.974C483.362 103.448 482.931 103.96 482.543 104.504C482.173 104.436 469.927 97.66 469.043 97.166L464.525 94.714L464.425 92.619C467.562 91.188 470.654 89.764 473.848 88.334C474.427 88.076 482.932 84.146 483.321 84.09C484.558 85.4751 486.215 86.4166 488.038 86.77C489.972 87.1406 491.976 86.8188 493.697 85.8607C495.418 84.9027 496.747 83.3696 497.452 81.53C498.21 79.485 498.161 77.2281 497.315 75.218C496.595 73.557 495.357 72.1734 493.786 71.2735C492.215 70.3735 490.396 70.0056 488.599 70.2244C486.802 70.4433 485.123 71.2372 483.815 72.4879C482.506 73.7385 481.636 75.3788 481.336 77.164C481.22 77.791 481.287 78.329 481.21 78.936Z" fill="white"/>
<path fill-rule="evenodd" clip-rule="evenodd" d="M61.685 84.113H175.426C189.093 84.113 200.175 73.299 200.175 59.958C200.175 46.617 189.094 35.803 175.426 35.803C170.621 35.7925 165.914 37.1628 161.865 39.751C163.202 34.694 162.846 29.3386 160.854 24.5024C158.861 19.6662 155.341 15.615 150.83 12.9673C146.319 10.3195 141.066 9.22079 135.872 9.83881C130.678 10.4568 125.829 12.7577 122.065 16.39C121.504 13.7 120.384 11.158 118.777 8.92902C117.17 6.70004 115.112 4.83388 112.737 3.45165C110.362 2.06943 107.723 1.20203 104.991 0.905762C102.259 0.60949 99.4955 0.890961 96.8795 1.73191C94.2635 2.57286 91.8535 3.9545 89.806 5.78714C87.7585 7.61979 86.1192 9.86248 84.9946 12.3697C83.8699 14.8769 83.285 17.5925 83.2779 20.3404C83.2707 23.0883 83.8414 25.807 84.953 28.32C84.5596 28.2947 84.1626 28.2816 83.762 28.281C81.0253 28.2828 78.327 28.9252 75.8831 30.1568C73.4392 31.3884 71.3175 33.175 69.6879 35.3736C68.0583 37.5721 66.9659 40.1217 66.4983 42.8181C66.0307 45.5146 66.2008 48.2831 66.995 50.902C64.6542 50.1343 62.1747 49.8836 59.7276 50.1672C57.2806 50.4508 54.9241 51.262 52.821 52.5448C50.7179 53.8275 48.9181 55.5513 47.5458 57.5972C46.1736 59.643 45.2616 61.9623 44.8727 64.3948C44.4838 66.8274 44.6274 69.3154 45.2934 71.6871C45.9594 74.0588 47.1321 76.2578 48.7306 78.1323C50.329 80.0068 52.3151 81.5121 54.5518 82.5445C56.7885 83.5769 59.2225 84.1117 61.686 84.112L61.685 84.113Z" fill="#BAC5FF"/>
<path d="M412.739 138.298H222.099C220.739 138.298 219.637 139.4 219.637 140.76V144.263C219.637 145.623 220.739 146.725 222.099 146.725H412.739C414.098 146.725 415.201 145.623 415.201 144.263V140.76C415.201 139.4 414.098 138.298 412.739 138.298Z" fill="#CFD8FC"/>
<path d="M222.098 161.892H412.737C413.389 161.892 414.015 162.151 414.477 162.613C414.938 163.074 415.198 163.7 415.198 164.353V167.853C415.198 168.177 415.135 168.497 415.012 168.796C414.888 169.095 414.707 169.367 414.478 169.596C414.25 169.825 413.978 170.007 413.68 170.131C413.381 170.255 413.06 170.319 412.737 170.319H222.099C221.446 170.319 220.82 170.06 220.358 169.598C219.896 169.136 219.637 168.51 219.637 167.857V164.357C219.636 164.034 219.699 163.713 219.823 163.414C219.946 163.115 220.128 162.843 220.356 162.614C220.585 162.385 220.856 162.204 221.155 162.08C221.454 161.956 221.774 161.892 222.098 161.892V161.892Z" fill="#CFD8FC"/>
<path d="M412.739 185.485H222.099C220.739 185.485 219.637 186.587 219.637 187.947V191.451C219.637 192.811 220.739 193.913 222.099 193.913H412.739C414.098 193.913 415.201 192.811 415.201 191.451V187.947C415.201 186.587 414.098 185.485 412.739 185.485Z" fill="#CFD8FC"/>
<path d="M209.788 138.298H204.025C202.666 138.298 201.563 139.4 201.563 140.76V144.263C201.563 145.623 202.666 146.725 204.025 146.725H209.788C211.148 146.725 212.25 145.623 212.25 144.263V140.76C212.25 139.4 211.148 138.298 209.788 138.298Z" fill="#407ADB"/>
<path d="M204.024 161.892H209.789C210.113 161.892 210.433 161.956 210.731 162.079C211.03 162.203 211.301 162.384 211.53 162.613C211.758 162.841 211.939 163.113 212.063 163.411C212.187 163.71 212.25 164.03 212.25 164.353V167.853C212.251 168.177 212.188 168.497 212.064 168.796C211.941 169.096 211.759 169.368 211.531 169.597C211.302 169.826 211.031 170.007 210.732 170.131C210.433 170.255 210.112 170.319 209.788 170.319H204.025C203.373 170.319 202.746 170.06 202.285 169.598C201.823 169.136 201.563 168.51 201.563 167.857V164.357C201.563 164.034 201.626 163.713 201.75 163.414C201.873 163.115 202.054 162.843 202.283 162.614C202.511 162.385 202.783 162.204 203.082 162.08C203.381 161.956 203.701 161.892 204.024 161.892V161.892Z" fill="#407ADB"/>
<path d="M209.788 185.485H204.025C202.666 185.485 201.563 186.587 201.563 187.947V191.451C201.563 192.811 202.666 193.913 204.025 193.913H209.788C211.148 193.913 212.25 192.811 212.25 191.451V187.947C212.25 186.587 211.148 185.485 209.788 185.485Z" fill="#407ADB"/>
<path d="M412.74 532.19H222.098C220.739 532.19 219.637 533.292 219.637 534.651V538.156C219.637 539.515 220.739 540.617 222.098 540.617H412.74C414.099 540.617 415.201 539.515 415.201 538.156V534.651C415.201 533.292 414.099 532.19 412.74 532.19Z" fill="#CFD8FC"/>
<path d="M412.739 555.783H222.099C220.739 555.783 219.637 556.885 219.637 558.245V561.748C219.637 563.108 220.739 564.21 222.099 564.21H412.739C414.098 564.21 415.201 563.108 415.201 561.748V558.245C415.201 556.885 414.098 555.783 412.739 555.783Z" fill="#CFD8FC"/>
<path d="M209.789 532.19H204.024C202.665 532.19 201.563 533.292 201.563 534.651V538.156C201.563 539.515 202.665 540.617 204.024 540.617H209.789C211.149 540.617 212.25 539.515 212.25 538.156V534.651C212.25 533.292 211.149 532.19 209.789 532.19Z" fill="#407ADB"/>
<path d="M209.788 555.783H204.025C202.666 555.783 201.563 556.885 201.563 558.245V561.748C201.563 563.108 202.666 564.21 204.025 564.21H209.788C211.148 564.21 212.25 563.108 212.25 561.748V558.245C212.25 556.885 211.148 555.783 209.788 555.783Z" fill="#407ADB"/>
<path d="M558.286 450.873H411.552C406.1 450.873 401.68 455.293 401.68 460.745V555.356C401.68 560.808 406.1 565.228 411.552 565.228H558.286C563.738 565.228 568.158 560.808 568.158 555.356V460.745C568.158 455.293 563.738 450.873 558.286 450.873Z" fill="#BAC5FF"/>
<path fill-rule="evenodd" clip-rule="evenodd" d="M462.495 487.028L507.342 508.051L462.495 529.074V487.028Z" fill="white"/>
<path fill-rule="evenodd" clip-rule="evenodd" d="M83.2572 477.762H107.377L113.55 467.511C114.399 466.099 115.092 464.511 118.207 464.511H142.24C145.355 464.511 146.048 466.103 146.897 467.511L153.07 477.762H177.193C179.56 477.769 181.828 478.712 183.501 480.386C185.175 482.059 186.118 484.327 186.125 486.694V547.781C186.119 550.148 185.176 552.416 183.502 554.09C181.828 555.764 179.56 556.708 177.193 556.715H83.2572C80.8901 556.708 78.6219 555.764 76.9482 554.09C75.2744 552.416 74.3311 550.148 74.3242 547.781V486.694C74.3313 484.327 75.2748 482.059 76.9486 480.386C78.6223 478.712 80.8903 477.769 83.2572 477.762V477.762Z" fill="#BAC5FF"/>
<path fill-rule="evenodd" clip-rule="evenodd" d="M130.226 543.081C134.639 543.081 138.953 541.772 142.622 539.321C146.291 536.869 149.151 533.384 150.84 529.307C152.528 525.23 152.97 520.744 152.109 516.416C151.248 512.088 149.123 508.112 146.003 504.992C142.882 501.871 138.906 499.746 134.578 498.886C130.25 498.025 125.764 498.467 121.687 500.156C117.61 501.845 114.125 504.705 111.674 508.374C109.222 512.043 107.914 516.357 107.914 520.77C107.925 526.684 110.28 532.352 114.462 536.534C118.644 540.716 124.312 543.07 130.226 543.081Z" fill="white"/>
<path fill-rule="evenodd" clip-rule="evenodd" d="M7.61379 181.924C11.9139 177.981 17.5269 175.778 23.3613 175.743C29.1956 175.709 34.8343 177.845 39.1809 181.737C43.5275 185.629 46.2713 190.998 46.8788 196.801C47.4863 202.604 45.914 208.425 42.4678 213.133L53.1178 224.74C53.699 225.378 54.0041 226.219 53.9667 227.081C53.9292 227.943 53.5521 228.755 52.9178 229.34L50.9668 231.13C50.3294 231.712 49.4876 232.017 48.6255 231.98C47.7634 231.942 46.9513 231.565 46.3668 230.93L35.7178 219.324C30.732 222.346 24.8008 223.408 19.0762 222.303C13.3515 221.197 8.24191 218.004 4.73968 213.343C1.23746 208.681 -0.407442 202.885 0.124424 197.079C0.656289 191.273 3.32696 185.871 7.61779 181.924H7.61379ZM13.6448 188.496C11.5197 190.446 10.0206 192.983 9.33718 195.785C8.65371 198.587 8.81653 201.529 9.80505 204.239C10.7936 206.949 12.5634 209.305 14.8907 211.008C17.218 212.712 19.9984 213.688 22.8801 213.811C25.7618 213.935 28.6155 213.202 31.0803 211.704C33.5452 210.206 35.5105 208.01 36.7276 205.395C37.9448 202.78 38.3593 199.863 37.9186 197.013C37.4779 194.162 36.2018 191.506 34.2518 189.381C31.637 186.531 27.997 184.835 24.1324 184.669C20.2679 184.502 16.4953 185.877 13.6448 188.492V188.496Z" fill="#B7CDFE"/>
</svg>
