<svg id="Layer_1" data-name="Layer 1" xmlns="http://www.w3.org/2000/svg" viewBox="0 0 1585.61 638.51"><defs><style>.cls-1{fill:#407adb;}.cls-2{fill:#758bfd;}.cls-3{fill:#8172d5;}.cls-4{fill:#fe7624;}.cls-5{fill:#fdceae;}.cls-6{fill:#f3b898;}.cls-7{fill:#424b96;}</style></defs><g id="graphs_and_statistics_outline_II" data-name="graphs and statistics outline II"><g id="graphs_and_statistics_outline_II-2" data-name="graphs and statistics outline II-2"><g id="graphs_and_statistics_outline_II-3" data-name="graphs and statistics outline II-3"><g id="flower"><g id="leaves"><g id="leaf_IV" data-name="leaf IV"><path id="Path" class="cls-1" d="M197.15,167.62c13-14.74,32.85-18,51.52-9.66s33.07,27,37.83,50.75l.48,2.41.16.82c3.95,19.6,7.75,28.25,15.8,36.92l.28.3c4.26,4.43,22.75,21,25.43,23.45a3,3,0,1,1-4,4.49l-.11-.11L322,274.64c-6-5.47-19.82-17.88-23.29-21.54l-.13-.15c-8.91-9.59-13.14-19.22-17.29-39.82-.17-.83-.34-1.68-.5-2.56-8.71-45.49-55-66.3-79.1-39-10.39,11.78-11.44,29.57-5,50.82,4.61,15.32,13.29,31.91,19.62,39.85l.28.35c3.12,3.83,4.47,10.64,6,26.48L224,305.15l.32,3.25c.45,4.58.9,8.67,1.39,12.71a282.09,282.09,0,0,0,6.21,34.62q.66,2.61,1.37,5.16a3,3,0,0,1-5.78,1.62h0c-.49-1.75-1-3.53-1.41-5.32a288.31,288.31,0,0,1-6.35-35.35l-.23-1.89c-.41-3.48-.79-7-1.18-10.95l-.4-4.19c-.33-3.65-1.07-11.83-1.22-13.4l-.16-1.73c-1.39-14.24-2.67-20.81-4.68-23.29-6.85-8.4-16.09-26-21-42.25C183.94,201.11,185.11,181.29,197.15,167.62Z" transform="translate(0)"/></g><g id="leaf_II" data-name="leaf II"><path id="Path-2" class="cls-1" d="M149.6,313.15c17.16-1.53,35.44,6.21,48.86,21.72l1.3,1.51c7.51,8.74,12.78,13.7,17.93,16.9,4.25,2.64,8.53,4.22,15.68,6l1,.24c2.6.59,15.47,3.43,20.74,4.72l2.19.54c9.85,2.48,20,5.44,31.62,9.33,17.21,5.73,33.39,17.23,48.75,33.8a3,3,0,1,1-4.37,4.11l0,0c-14.73-15.89-30.1-26.81-46.25-32.2-11.89-4-22.22-7-32.26-9.46l-2.7-.65c-6.35-1.51-18.52-4.19-19.48-4.42-8.11-1.92-13.07-3.72-18.09-6.84-6-3.71-11.86-9.31-20.2-19.13-25-29.38-66.64-25.66-72.58,3.66-2.61,12.67,4,26,17.32,38.78,9.65,9.25,22.75,17.78,30.54,21l.39.16c4,1.57,7.91,6.12,15.69,17.22l9,13,1.62,2.3c4.36,6.14,8.33,11.44,12.4,16.48,13.41,16.62,26.88,29,41.73,37.11,9.1,5,17.59,7,26.05,6.75,6.34-.21,11.95-1.53,19.91-4.32l5.9-2.11,1.4-.49c1.33-.46,2.47-.82,3.57-1.15a29,29,0,0,1,9.74-1.43c7.08.39,12.57,4.71,17.17,13.83a3,3,0,0,1-5.31,2.8l-.05-.1c-3.64-7.21-7.3-10.17-11.88-10.52l-.54,0c-3-.14-4.59.17-12.36,2.87l-4.9,1.73c-8.89,3.15-15.17,4.68-22.45,4.92-9.54.31-19.09-2-29.12-7.48C231.93,485.6,217.9,472.7,204,455.52c-3.91-4.84-7.72-9.9-11.85-15.68l-1.84-2.61-9.57-13.74-.95-1.35c-6.16-8.7-9.64-12.73-11.92-13.71l-.11,0C159.32,405,145.28,396,134.91,386c-14.71-14.09-22.16-29.2-19-44.3C119.16,325.39,132.37,314.69,149.6,313.15Z" transform="translate(0)"/></g><path id="Path-3" class="cls-1" d="M358.07,122.91c11.09-21.38,29.11-32,54.81-29.6,10.82,1,19.49,4,26.11,9a3,3,0,0,1-3.58,4.81h0c-5.69-4.24-13.3-6.9-23.09-7.81-23.19-2.2-38.92,7.11-48.92,26.38-8.09,15.6-12.08,36.86-13.16,63.38l0,1.07c-.3,7.93-.32,14.22-.16,24.33l.13,7.61c.14,10,0,14.25-.54,19.42l0,.27a50.4,50.4,0,0,1-6.7,20.86,68.76,68.76,0,0,1-12.16,14.72l-.59.56c-9.8,9.15-9.6,19.46-1.84,35.9l.78,1.63c1,2,2,4,3.63,7.11l2.35,4.5a112.41,112.41,0,0,1,6,12.88c2.41,6.35,3.36,11.8,2.6,16.84l-.15.9c-.59,3.35-2.24,11.71-2.42,12.67A160.7,160.7,0,0,0,339.21,419c2.61,24.43,10.38,51.77,24.62,82.95a3,3,0,1,1-5.45,2.5h0c-14.49-31.74-22.44-59.71-25.12-84.81a165.71,165.71,0,0,1,1.77-49.4l.27-1.46c.44-2.31,2.14-10.92,2.44-12.92.57-3.74-.14-8.05-2.07-13.27l-.38-1a116.48,116.48,0,0,0-6-12.68l-2.76-5.29c-1.45-2.78-2.4-4.68-3.38-6.73-4.12-8.62-6.27-15.41-6.46-21.94-.22-7.95,2.62-15,9-21.08l.38-.36a64.07,64.07,0,0,0,11.68-14,44,44,0,0,0,5.82-17.77l.14-1.22c.52-4.75.61-8.86.48-18.5l-.16-9.82c-.12-8.41-.09-14.24.15-21.12l0-1.23C345.25,162.06,349.38,139.67,358.07,122.91Z" transform="translate(0)"/><path id="Path-4" class="cls-1" d="M437.2,506.2h-49a3,3,0,0,1-3-3,1.7,1.7,0,0,1,0-.22c2.36-32.52,6.64-59.78,13.08-83.33,2.09-7.62,4.42-14.9,6.94-21.63a189.87,189.87,0,0,1,8.39-19.25A144.07,144.07,0,0,1,423.53,362,114.37,114.37,0,0,1,435,347.83a3,3,0,0,1,5.17,2V503.2A3,3,0,0,1,437.2,506.2Zm-3-148.4-.13.16c-12.64,15.43-22.73,36.73-30,63.27-6.12,22.4-10.26,48.19-12.64,78.85v.12H434.2Z" transform="translate(0)"/></g><path id="pot" class="cls-2" d="M436.3,500.2a3,3,0,0,1,.18,6H315.3A11.08,11.08,0,0,0,304,517a10.57,10.57,0,0,0,.18,2.25L330,634.85a3,3,0,0,1-5.81,1.48l-.05-.17L298.38,520.87C296,510.37,304,500.4,315,500.2H436.3Z" transform="translate(0)"/></g><g id="whiteboard"><path id="shape" class="cls-2" d="M1200.5,637.4H437.2a3,3,0,0,1-3-3V3a3,3,0,0,1,3-3h763.3a3,3,0,0,1,3,3V634.4A3,3,0,0,1,1200.5,637.4ZM440.2,6V631.4h757.3V6Z" transform="translate(0)"/><g id="graph"><path id="Rectangle" class="cls-3" d="M914,544.6H871.2a3,3,0,0,1-3-3V474.8a3,3,0,0,1,3-3H914a3,3,0,0,1,3,3v66.8A3,3,0,0,1,914,544.6Zm-39.8-66.8v60.8H911V477.8Z" transform="translate(0)"/><path id="Rectangle-2" class="cls-3" d="M981.2,544.6H938.4a3,3,0,0,1-3-3V446.7a3,3,0,0,1,3-3h42.8a3,3,0,0,1,3,3v94.9A3,3,0,0,1,981.2,544.6Zm-39.8-94.9v88.9h36.8V449.7Z" transform="translate(0)"/><path id="Rectangle-3" class="cls-3" d="M1048.3,544.6h-42.8a3,3,0,0,1-3-3V402.3a3,3,0,0,1,3-3h42.8a3,3,0,0,1,3,3V541.6A3,3,0,0,1,1048.3,544.6Zm-39.8-139.3h0V538.6h36.8V405.3Z" transform="translate(0)"/><rect id="Rectangle-4" class="cls-1" x="1072.6" y="363.9" width="42.8" height="177.7"/><path id="arrow" class="cls-1" d="M1129.9,272.7a3.12,3.12,0,0,0-2.4-.7l-28,4.5a3,3,0,0,0-2.5,3.4,3.09,3.09,0,0,0,3.4,2.5l18.3-2.9-54.6,63.4-22.3-21.4a2.66,2.66,0,0,0-2.2-.8,2.8,2.8,0,0,0-2.1,1l-73.2,85-21.2-15.9a3,3,0,0,0-3.9.2l-65.7,63a3,3,0,0,0-.1,4.2,3.12,3.12,0,0,0,2.2.9,3.44,3.44,0,0,0,2.1-.8L941.6,397l21.5,16.1a3.08,3.08,0,0,0,4.1-.4l72.9-84.7,22.3,21.4a2.66,2.66,0,0,0,2.2.8,2.8,2.8,0,0,0,2.1-1l58.3-67.7-.4,23.7a2.94,2.94,0,0,0,2.89,3h.11a3,3,0,0,0,3-3l.5-30.3A3.71,3.71,0,0,0,1129.9,272.7Z" transform="translate(0)"/></g><g id="layout_II" data-name="layout II"><g id="lines"><path id="Path-5" class="cls-3" d="M698.2,469.5a3,3,0,0,1,.18,6H514.2a3,3,0,0,1-.18-6H698.2Z" transform="translate(0)"/><path id="Path-6" class="cls-3" d="M649.7,497.5a3,3,0,0,1,.18,6H514.2a3,3,0,0,1-.18-6H649.7Z" transform="translate(0)"/><path id="Path-7" class="cls-3" d="M606.2,528.9a3,3,0,0,1,.18,6H510.2a3,3,0,0,1-.18-6H606.2Z" transform="translate(0)"/><path id="Path-8" class="cls-3" d="M798.8,469.5a3,3,0,0,1,.18,6H719.4a3,3,0,0,1-.18-6H798.8Z" transform="translate(0)"/></g><g id="oragne_bar" data-name="oragne bar"><path id="Path-9" class="cls-1" d="M601.5,411.3l21.2,20V391Z" transform="translate(0)"/><path id="Path-10" class="cls-1" d="M571,432.3l21.8-20.9L571,390.9Z" transform="translate(0)"/><path id="Path-11" class="cls-1" d="M679.1,383.9h-49l24.7,23.3Z" transform="translate(0)"/><path id="Path-12" class="cls-1" d="M597.1,415.5l-24.8,23.9h50.2Z" transform="translate(0)"/><path id="Path-13" class="cls-1" d="M628.7,432.3l21.8-20.9-21.8-20.5Z" transform="translate(0)"/><path id="Path-14" class="cls-1" d="M510.2,388.1v47.1L535,411.4Z" transform="translate(0)"/><path id="Path-15" class="cls-1" d="M539.4,415.5l-24.8,23.9h50.2Z" transform="translate(0)"/><path id="Path-16" class="cls-1" d="M563.6,383.9h-49l24.8,23.3Z" transform="translate(0)"/><path id="Path-17" class="cls-1" d="M680.4,431.3V391l-21.2,20.3Z" transform="translate(0)"/><path id="Path-18" class="cls-1" d="M543.8,411.3l21.2,20V391Z" transform="translate(0)"/><path id="Path-19" class="cls-1" d="M654.9,415.5l-24.8,23.9h50.2Z" transform="translate(0)"/><path id="Path-20" class="cls-1" d="M621.3,383.9h-49l24.8,23.3Z" transform="translate(0)"/><path id="Path-21" class="cls-1" d="M738.1,383.9H686.4v55.5h51.7Z" transform="translate(0)"/><path id="Path-22" class="cls-1" d="M798.8,383.9H744.1v55.5h54.7Z" transform="translate(0)"/><path id="Path-23" class="cls-4" d="M680.2,439.4c.1.1.1.1.2.1v-.1Z" transform="translate(0)"/></g></g><g id="layout"><path id="Rectangle-5" class="cls-3" d="M1087.7,214.5h-31a3,3,0,0,1-3-3v-31a3,3,0,0,1,3-3h31a3,3,0,0,1,3,3v31A3,3,0,0,1,1087.7,214.5Zm-28-31v25h25v-25Z" transform="translate(0)"/><path id="Rectangle-6" class="cls-3" d="M1093.8,163H975.3a3,3,0,0,1-3-3V124.3a3,3,0,0,1,3-3h118.5a3,3,0,0,1,3,3V160A3,3,0,0,1,1093.8,163ZM978.3,127.3V157h112.5V127.3Z" transform="translate(0)"/><path id="Path-24" class="cls-3" d="M1035.6,208.5a3,3,0,0,1,.18,6H975.3a3,3,0,0,1-.18-6h60.48Z" transform="translate(0)"/><path id="Path-25" class="cls-3" d="M1035.6,193.8a3,3,0,0,1,.18,6H975.3a3,3,0,0,1-.18-6h60.48Z" transform="translate(0)"/><path id="Path-26" class="cls-3" d="M1035.6,179.2a3,3,0,0,1,.18,6H975.3a3,3,0,0,1-.18-6h60.48Z" transform="translate(0)"/></g><g id="lines-2" data-name="lines"><path id="Path-27" class="cls-3" d="M1042.8,292.3a3,3,0,0,1,.18,6H878.1a3,3,0,0,1-.18-6H1042.8Z" transform="translate(0)"/><path id="Path-28" class="cls-3" d="M975.3,306.4a3,3,0,0,1,.18,6H878.1a3,3,0,0,1-.18-6H975.3Z" transform="translate(0)"/></g><g id="circle_graph" data-name="circle graph"><path id="Path-29" class="cls-1" d="M709.1,209.9l113-57.3a126.9,126.9,0,0,1,13.7,57.3c0,69.5-57.2,126.7-126.7,126.7A126.57,126.57,0,0,1,610,288.8Z" transform="translate(0)"/><path id="Path-30" class="cls-3" d="M910.9,110.2a3,3,0,0,1,.18,6H806.2a3,3,0,0,1-.18-6H910.9Z" transform="translate(0)"/><path id="Path-31" class="cls-3" d="M910.9,124.3a3,3,0,0,1,.18,6h-56a3,3,0,0,1-.18-6h56Z" transform="translate(0)"/><path id="Path-32" class="cls-3" d="M910.9,138.5a3,3,0,0,1,.18,6H873.8a3,3,0,0,1-.18-6H910.9Z" transform="translate(0)"/><path id="Path-33" class="cls-3" d="M914,222.5a3,3,0,0,1,.18,6H778.9a3,3,0,0,1-.18-6H914Z" transform="translate(0)"/><path id="Path-34" class="cls-3" d="M914,233.6a3,3,0,0,1,.18,6H888.7a3,3,0,0,1-.18-6H914Z" transform="translate(0)"/><g id="Group"><path id="Path-35" class="cls-3" d="M632.3,98.5a3,3,0,0,1,.18,6H551.8a3,3,0,0,1-.18-6H632.3Z" transform="translate(0)"/><path id="Path-36" class="cls-3" d="M567.9,109.9a3,3,0,0,1,.18,6H551.8a3,3,0,0,1-.18-6H567.9Z" transform="translate(0)"/></g><path id="Path-37" class="cls-1" d="M590,294.2h0a3,3,0,0,1-2.35-1.13,124.17,124.17,0,0,1-27-76.24,3,3,0,0,1,3-3h0l121.9-1.3h0a3,3,0,0,1,2.83,2,2.92,2.92,0,0,1-1,3.34l-95.5,75.7A3,3,0,0,1,590,294.2Zm86.77-75.61-110.1,1.18,0,.44a117.9,117.9,0,0,0,23.6,66.45l.23.3Z" transform="translate(0)"/><path id="Path-38" class="cls-1" d="M568.8,209.3a3,3,0,0,1-3-3v-1.6a124.87,124.87,0,0,1,8.4-45.18,3,3,0,0,1,2.8-1.92,3.14,3.14,0,0,1,1.09.2l113.59,44.1a3,3,0,0,1-1,5.8l-121.8,1.6Zm10-44.8-.33.92a119.09,119.09,0,0,0-6.6,37.25v.59l103.3-1.36Z" transform="translate(0)"/><path id="Path-39" class="cls-1" d="M713.69,196.11a3,3,0,0,1-2.6-1.53,2.86,2.86,0,0,1,0-3l60.1-105.7a3,3,0,0,1,4.08-1.13h0a123.89,123.89,0,0,1,50,52.88,3,3,0,0,1-1.35,4L715,195.79A3,3,0,0,1,713.69,196.11ZM774.91,91.52,721.16,186l97.39-48.38-.19-.36a117.85,117.85,0,0,0-43.1-45.57Z" transform="translate(0)"/><path id="Path-40" class="cls-3" d="M759.8,90.2a121.94,121.94,0,0,0-59.7-16.1h-2a121.75,121.75,0,0,0-112.2,77.3l113.4,44.5Z" transform="translate(0)"/><path id="Path-41" class="cls-3" d="M586.3,234a3,3,0,0,1,.18,6H505.8a3,3,0,0,1-.18-6H586.3Z" transform="translate(0)"/><path id="Path-42" class="cls-3" d="M534.9,245.4a3,3,0,0,1,.18,6H505.8a3,3,0,0,1-.18-6H534.9Z" transform="translate(0)"/></g></g><g id="man"><g id="hand_II" data-name="hand II"><path id="Path-43" class="cls-5" d="M1116,580a3,3,0,0,1,.38,6,189.85,189.85,0,0,0-19.18,2.21l-8.46,1.49-3.67.66-2.69.5-1.29.24c-9.33,1.78-16,3.34-19.93,4.78a16,16,0,0,0-2.12.93l-.31.19-.11.08c-.59.95-.41,1.44.92,2.25l.17.1c2.15,1.27,5.84,2,9.67,1.88a3,3,0,1,1,.21,6c-4.89.17-9.69-.8-12.92-2.7-4.28-2.52-5.76-6.75-3-11,.94-1.43,2.68-2.4,5.4-3.41l.62-.22a146.7,146.7,0,0,1,18.94-4.57l2.63-.5c1.54-.29,3.14-.59,4.88-.9l8.52-1.5A193.59,193.59,0,0,1,1116,580Z" transform="translate(0)"/><path id="Path-44" class="cls-5" d="M1098.52,637.49c-4.19,0-7.47-.64-9.76-1.91a6.5,6.5,0,0,1-3.66-5.66v-.24a7,7,0,0,1,.11-1.29l0-.17H1085a19.28,19.28,0,0,1-7.83-2.11,9.41,9.41,0,0,1-4.61-4.45l-.07-.2a4.57,4.57,0,0,1,.29-3.31l0-.08-.2,0a32.34,32.34,0,0,1-3.68.25,15.2,15.2,0,0,1-2.86-.24l-.25-.06a6.22,6.22,0,0,1-4.57-3.18c-.9-1.88-.65-4.39.69-7.08,1.4-2.86,7.82-7.35,20.2-14.12l1.86-1c8.5-4.58,16.82-8.53,20.21-9.61l.59-.18c2.77-.77,11.67-2.31,27.22-4.72l3.32-.51c4.2-.65,8.7-1.33,13.4-2l12-1.76,5.63-.82a3,3,0,0,1,3.3,2.09l0,.18,14.1,58.4a3,3,0,0,1-2.21,3.62,3.08,3.08,0,0,1-.53.08h-79.67l-.34,0C1100.12,637.46,1099.3,637.49,1098.52,637.49Zm21.07-27.74a5.54,5.54,0,0,1,1,.1l.08,0a3,3,0,0,1,.16,5.81l-.87.26-1.6.48-2.23.69-.59.19c-.93.29-1.82.58-2.65.86l-1,.34-3.26,1.32-6.88,2.83c-2.08.85-3.42,1.38-4.77,1.88l-.54.2c-3,1-5.31,3.53-5.3,4.9,0,.29.2.56,1.14,1a16.47,16.47,0,0,0,6.15.9c.68,0,1.41,0,2.17-.06l.45,0h76l-12.57-52-7,1-7.89,1.16-9.64,1.45-9.34,1.44c-13.46,2.1-21.82,3.55-24.18,4.2l-.2,0c-3.94,1.13-13.71,6.07-21.64,10.46-7.45,4.12-16.45,9.56-17.3,11.3a6.58,6.58,0,0,0-.56,1.41l0,.16v.07l.15,0,.22,0a8.59,8.59,0,0,0,1.83.16,47.8,47.8,0,0,0,9.87-1.51l1.17-.28,0,0a70.74,70.74,0,0,1,9-5.38l.41-.21c1.77-.89,3.74-1.82,5.85-2.76,3.66-1.64,7.73-3.31,12.11-5l1.21-.46,1.71-.63,1.37-.5,1.22-.44a3,3,0,0,1,2.13,5.61l-1.62.58-1,.38c-1,.35-1.91.7-2.85,1.06-4.27,1.62-8.24,3.25-11.79,4.84-2,.91-3.92,1.8-5.59,2.65a56.24,56.24,0,0,0-11.14,7.16,18,18,0,0,0-2.21,2.24l-.12.16.18.14a11.36,11.36,0,0,0,2.74,1.48,11.9,11.9,0,0,0,4.2.83,8.84,8.84,0,0,0,2.89-.47l.08,0,.25-.15a81.94,81.94,0,0,1,12.13-5.64l.65-.25c2-.78,4.26-1.59,6.57-2.38l1.43-.48,1.39-.56C1116,610.4,1118.09,609.75,1119.59,609.75Z" transform="translate(0)"/></g><path id="body" class="cls-3" d="M1407.6,418.2a67.42,67.42,0,0,0-36.7-62.4l-37.7-20.3-4.1,18.6a37.5,37.5,0,0,1-44.7,28.5l-4.9-1.1a37.5,37.5,0,0,1-28.5-44.7l6.3-28.3c-7.2-5-12.9-11.8-15.6-20.6-.2-.6-.3-1.2-.5-1.7L1203.6,266l-.1,291.7,102-20.9-4.9-68.5a3,3,0,0,1,6-.4l5.1,71.1a3,3,0,0,1-2.4,3.2l-105.8,21.7v.8l-57.9,10.6c11.4,2.2,24,58.7,24,58.7H1375a35.94,35.94,0,0,0,35.9-36v-.52Z" transform="translate(0)"/><g id="head"><path id="neck" class="cls-6" d="M1338.86,292.48a3,3,0,0,1,5.9,1.06l0,.18-12.8,61a40.51,40.51,0,0,1-47.63,30.92l-.66-.14-4.9-1.1a40.51,40.51,0,0,1-30.91-47.63l.14-.66,6.3-28.3a3,3,0,0,1,5.89,1.14l0,.17-6.3,28.3a34.49,34.49,0,0,0,25.67,41l.55.13,4.9,1.1a34.49,34.49,0,0,0,41-25.63l.12-.56Z" transform="translate(0)"/><path id="face" class="cls-6" d="M1292.33,322h0a69.58,69.58,0,0,1-25.81-5,53.15,53.15,0,0,1-17.63-11.39,40.25,40.25,0,0,1-10.26-16.8,73,73,0,0,1-2.85-20.89,145.77,145.77,0,0,1,3.37-30.6c.69-3.32,1.47-6.61,2.31-9.79l.27-1,.26-.91.24-.86.27-.91h0l0-.07A342,342,0,0,1,1254.78,189a267.7,267.7,0,0,1,15.68-31.89l.66-1.13.28-.46a39.65,39.65,0,0,1,14.93-14.69,40.56,40.56,0,0,1,19.61-4.65,56.9,56.9,0,0,1,6,.32,75.76,75.76,0,0,1,18.46,4.53,86.59,86.59,0,0,1,9.3,4.1l1,.53A92.62,92.62,0,0,1,1358.79,158a68.67,68.67,0,0,1,12.55,14.6,62.05,62.05,0,0,1,7.35,16.56,70,70,0,0,1,2.47,18.21,87,87,0,0,1-3.91,26c-.86,2.84-1.83,5.58-2.9,8.17-.74,1.8-1.3,3-1.64,3.66l-.16.32-2.74,5.17-1.18,2.19-1.81,3.35c-3.44,6.36-6.75,12.33-9.83,17.74-.43.77-.79,1.39-1.12,2l-1.44,2.51c-6.53,11.29-11.19,18.53-14.24,22.12l-.33.39c-4.59,5.38-8.76,9.61-14.19,12.72-4.81,2.76-10.73,4.76-20.43,6.92l-1.21.26A54.73,54.73,0,0,1,1292.33,322Zm-44.14-96.6h0c-.54,2.08-2,7.62-2.94,12l-.16.78-.3,1.45a139,139,0,0,0-3,28.18,67.16,67.16,0,0,0,2.58,19.17c3.34,10.79,11.78,19.22,24.42,24.39a63.59,63.59,0,0,0,23.55,4.61,49.35,49.35,0,0,0,10.43-1c17.74-3.86,22.86-6.65,32.24-17.59l.77-.91c2.84-3.42,7.49-10.71,13.81-21.65l1.09-1.9,1.11-1.94c3.32-5.85,6.94-12.39,10.75-19.44l.41-.77c.83-1.53,1.6-3,2.31-4.32l1.86-3.5.3-.6c.07-.13.14-.3.23-.48l.34-.74c.18-.4.34-.76.48-1.1l.34-.8c1-2.41,1.9-5,2.7-7.63a81.23,81.23,0,0,0,3.65-24.18c-.19-24.44-12.73-43.44-37.27-56.48a81,81,0,0,0-9.61-4.3,69.48,69.48,0,0,0-17-4.18,50.19,50.19,0,0,0-5.35-.29c-13,0-23,5.67-29.65,16.86l-.65,1.1c-10.62,18.21-20.33,41.4-27.35,65.32l-.09,0Z" transform="translate(0)"/><path id="hair_II" data-name="hair II" class="cls-7" d="M1245.4,224.5c5.9-20,15.3-45.3,28.3-67.1a28.91,28.91,0,0,1,1.9-2.9c-10.5-8.2-27.6,8.7-39.4,43.6-6.1,18-22.7,27.1-22.7,27.1,12.7,11.1,24.2,6.3,31.7,0C1245.3,224.8,1245.3,224.5,1245.4,224.5Z" transform="translate(0)"/><path id="nose" class="cls-6" d="M1272.21,211.89a3,3,0,0,1,5.64,2.05l-.06.17-12.37,31,8.22,3a3,3,0,0,1,1.83,3.68l-.06.17a3,3,0,0,1-3.68,1.83l-.17-.05-11.1-4.1a3,3,0,0,1-1.81-3.76l.06-.17Z" transform="translate(0)"/><ellipse id="eye_II" data-name="eye II" class="cls-6" cx="1262.73" cy="209.27" rx="5.5" ry="3.5" transform="matrix(0.39, -0.92, 0.92, 0.39, 572.83, 1287.37)"/><ellipse id="eye" class="cls-6" cx="1293.38" cy="223.2" rx="5.5" ry="3.5" transform="matrix(0.22, -0.98, 0.98, 0.22, 796.7, 1438.09)"/><path id="brow_II" data-name="brow II" class="cls-6" d="M1305.26,201.51a3,3,0,0,1,3.53-2.35,18.73,18.73,0,0,1,10.83,6.24,19.4,19.4,0,0,1,2.94,4.59,13.94,13.94,0,0,1,.84,2.26,3,3,0,0,1-5.76,1.67l-.09-.31a7.7,7.7,0,0,0-.45-1.12,13.43,13.43,0,0,0-2-3.18,12.81,12.81,0,0,0-7.46-4.27A3,3,0,0,1,1305.26,201.51Z" transform="translate(0)"/><path id="brow" class="cls-6" d="M1265.83,179.76c3.59-.26,7.21,1,10.74,3.09a27.54,27.54,0,0,1,4.16,3,3,3,0,0,1-4.06,4.42l-.12-.11-.7-.58a25.77,25.77,0,0,0-2.38-1.64,12.76,12.76,0,0,0-7.2-2.23,5.71,5.71,0,0,0-2.77.92l-.25.17a3,3,0,0,1-3.5-4.88A11.85,11.85,0,0,1,1265.83,179.76Z" transform="translate(0)"/><path id="cap" class="cls-1" d="M1436.9,225.5,1403,208.3c4.3-25.2,1.6-64.2-45.7-86.2-74-34.4-101,39.7-101,39.7l169.5,85.5a12.31,12.31,0,0,0,16.5-5.4,12.11,12.11,0,0,0-5.22-16.31Z" transform="translate(0)"/><path id="mouth" class="cls-6" d="M1291.88,266.15a3,3,0,0,1,.27,4.23h0a10.91,10.91,0,0,1-1.09,1.06,19.38,19.38,0,0,1-2.82,2c-6.36,3.77-14.4,4.25-23.62-.5a3,3,0,0,1,2.76-5.34h0c7.31,3.78,13.16,3.43,17.8.68a14.61,14.61,0,0,0,1.94-1.39l.24-.23.28-.27a3,3,0,0,1,4.24-.28Z" transform="translate(0)"/><path id="hair" class="cls-7" d="M1399.1,233.8l-71.5-36.1c-8.3,25.9-18.7,77.8,25.6,91.5,0,0,34.6,11.5,44.6.1,0,0-23.8-17.4-18.4-31.7,0,0,24.3,36,52.9,16.9C1432.2,274.5,1398.5,263.7,1399.1,233.8Z" transform="translate(0)"/></g></g><path id="line" class="cls-2" d="M1582.6,631.3a3,3,0,0,1,.18,6H3a3,3,0,0,1-.18-6H1582.6Z" transform="translate(0)"/></g></g></g></svg>