<svg id="Layer_1" data-name="Layer 1" xmlns="http://www.w3.org/2000/svg" viewBox="0 0 1247.01 711.5"><defs><style>.cls-1{fill:#407adb;}.cls-2{fill:#8172d5;}.cls-3{fill:#2e5b9a;}.cls-4{fill:#fff;}.cls-5{fill:#424b96;}</style></defs><g id="product_launch_solid_II" data-name="product launch solid II"><g id="product_launch_solid_II-2" data-name="product launch solid II-2"><g id="product_launch_solid_II-3" data-name="product launch solid II-3"><path id="flag" class="cls-1" d="M1034.6,613.9c-12.7,7.1-36.2,15.6-55.6-3.4-20-19.5-34.3-19.1-41-17.2a5,5,0,0,0-5.3,2.4l-42.1,76.5A19,19,0,0,1,874,682H736.9a4.9,4.9,0,0,0,0,9.8H874a28.77,28.77,0,0,0,25.2-14.9l24.6-44.8c9.2,1.2,21.7,5.3,33.4,16.8,22.6,22,49.1,9.6,58.8,3.7a16,16,0,0,0,5.7-5.9l16.5-29.1a2.65,2.65,0,0,0-3.6-3.7Z" transform="translate(0 -0.4)"/><g id="flags"><path id="Path" class="cls-2" d="M354.2,525.4a2.43,2.43,0,0,0-3.22-1.19l-.18.09c-.4.2-4.6,2.8-22.9,11.9l-8.4,4.1c-39.9,19.2-98.8,43.6-122.7,33.5a2.44,2.44,0,0,0-2.8.6c-.1.1-8.7,9.4-27.5,18.2-17.3,8.1-47.1,17.3-90.6,15.2A2.36,2.36,0,0,0,73.36,610a2.67,2.67,0,0,0,0,.63,2.57,2.57,0,0,0,2.4,2.1c3.9.2,7.6.3,11.3.3l1.8,11.8a2.81,2.81,0,0,0,5.2,1l7.6-13.2c5.3-.3,10.4-.8,15.3-1.4l2.8,10.2a2.86,2.86,0,0,0,5.3.5l6-12.9c4.1-.8,7.9-1.7,11.5-2.6l2.3,8.5a2.86,2.86,0,0,0,5.3.5l6.2-13.2a124.4,124.4,0,0,0,12.2-5l1.6,5.9a2.86,2.86,0,0,0,5.3.5l6.2-13.4a80.25,80.25,0,0,0,15-11.3c5.1,1.8,11.3,2.3,18.3,1.9l4.2,10.4a2.78,2.78,0,0,0,5.2-.1L229,579c4.4-.8,8.9-1.8,13.5-3.1l1.9,8.1a2.76,2.76,0,0,0,5.2.6l6.5-12.8c4.4-1.4,8.8-3,13.2-4.6l1.7,7.3a2.84,2.84,0,0,0,3.4,2.12,2.81,2.81,0,0,0,1.8-1.32l7.8-13.7c3.9-1.6,7.8-3.2,11.7-4.9l1.9,7a2.86,2.86,0,0,0,5.3.5l6.2-13.4c4.2-1.9,8.2-3.8,12.1-5.7l1.5,5.7a2.86,2.86,0,0,0,5.3.5l5.7-12.2c15.5-7.8,18.4-9.6,19.9-10.4A3.19,3.19,0,0,0,354.2,525.4Z" transform="translate(0 -0.4)"/><path id="Path-2" class="cls-2" d="M473.3,490.1a2.44,2.44,0,0,0-2.8.6c-.1.1-8.7,9.4-27.5,18.2-17.3,8.1-47.1,17.3-90.6,15.2a2.36,2.36,0,0,0-2.54,2.17,2.67,2.67,0,0,0,0,.63,2.57,2.57,0,0,0,2.4,2.1c3.9.2,7.6.3,11.3.3l1.7,11.6a2.91,2.91,0,0,0,5.4,1l7.4-13c5.3-.3,10.4-.8,15.3-1.4l2.7,10a2.9,2.9,0,0,0,3.57,2A2.87,2.87,0,0,0,401.5,538l5.9-12.7c4.1-.8,7.9-1.7,11.5-2.6l3.2,9.6a2.92,2.92,0,0,0,5.5.1l5.1-13.9a124.4,124.4,0,0,0,12.2-5l1.5,5.7a2.9,2.9,0,0,0,3.57,2,2.87,2.87,0,0,0,1.83-1.52l6.1-13.1a80.25,80.25,0,0,0,15-11.3" transform="translate(0 -0.4)"/><path id="Path-3" class="cls-2" d="M1110.4,546.1a2.39,2.39,0,0,0-3.05-1.46l-.15.06c-38.5,16.1-79,8-120.3-23.9-31.1-24-50.9-53.3-51.1-53.5a2.45,2.45,0,1,0-4.1,2.7,210.46,210.46,0,0,0,16.2,20.5l4.9,23.5a2.89,2.89,0,0,0,5.3.9l4.9-8.3c4.2,4.1,8.7,8.2,13.5,12.2l5.2,18.1a2.87,2.87,0,0,0,5.2.7l4.6-7.2c4.1,2.9,8.2,5.5,12.4,8l7.2,20.3a2.88,2.88,0,0,0,3.69,1.74,2.84,2.84,0,0,0,1.51-1.24l6.4-11.2a114.07,114.07,0,0,0,11.9,4.3l9.4,16.4a2.92,2.92,0,0,0,5.3-.6l3.5-11.7a113.5,113.5,0,0,0,15.3,1.1h1.2l10.1,13.2a2.91,2.91,0,0,0,4.09.5,2.88,2.88,0,0,0,1-1.5l4.1-14.3a108.91,108.91,0,0,0,20.2-6.2A2.47,2.47,0,0,0,1110.4,546.1Z" transform="translate(0 -0.4)"/><path id="Path-4" class="cls-3" d="M75.4,607.1a3,3,0,0,1,3,2.82v99a3,3,0,0,1-6,.18v-99A3,3,0,0,1,75.4,607.1Z" transform="translate(0 -0.4)"/><path id="Path-5" class="cls-3" d="M195.7,573.1a3,3,0,0,1,3,2.82V707.3a3,3,0,0,1-6,.18V576.1A3,3,0,0,1,195.7,573.1Z" transform="translate(0 -0.4)"/><path id="Path-6" class="cls-3" d="M352.3,523.3a3,3,0,0,1,3,2.82v181a3,3,0,0,1-6,.18v-181A3,3,0,0,1,352.3,523.3Z" transform="translate(0 -0.4)"/><path id="Path-7" class="cls-3" d="M1108.4,543.5a3,3,0,0,1,3,2.82V708.9a3,3,0,0,1-6,.18V546.5A3,3,0,0,1,1108.4,543.5Z" transform="translate(0 -0.4)"/></g><g id="laptop"><path id="laptop-2" data-name="laptop" class="cls-3" d="M924.4,454.6l-362,2.4a15,15,0,0,0-13.4,7.6L432.2,677.1l-296.8.2s-5.1,29.8,37.6,31.6l640-.8L938,473.6C942.8,464.7,935.4,454.5,924.4,454.6Z" transform="translate(0 -0.4)"/><path id="screen" class="cls-4" d="M469.4,676.2l305.7-1.3,94.6-184.3c3.7-7.1-1.2-15.7-8.8-15.6l-277.8,3.4Z" transform="translate(0 -0.4)"/><path id="Path-8" class="cls-4" d="M894.47,454.8c13.1-.12,22,12.11,16.55,23.08l-.18.34L787,709.52a3,3,0,0,1-5.37-2.67l.08-.17L905.55,475.4c3.58-6.79-2.09-14.68-11-14.6a3,3,0,1,1-.06-6Z" transform="translate(0 -0.4)"/></g><g id="rocket"><path id="Path-9" class="cls-2" d="M485.7,548.9l33.5,61.6a3.27,3.27,0,0,0,6.1-1.6l-2.2-28s19.6,67.4,46.5,69.1,52.7-71,52.7-71l-7.1,30.5a3.26,3.26,0,0,0,6.1,1.6l35.8-62.2" transform="translate(0 -0.4)"/><path id="Path-10" class="cls-2" d="M443.8,310.7s-79.9,108.2-69.6,205H550.5V308.4Z" transform="translate(0 -0.4)"/><path id="Path-11" class="cls-2" d="M695,310.7s79.9,108.2,69.6,205H588.3V308.4Z" transform="translate(0 -0.4)"/><path id="Path-12" class="cls-4" d="M641.3,515.7C709,394,701.6,297.4,681.9,231.2s-66.2-140-110.3-140-90.5,73.8-110.3,140S433.2,394,500.9,515.7L482,556.5H660.5l-19.2-40.8Z" transform="translate(0 -0.4)"/><path id="Path-2-2" data-name="Path" class="cls-5" d="M660.5,559.5H482a3,3,0,0,1-3-3,2.87,2.87,0,0,1,.28-1.26l18.26-39.42-1.13-2.05c-7.47-13.66-14.23-27.45-20.08-41a423.26,423.26,0,0,1-15.07-40.2A377.26,377.26,0,0,1,451,393.13a349.61,349.61,0,0,1-5.59-38.67l-.13-1.58c-.88-10.64-1.24-21.36-1.09-31.86.15-10.3.8-20.71,1.93-30.93,1.12-10,2.73-20.16,4.8-30.17,2-9.77,4.54-19.72,7.49-29.58,10.37-34.68,27.32-69.58,46.49-95.74,10.9-14.87,22.07-26.39,33.2-34.24,11.44-8.07,22.71-12.16,33.48-12.16s22,4.09,33.47,12.16c11.14,7.85,22.31,19.37,33.2,34.24,19.18,26.16,36.12,61.06,46.5,95.74,2.91,9.79,5.4,19.7,7.37,29.46,2,10,3.61,20.14,4.67,30.16,1.1,10.23,1.7,20.65,1.8,31,.1,10.53-.32,21.28-1.25,32a351.06,351.06,0,0,1-5.66,39,381.74,381.74,0,0,1-10.35,39.79,432,432,0,0,1-15.24,40.61c-5.92,13.69-12.76,27.64-20.31,41.45l-1.14,2.07,18.55,39.41a3,3,0,0,1-.14,2.82,3,3,0,0,1-2.4,1.46ZM571.6,94.2c-9.66,0-19.94,3.85-30.55,11.45-10.44,7.48-21,18.41-31.29,32.5C491,163.77,474.36,198,464.17,232.06c-12,40.21-16.24,79.57-12.9,120.33,4.35,52.89,21.93,107.34,52.25,161.85a3,3,0,0,1,.1,2.72L486.7,553.5H655.77L638.59,517a3,3,0,0,1,0-2.56l.09-.18c30.38-54.6,48.11-109.06,52.71-161.86A317.89,317.89,0,0,0,679,232.06c-10.19-34.06-26.8-68.28-45.59-93.91-10.32-14.09-20.85-25-31.29-32.5C591.54,98.05,581.27,94.2,571.6,94.2Z" transform="translate(0 -0.4)"/><ellipse id="Oval" class="cls-2" cx="571.6" cy="281.2" rx="50.4" ry="60"/><ellipse id="Oval-2" class="cls-2" cx="571.6" cy="358.2" rx="8.4" ry="10"/><ellipse id="Oval-3" class="cls-2" cx="604" cy="358.2" rx="8.4" ry="10"/><ellipse id="Oval-4" class="cls-2" cx="536.7" cy="358.2" rx="8.4" ry="10"/><ellipse id="Oval-5" class="cls-4" cx="571.6" cy="275.3" rx="38.1" ry="45.3"/><path id="Oval-2-2" data-name="Oval" class="cls-5" d="M571.6,324a35.66,35.66,0,0,1-16.05-3.81,41,41,0,0,1-13.06-10.38,49.4,49.4,0,0,1-8.78-15.35,56.42,56.42,0,0,1,0-37.52,49.45,49.45,0,0,1,8.78-15.36,41.14,41.14,0,0,1,13.06-10.37,35.71,35.71,0,0,1,32.1,0,41.14,41.14,0,0,1,13.06,10.38,49.4,49.4,0,0,1,8.78,15.35,56.42,56.42,0,0,1,0,37.52,49.29,49.29,0,0,1-8.78,15.35,41,41,0,0,1-13.06,10.38A35.66,35.66,0,0,1,571.6,324Zm0-90.6c-19.35,0-35.1,19-35.1,42.3S552.25,318,571.6,318s35.1-19,35.1-42.3S591,233.4,571.6,233.4Z" transform="translate(0 -0.4)"/><path id="Path-13" class="cls-2" d="M580.5,89.5V17.9a11.24,11.24,0,0,0,2.1-6.5,11,11,0,1,0-22,0,11.24,11.24,0,0,0,2.1,6.5V89.4c-18.5,3.8-37,19.3-53.9,40.1a239.09,239.09,0,0,1,67-5.4,346.32,346.32,0,0,1,61.2,8.8C619.5,110.5,599.9,93.7,580.5,89.5Z" transform="translate(0 -0.4)"/><path id="Path-14" class="cls-2" d="M653.7,169.7c-22.1-7.4-47.5-13.9-81.6-15.2-34.8-1.3-61.2,6.5-82.9,15a320.55,320.55,0,0,0-23.1,53.7c26-12.7,57.9-26.1,106.8-25.2,46.5.8,78.5,11.1,102.8,21.9A323.29,323.29,0,0,0,653.7,169.7Z" transform="translate(0 -0.4)"/><path id="Path-15" class="cls-2" d="M638.7,515.2c3.2-5.8,6.3-11.5,9.2-17.2-15.3-6.2-37.3-11.4-76.4-11-39.5-.3-61.6,5-76.9,11.3,2.9,5.6,5.9,11.3,9,17,0,0,34.7-6.8,67.8-6.5C604,508.5,638.7,515.2,638.7,515.2Z" transform="translate(0 -0.4)"/></g><g id="clouds"><path id="cloud" class="cls-4" d="M823.1,674.9H665.9s-22.6-20.3-12.2-36.9,37.7-20.6,46.6-3.8c0,0,3.9-32.1,36.8-29.6s30.4,36.8,30.4,36.8,41.7-29.5,40.6,16.6C808,657.9,810.6,674.9,823.1,674.9Z" transform="translate(0 -0.4)"/><path id="cloud-2" data-name="cloud" class="cls-5" d="M823.1,677.9H665.9a3,3,0,0,1-2-.77c-.3-.27-1-.9-2-2l-.46-.48a66.13,66.13,0,0,1-5.38-6.43,46.53,46.53,0,0,1-6.3-11.35,26,26,0,0,1-1.66-11.29,20.58,20.58,0,0,1,3.11-9.17,33.75,33.75,0,0,1,13-11.88,35.61,35.61,0,0,1,16.43-4.11,28.67,28.67,0,0,1,9.79,1.63,23.2,23.2,0,0,1,8.24,5l.26.26.23-.69a44.14,44.14,0,0,1,3.76-8.21l.4-.66a33.76,33.76,0,0,1,12.22-12,36.37,36.37,0,0,1,18-4.33c1.26,0,2.56,0,3.87.15l.53,0a36.59,36.59,0,0,1,18.32,6.25A32.18,32.18,0,0,1,767,621.75a44.74,44.74,0,0,1,3.16,12.09c.09.74.16,1.47.22,2.17v0l.63-.36c.75-.42,1.53-.83,2.32-1.24l.8-.4a49,49,0,0,1,13.14-4.54,29.74,29.74,0,0,1,4.8-.43c5.1,0,9.25,1.62,12.37,4.8,4.64,4.74,6.87,12.81,6.63,24l0,.1.08.42c.09.43.21.93.34,1.43a26.08,26.08,0,0,0,2,5.21c2.4,4.63,5.53,6.87,9.56,6.87h.2a3,3,0,0,1,0,6ZM680.5,626.43a29.12,29.12,0,0,0-24.26,13.16,14.52,14.52,0,0,0-2.21,6.53c-.5,5.46,1.8,11.7,6.82,18.56a60.72,60.72,0,0,0,4.89,5.84l1.1,1.13.26.25H810.87l-.37-.47a25.19,25.19,0,0,1-2.11-3.29l-.18-.35a31.9,31.9,0,0,1-2.46-6.41c-.2-.73-.37-1.47-.49-2.13l0-.18c0-.18-.06-.34-.07-.48l0-.16,0-.22v-.46l0-.92c.08-9-1.58-15.28-4.94-18.67L800,638a11.13,11.13,0,0,0-8-2.88,22.43,22.43,0,0,0-3.66.33,42.58,42.58,0,0,0-11.5,4c-1.87.92-3.72,1.95-5.51,3.06l-1,.62-.7.46-.53.36a2.94,2.94,0,0,1-1.58.46,3,3,0,0,1-2.23-1,3,3,0,0,1-.77-2.26v-.25l0-.44a41.73,41.73,0,0,0-.31-5.91,39.15,39.15,0,0,0-2.73-10.47c-4.34-10.18-12.4-15.58-24.63-16.51-1.16-.09-2.31-.13-3.42-.13-11.12,0-19.56,4.52-25.09,13.45a38.08,38.08,0,0,0-4.15,9.47c-.31,1.08-.56,2.12-.75,3.11l-.15.84,0,.41a3,3,0,0,1-3,2.46,2.93,2.93,0,0,1-2.63-1.6l-.23-.41C694.26,629.62,688.1,626.43,680.5,626.43Z" transform="translate(0 -0.4)"/><path id="cloud-3" data-name="cloud" class="cls-4" d="M322.6,675.2H479.8s22.6-20.3,12.2-36.9-37.7-20.6-46.6-3.8c0,0-3.9-32.1-36.8-29.6s-30.4,36.8-30.4,36.8-41.7-29.5-40.6,16.6C337.7,658.2,335.1,675.1,322.6,675.2Z" transform="translate(0 -0.4)"/><path id="cloud_2_2" data-name="cloud 2 2" class="cls-5" d="M479.8,678.2H322.6a3,3,0,1,1,0-6h.31c3.8-.14,6.78-2.29,9.1-6.57l.17-.33a25.91,25.91,0,0,0,2-5.19c.16-.59.3-1.16.39-1.67l.05-.26v-.46c-.17-11,2.08-18.89,6.68-23.56,3.11-3.16,7.26-4.76,12.34-4.76a28.66,28.66,0,0,1,4.34.36l.45.07a48.86,48.86,0,0,1,13.14,4.54c1,.51,2.09,1.07,3.12,1.64l.63.35,0-.57c0-.38.07-.74.11-1.08l.07-.56a44.38,44.38,0,0,1,3.16-12.09,32,32,0,0,1,11-14c5-3.54,11.33-5.61,18.67-6.17l.55,0c1.12-.07,2.24-.11,3.32-.11a36.37,36.37,0,0,1,18,4.33,33.76,33.76,0,0,1,12.22,12,42.79,42.79,0,0,1,4.16,8.88l.23.68.26-.26a23.15,23.15,0,0,1,8.25-5,29.06,29.06,0,0,1,9.78-1.63,35.62,35.62,0,0,1,16.15,4,33.84,33.84,0,0,1,12.91,11.45l.36.57a20.58,20.58,0,0,1,3.11,9.17A26,26,0,0,1,496,657.17a46.53,46.53,0,0,1-6.3,11.35,66.13,66.13,0,0,1-5.38,6.43c-1.12,1.18-1.9,1.92-2.26,2.26l-.25.22A3,3,0,0,1,479.8,678.2ZM353.72,635.4a11.17,11.17,0,0,0-8,2.88c-3.48,3.34-5.2,9.68-5.12,18.85v1.38l0,.22,0,.16c0,.09,0,.19,0,.31l-.07.35c-.12.65-.29,1.38-.49,2.12a32.58,32.58,0,0,1-2.46,6.39,24.17,24.17,0,0,1-2.68,4.11l0,0H478.6l.52-.52.55-.56.28-.3a60.7,60.7,0,0,0,4.9-5.85c5-6.85,7.31-13.09,6.82-18.55a14.52,14.52,0,0,0-2.21-6.53,29.12,29.12,0,0,0-24.26-13.16c-7.81,0-14.06,3.34-17.15,9.17l-.09.16a2.9,2.9,0,0,1-2.54,1.44,3,3,0,0,1-3-2.64l-.05-.34-.13-.73c-.19-1-.44-2-.75-3.11a37.71,37.71,0,0,0-4.15-9.47c-5.53-8.93-14-13.45-25.09-13.45-1.11,0-2.26,0-3.42.13l-.53.05c-11.94,1-19.82,6.43-24.1,16.46a41.49,41.49,0,0,0-3,16.72l0,.52a2.94,2.94,0,0,1-.84,2.14,3.06,3.06,0,0,1-2.17.93,3,3,0,0,1-1.72-.56l-.4-.27-.7-.46-.07,0-.24-.15-.67-.42c-1.78-1.1-3.64-2.13-5.51-3.06a42.93,42.93,0,0,0-11.5-4A22.43,22.43,0,0,0,353.72,635.4Z" transform="translate(0 -0.4)"/></g><path id="line" class="cls-5" d="M1244,705.9a3,3,0,0,1,.18,6H3a3,3,0,0,1-.18-6H1244Z" transform="translate(0 -0.4)"/></g></g></g></svg>