<svg id="Layer_1" data-name="Layer 1" xmlns="http://www.w3.org/2000/svg" viewBox="0 0 1225.11 709.19"><defs><style>.cls-1{fill:#fff;}.cls-2{fill:#407adb;}.cls-3{fill:#758bfd;}.cls-4{fill:#8172d5;}.cls-5{fill:#2e186a;}.cls-6{fill:#424b96;}.cls-7{fill:#3f79da;}</style></defs><g id="support_solid" data-name="support solid"><g id="support_solid-2" data-name="support solid-2"><g id="support_solid-3" data-name="support solid-3"><g id="suculent"><path id="succulent" class="cls-1" d="M459.1,468.5c-9.6-5.1-17.8-2.7-26.8,6.9,4.1-23.2,4-51.3-14.4-56-18.9-4.9-29.6,6.9-40.7,35.4.4-24.4-4.4-55.9-24.6-57.2-22.7-1.4-30.3,17.3-35.9,58.8-7.1-23.2-26.6-63.9-49.6-55.8-22.5,7.9-21,29.6-8.5,73.8-12.3-19.1-37-47.5-53.5-36.7-15.7,10.2-11.4,26.9,6,57.9-11.5-5-23.4-5.5-33,3.9-21.5,21.2-11.1,41.3,18.6,78.6s243.7-28.7,253.8-45.5S476.6,477.9,459.1,468.5Z" transform="translate(0 -0.01)"/><path id="succulent-2" data-name="succulent" class="cls-2" d="M237.89,592.41h0c-22.29,0-36.94-4.18-43.54-12.44A317.93,317.93,0,0,1,175,553.6c-4.66-7.33-7.67-13.45-9.47-19.26l-.22-.73c-2-6.89-2.16-13.11-.43-19S170.27,503,176,497.36a27.61,27.61,0,0,1,19.9-8.3,36.21,36.21,0,0,1,8.6,1.1l.25.07-.44-.82c-6.84-13-10.4-22.13-11.53-29.75l-.05-.4c-.74-5.34-.24-9.87,1.54-13.86a23.49,23.49,0,0,1,9.2-10.21,17.33,17.33,0,0,1,9.68-2.91c6.55,0,14,3.45,22.2,10.25a118.37,118.37,0,0,1,15.89,16.54l.25.32-.2-.83c-3.73-15.33-5.14-26-4.58-34.51l.06-.87c.55-6.56,2.36-11.8,5.53-16s7.7-7.29,13.8-9.43a21.47,21.47,0,0,1,7.1-1.24,24.43,24.43,0,0,1,14,4.83A56.47,56.47,0,0,1,300.3,415a137.64,137.64,0,0,1,15.2,28.89l0,.06.18-1.07c2.63-15.45,5.63-25.66,9.73-33.1l.19-.35a29.41,29.41,0,0,1,10.3-11.22,26.92,26.92,0,0,1,14.38-3.7c.81,0,1.65,0,2.49.08a20.88,20.88,0,0,1,13.74,6.27c3.69,3.67,6.7,9,8.94,15.71a100.55,100.55,0,0,1,4.38,24.32v.17l.36-.73c4.31-8.71,8.71-14.92,13.44-19a24,24,0,0,1,16.19-6.12,34.86,34.86,0,0,1,8.2,1.07l.6.15a20.83,20.83,0,0,1,11.82,8c2.9,3.9,4.93,9.12,6,15.5,1.3,7.57,1.33,16.7.07,27.16l-.06.5.42-.3a21.85,21.85,0,0,1,12.72-4.43,22.74,22.74,0,0,1,10.51,2.79l.36.19a16.54,16.54,0,0,1,5.74,5,19.77,19.77,0,0,1,3.05,7.27c1.14,5.38.74,12.21-1.2,20.28-2.66,11.07-8.43,24.76-15,35.71-1.42,2.36-5.87,5.42-13.25,9.08A280.12,280.12,0,0,1,412,554.79a761,761,0,0,1-80.32,23.77c-18.88,4.5-36.34,8-51.88,10.27A288.36,288.36,0,0,1,237.89,592.41ZM196,495.06a21.84,21.84,0,0,0-15.74,6.58c-9.8,9.66-12.53,18.71-9.13,30.28,3,10.15,10.26,21.86,25.95,41.77l2,2.54c2.7,3.38,7.4,6,14,7.66,6.39,1.65,14.59,2.49,24.38,2.49,23.29,0,55.41-4.72,92.9-13.66a762.75,762.75,0,0,0,79.46-23.5c10.45-3.8,19.61-7.54,26.47-10.82,6.7-3.21,10.75-5.75,11.71-7.35,6.32-10.47,11.82-23.5,14.34-34,1.62-6.71,2.06-12.33,1.31-16.68s-2.74-7.51-5.89-9.2a17.11,17.11,0,0,0-8.05-2.26c-4.68,0-9.29,2.5-14.5,7.87l-.66.69a2.9,2.9,0,0,1-2.15,1,3.11,3.11,0,0,1-2.36-1.1,3,3,0,0,1-.63-2.43c2.54-14.37,2.86-26.7.93-35.67-2-9.52-6.46-15.2-13.13-16.9a27.56,27.56,0,0,0-7-1c-6.18,0-11.29,2.59-16.08,8.14S384.9,443.3,380,455.89a2.87,2.87,0,0,1-2.75,1.91,3.12,3.12,0,0,1-2.22-.9,2.92,2.92,0,0,1-.82-2.15c.26-15.65-1.51-28.91-5.11-38.33-3.77-9.89-9.54-15.37-16.67-15.82-.73-.05-1.46-.07-2.14-.07-9,0-15.13,3.84-19.76,12.46-4.56,8.47-7.9,22-10.85,43.81a3,3,0,0,1-3,2.6,2.91,2.91,0,0,1-2.85-2.12c-4.37-14.29-11.25-28.78-18.41-38.77-7.57-10.58-15.1-15.94-22.35-15.94a14.72,14.72,0,0,0-5,.86c-9.79,3.44-14.38,9.38-15.32,19.88-.94,10.34,1.67,25.38,8.71,50.27a2.92,2.92,0,0,1-.45,2.6,3.21,3.21,0,0,1-2.5,1.24,2.87,2.87,0,0,1-2.46-1.39c-7.08-11-14.79-20.34-22.3-27-7.8-6.94-15-10.6-20.72-10.6a11.32,11.32,0,0,0-6.32,1.81c-6.67,4.34-9.17,9.9-8.1,18.07s5.71,19.17,15.08,35.85a2.93,2.93,0,0,1,0,3,3,3,0,0,1-3.8,1.25A35.41,35.41,0,0,0,196,495.06Z" transform="translate(0 -0.01)"/><path id="pot" class="cls-3" d="M460.8,531.8l.2-.6-287.7.9.2.6a29.74,29.74,0,0,0-23.7,33.7l21.5,138.8,291.6-.9,21.5-138.8A29.65,29.65,0,0,0,460.8,531.8Z" transform="translate(0 -0.01)"/></g><g id="woman"><g id="body"><path id="clothing" class="cls-4" d="M932,481.8a117.67,117.67,0,0,0-13.4.8c-23.9-33-51.3-61-80.1-78.8-75-46.2-178-33-274.1,2.6-66.1,24.4-149.8,103.2-203.5,159-70,5.3-123.8,52.9-120.6,107.4a80.55,80.55,0,0,0,9.6,33.4l234.9,1.6c.4-.6.8-1.3,1.2-1.9l348.4-1.2c.4.5.8,1,1.2,1.6l192.9-.3c17.9-23.7,28.6-54,28.6-87.1C1057.1,543.1,1001.1,481.8,932,481.8Z" transform="translate(0 -0.01)"/><g id="clothing_lines" data-name="clothing lines"><path id="Path" class="cls-1" d="M845.4,408.3c-88.7,55-168.3,56.2-219.9,47.3-47.8-8.2-82.3-26.6-93.5-33.8-1.9,1.1-3.8,2.2-5.8,3.3,9.2,6.3,45.2,27.1,97.2,36.2a295.1,295.1,0,0,0,51.3,4.5,298.89,298.89,0,0,0,52.4-4.6c42.1-7.5,83.6-24,123.6-49.1C848.9,410.7,847.2,409.5,845.4,408.3Z" transform="translate(0 -0.01)"/><path id="Path-2" class="cls-1" d="M836.2,502.8c14.1-19.8,31.5-30.9,51.8-33.1a66.17,66.17,0,0,1,22,1.4c-1.9-2.4-3.8-4.8-5.7-7.1a68.81,68.81,0,0,0-16.6-.2c-15.3,1.6-37.5,9-56.4,35.6a3,3,0,0,0,.7,4.2,2.74,2.74,0,0,0,1.7.59A3.21,3.21,0,0,0,836.2,502.8Z" transform="translate(0 -0.01)"/><path id="Path-3" class="cls-1" d="M837.3,573.1h0a3.08,3.08,0,0,0,3.1-2.9c.2-8.8,3.7-28.8,16-47.6,14.2-21.9,35.2-35.3,62.2-40.1-1.3-1.8-2.6-3.6-4-5.4-27,5.5-48.8,20-63.3,42.2-12.1,18.6-16.7,39-17,50.7a3,3,0,0,0,3,3.1Z" transform="translate(0 -0.01)"/><path id="Path-4" class="cls-1" d="M413.6,543.6a143.35,143.35,0,0,0-33.9,2.6c-3,3-6,6-8.9,9,11.1-6.1,74.3-13.7,100.4,16a2.93,2.93,0,0,0,2.3,1,3.09,3.09,0,0,0,2-.7,3,3,0,0,0,.3-4.2C458.9,548,429.6,544.2,413.6,543.6Z" transform="translate(0 -0.01)"/><g id="Group"><path id="Path-5" class="cls-1" d="M358.9,565.6h.2a.13.13,0,0,0-.2,0Z" transform="translate(0 -0.01)"/><path id="Path-6" class="cls-1" d="M465,586.5c-35.3-26.7-79.3-28.3-97.9-27.5-2.1,2.2-4.2,4.3-6.2,6.4,10.7-.9,61.8-3.3,100.5,25.9a3,3,0,1,0,3.6-4.8Z" transform="translate(0 -0.01)"/></g></g><path id="hand" class="cls-1" d="M312.5,705.3s32.8-97,125.1-79.4,218.6,55.4,218.6,55.4v24.3Z" transform="translate(0 -0.01)"/><path id="hand-2" data-name="hand" class="cls-5" d="M656.2,708.6l-343.7-.3a3,3,0,0,1-3-3,2.85,2.85,0,0,1,.16-1q0-.11.09-.27l.39-1.06c.15-.39.28-.75.42-1.1l.49-1.23c1.23-3,2.66-6.22,4.25-9.45a155.62,155.62,0,0,1,18.11-28.57A126.92,126.92,0,0,1,352,643.71a104.85,104.85,0,0,1,21.87-13.82A96.72,96.72,0,0,1,394,623.08a102.13,102.13,0,0,1,21.78-2.32,120.27,120.27,0,0,1,22.4,2.19c17.19,3.28,36.8,7.5,58.28,12.54l3.64.86c12.76,3,26.32,6.37,40.3,9.93,26.09,6.66,53.66,14.1,82,22.1,8.76,2.48,17.29,4.93,25.35,7.29l5.39,1.58,4,1.18a3,3,0,0,1,2.14,2.87v24.3A3,3,0,0,1,656.2,708.6ZM415.76,626.76a92.29,92.29,0,0,0-39.31,8.57c-14.24,6.64-27.14,17.1-38.36,31.08a149.87,149.87,0,0,0-17.41,27.48c-1.3,2.64-2.5,5.25-3.54,7.75l-.27.67,336.33.29V683.54l-9.28-2.72c-7.44-2.17-15.26-4.41-23.22-6.67L616.5,673c-26.73-7.53-52.84-14.55-77.6-20.87-14-3.57-27.5-6.9-40.2-9.9-22.84-5.41-43.59-9.9-61.66-13.35A114.38,114.38,0,0,0,415.76,626.76Z" transform="translate(0 -0.01)"/><g id="hand_II" data-name="hand II"><path id="Path-7" class="cls-1" d="M1041.3,347s-7.4-3.7-8.3-12.2,4.8-45.5,14-50.7,51.6-28.1,59.4-27.6S1117.4,324.9,1041.3,347Z" transform="translate(0 -0.01)"/><path id="Path-8" class="cls-1" d="M1045.8,288.2c15.8-55.3,28.7-67.7,36.2-62.3,6.8,4.9-7,40.1-11,58.4" transform="translate(0 -0.01)"/><path id="Path-2-2" data-name="Path" class="cls-5" d="M1064.5,232.64l.49-.73c6.39-9.39,13-12.57,18.76-8.44,3.38,2.43,3.75,7.46,2.39,15.45l-.2,1.13c-.9,4.94-2.39,10.72-4.82,19.12l-4,13.55c-1.85,6.4-2.47,8.8-3.22,12.22a3,3,0,0,1-5.86-1.28h0l.28-1.28c.65-2.84,1.3-5.33,2.82-10.57l4-13.65a187.67,187.67,0,0,0,5.06-20.24l.12-.76c.81-5.22.56-8.35-.1-8.83-2.3-1.65-5.81.12-10.73,7.6l-.44.69c-6.32,9.92-13.23,27.32-20.39,52.4a3,3,0,0,1-5.78-1.64l.52-1.8C1050.74,260.34,1057.82,242.81,1064.5,232.64Z" transform="translate(0 -0.01)"/><path id="hand_II-2" data-name="hand II" class="cls-1" d="M1115.5,276.2c7.9-12.9,21-12.2,14.2,9.7-6.7,21.4-11.6,49.2-24.1,61.8s-17,18.2-17,18.2-25,93.3-39.2,170.9c-20.5,112.2-59.3,133.8-95.5,120.9s-42.9-63.6,6.5-162.1,75.5-156,75.5-156" transform="translate(0 -0.01)"/><path id="hand_II-3" data-name="hand II" class="cls-5" d="M1112.94,274.63c4.49-7.32,11-11.43,16.24-9.44,5.76,2.2,6.88,10,3.52,21.16l-.73,2.36c-.86,2.85-1.75,6-2.93,10.24l-2.18,7.9c-6.35,22.93-11.06,34.67-18.87,42.7l-2,2c-4.09,4.15-7.49,7.73-10.28,10.77l-1.1,1.22c-1.16,1.28-2.1,2.36-2.86,3.24l-.45.53-1.58,6-1.42,5.44c-1.37,5.31-2.86,11.13-4.44,17.38-5.71,22.61-11.42,46.27-16.74,69.82l-1.15,5.11c-2.48,11-4.8,21.78-7,32.17l-.86,4.2q-2.79,13.57-5.12,26.1l-.7,3.82c-9.78,53.53-24.19,89.31-42.63,108.88-16.5,17.51-36,21.73-56.83,14.31-20-7.08-30.82-24.76-30.85-51.73,0-28.09,11.49-66,35-113.11l4.61-9.21c18.69-37.41,35.19-71.2,49.44-101l5.54-11.64q5.14-10.83,9.32-19.77l4.38-9.42,2.88-6.26a3,3,0,0,1,5.53,2.32l-.38.84-3.11,6.76-4.28,9.2q-4.87,10.41-11,23.31l-4.2,8.8c-15.09,31.55-32.66,67.47-52.65,107.36-45.37,90.47-45.32,144.79-8.17,157.92,18.65,6.65,35.61,3,50.44-12.77,17.33-18.38,31.23-52.65,40.81-104.27l.29-1.57c2-10.8,4.22-22.24,6.71-34.25s5.22-24.53,8.13-37.4c5-22.28,10.43-44.67,15.83-66.17l2.2-8.7q1.53-6,2.93-11.43l1.86-7.16,1.59-6a3.1,3.1,0,0,1,.56-1.1l.41-.5.55-.64c.79-.92,1.77-2,3-3.36l1.51-1.67c3.16-3.43,7.06-7.51,11.77-12.26l.46-.47c6.4-6.73,10.75-17.23,16.35-37l3.6-13c1-3.57,1.8-6.33,2.6-8.93l.36-1.17c2.7-8.7,2.06-13.5.21-14.2s-5.82,1.8-9,7a3,3,0,0,1-5.12-3.13h0Z" transform="translate(0 -0.01)"/><path id="Path-9" class="cls-1" d="M1036.8,341.3c-7.2-4.9-6.3-33.1-14.4-45.4-10-15.3-19.8-31.2-1.3-28.8,15.9,2,20.9,16,24.6,21" transform="translate(0 -0.01)"/><path id="Path_2_2" data-name="Path 2 2" class="cls-5" d="M1008.15,275.59c-2.08-8.38,2.8-12.83,13.33-11.47,8.83,1.11,15.22,5.48,20.4,12.46l.24.33c1.89,2.65,5.49,8.68,6,9.37l0,0a3,3,0,0,1-4.7,3.72l-.12-.16-.1-.14c-.85-1.27-4.6-7.53-6.12-9.59-4.28-5.76-9.3-9.19-16.35-10.08-3.68-.48-5.82-.14-6.6.58-.47.42-.62,1.41-.2,3.23l.06.26c1,4.19,4,9.55,10.6,19.6l.33.51c3.07,4.65,4.95,10.81,6.88,20.65l.39,2,1.16,6.35c1.83,9.68,3.26,14.14,5.06,15.48l.09.06a3,3,0,0,1-3.38,5c-3.75-2.55-5.36-7.27-7.55-18.8l-1.36-7.29-.19-1c-1.78-9.26-3.49-15-6-18.87l-1.86-2.87C1012.15,285.56,1009.34,280.35,1008.15,275.59Z" transform="translate(0 -0.01)"/><path id="Path-10" class="cls-1" d="M1106.3,299.6s14.1-34.2,18.8-50.1c5.2-17.3-13-19.8-21.8,5.1" transform="translate(0 -0.01)"/><path id="Path_2_3" data-name="Path 2 3" class="cls-5" d="M1119.25,233.23c7.8-.51,11.6,7.09,8.82,16.79l-.1.33c-1.43,4.86-3.79,11.61-6.86,19.82l-.55,1.46c-.42,1.13-.86,2.28-1.31,3.45-1.94,5.1-4,10.37-6.1,15.6l-1.7,4.25-1.78,4.36-.6,1.45a3,3,0,0,1-5.61-2.12l2.42-5.94.81-2c2.07-5.16,4.15-10.43,6.12-15.54l1.28-3.34.86-2.26c3.2-8.5,5.66-15.5,7.15-20.46l.13-.42c1.91-6.38.33-9.61-2.59-9.42-4.32.28-9.88,6.1-13.51,16.38a3,3,0,1,1-5.66-2C1104.82,241.31,1112.08,233.7,1119.25,233.23Z" transform="translate(0 -0.01)"/><path id="Path-11" class="cls-1" d="M1089.7,290.6s27.7-62.7,15.3-68.3c-11.3-5.1-19.9,17.8-34.1,62" transform="translate(0 -0.01)"/><path id="Path_2_4" data-name="Path 2 4" class="cls-5" d="M1086.78,232.63c6-11.63,12.13-16.37,19.46-13.06,7.53,3.4,6.1,16.38-.64,37.59-1.14,3.6-2.43,7.36-3.83,11.23-1.81,5-3.74,10-5.68,14.75l-.73,1.77c-.67,1.65-1.31,3.17-1.9,4.53l-1,2.37a3,3,0,0,1-5.49-2.42l.78-1.8.65-1.53c.45-1.06.93-2.21,1.43-3.43,2.15-5.22,4.3-10.74,6.31-16.28,1.38-3.8,2.64-7.48,3.76-11l.49-1.57c5.05-16.35,6.19-27.49,3.4-28.74-3.48-1.57-7.18,1.43-12,11.12l-.56,1.13c-4.49,9.23-9.29,22.69-17.4,47.93a3,3,0,1,1-5.72-1.84l1.75-5.4c7.41-22.85,12-35.29,16.42-44.22Z" transform="translate(0 -0.01)"/></g></g><g id="head"><path id="neck" class="cls-1" d="M637,336.2l3.9,70.7s-6.6,38.2,46.4,31.1c52.8-7,46.3-38.3,46.3-38.3l-16.3-87.8Z" transform="translate(0 -0.01)"/><path id="neck-2" data-name="neck" class="cls-5" d="M675,441.89h0c-9,0-16.47-1.58-22.3-4.68a27,27,0,0,1-12.29-13.1,32.75,32.75,0,0,1-2.58-16.44c0-.21.05-.4.07-.6l0-.32L634,336.36a3,3,0,0,1,2.13-3l80.3-24.3a3,3,0,0,1,3.74,2c0,.11.06.21.08.32l16.31,87.85c0,.17.07.37.1.61l.05.41a27.21,27.21,0,0,1-.8,10.28,31,31,0,0,1-5.49,10.86c-7.91,10.3-22.28,16.9-42.72,19.61A97.25,97.25,0,0,1,675,441.89Zm40-126.15-74.83,22.65,3.77,68.34a2.34,2.34,0,0,1,0,.46l0,.22c0,.09,0,.24-.06.41l0,.43a26.69,26.69,0,0,0,2.08,13.41c4.22,9.45,13.94,14.25,28.89,14.25a93.75,93.75,0,0,0,12.18-.88c18.81-2.5,31.85-8.32,38.76-17.32a23.42,23.42,0,0,0,5.08-16.81c0-.2,0-.37-.07-.5Z" transform="translate(0 -0.01)"/><path id="ear" class="cls-1" d="M737.6,222.7s41-15.4,42.6,27.3-42.6,31.6-42.6,31.6" transform="translate(0 -0.01)"/><path id="ear-2" data-name="ear" class="cls-5" d="M741.57,218.43a46,46,0,0,1,17.84-1c14.13,2.3,23.05,12.64,23.79,32.42.76,20.44-8.34,31.64-23.64,35a52.65,52.65,0,0,1-19,.35l-1-.16c-1.22-.21-2.15-.4-2.74-.55a3,3,0,0,1,1.29-5.86l.65.15.31.06c.69.15,1.48.29,2.36.42a46.51,46.51,0,0,0,16.8-.27c12.52-2.74,19.58-11.41,18.92-28.9l-.05-1c-.86-16.25-7.66-23.9-18.71-25.7a40,40,0,0,0-15.49.87c-1,.24-1.94.49-2.78.74l-.41.13-.76.24-.35.13a3,3,0,0,1-2.1-5.62l.38-.14A46.32,46.32,0,0,1,741.57,218.43Z" transform="translate(0 -0.01)"/><path id="face" class="cls-1" d="M660.7,357.7h0a80.4,80.4,0,0,1-80.4-80.4h0V207.1a51.55,51.55,0,0,1,51.5-51.5h70.4a39.05,39.05,0,0,1,39,39v82.6A80.51,80.51,0,0,1,660.7,357.7Z" transform="translate(0 -0.01)"/><path id="face-2" data-name="face" class="cls-5" d="M660.7,360.7a83.32,83.32,0,0,1-83.4-83.4V207.1a54.55,54.55,0,0,1,54.5-54.5h70.4a42,42,0,0,1,42,42v82.6a83.46,83.46,0,0,1-82.14,83.49ZM631.8,158.6a48.56,48.56,0,0,0-48.5,48.5v70.2a77.48,77.48,0,0,0,77.38,77.4H662c42-.68,76.22-35.44,76.22-77.49V194.6a36,36,0,0,0-36-36Z" transform="translate(0 -0.01)"/><g id="headphones"><path id="Path-12" class="cls-6" d="M759.9,315.3a277.07,277.07,0,0,0-4.9-52.2c0-.3.1-.7.1-1a11.39,11.39,0,0,0-11.4-11.4v11.4l.3,11.4a11.72,11.72,0,0,0,6.4-2.2c3.7,23,11,91.6-19.8,149.9-5.6,10.7-10.9,20.6-16.1,30.1-29,54.1-48.2,89.9-47.7,121.8a3.08,3.08,0,0,0,3,3h0a3,3,0,0,0,3-3c-.4-30.4,18.5-65.6,47-118.9,5.1-9.6,10.4-19.4,16.1-30.2C756,385.9,760.1,343.9,759.9,315.3Z" transform="translate(0 -0.01)"/><path id="Path-13" class="cls-6" d="M572.5,274.8a10.38,10.38,0,0,0,4.6,1.4V253.5a11.27,11.27,0,0,0-10.2,9.7,3.3,3.3,0,0,0-.5,1.7c0,4.6,0,112.3,32,160.9,32.7,49.8,42.8,78.2,45.1,126.4a3.06,3.06,0,0,0,3,2.9h.1a3.07,3.07,0,0,0,2.9-3.1c-2.3-49.6-12.6-78.6-46.1-129.5C577.8,383.7,573.3,302.9,572.5,274.8Z" transform="translate(0 -0.01)"/></g><path id="nose" class="cls-5" d="M636.05,226a3,3,0,0,1,3,2.77V229l1.08,63.48,0,0a1.13,1.13,0,0,0,.79-.07l.15-.06c1.54-.66,3.57-2.89,5.91-7.16a3,3,0,1,1,5.26,2.88c-5.48,10-11.38,12.56-16.09,9a6.81,6.81,0,0,1-1.5-1.53,3,3,0,0,1-.53-1.44v-.22l-1.1-64.8a3,3,0,0,1,2.95-3.05Z" transform="translate(0 -0.01)"/><path id="mouth" class="cls-5" d="M667.66,301.89a3,3,0,0,1,4.15.87,2.59,2.59,0,0,1,.36.77l.07.24c.07.28.15.64.23,1.09A16.94,16.94,0,0,1,670.74,316c-3.35,6.2-10.59,10.25-22.25,11.4a3,3,0,0,1-.58-6c9.81-1,15.25-4,17.55-8.28a10.39,10.39,0,0,0,1.12-3.24l.07-.43-.09,0c-13,7-26.07,7.5-32.53.27l-.21-.24a3,3,0,0,1,4.56-3.9C643,311.1,655.31,310,667.66,301.89Z" transform="translate(0 -0.01)"/><path id="brow" class="cls-5" d="M663.37,202.59c6.54-5,14.32-5.51,22.7,1.16a3,3,0,0,1-3.74,4.7c-6.06-4.83-10.83-4.5-15.33-1.08a20.8,20.8,0,0,0-1.74,1.5l-1.1,1.09a4.65,4.65,0,0,1-.42.38,3,3,0,0,1-1.31.67,3,3,0,0,1-2.53-5.31l.13-.09.66-.65A26.24,26.24,0,0,1,663.37,202.59Z" transform="translate(0 -0.01)"/><ellipse id="eye_II" data-name="eye II" class="cls-5" cx="684.2" cy="248.09" rx="5" ry="7.7"/><ellipse id="eye" class="cls-5" cx="611.5" cy="249.99" rx="5" ry="7.7"/><path id="brow_II" data-name="brow II" class="cls-5" d="M597.55,201.65c7.49-6,15.7-6.26,22.92,3a3,3,0,0,1-4.71,3.72l0,0c-4.87-6.25-9.3-6.1-14.43-2a26.72,26.72,0,0,0-2,1.8l-1.18,1.18-.43.39a3.07,3.07,0,0,1-1.35.7,3,3,0,0,1-2.52-5.31l.11-.08.78-.77A31.94,31.94,0,0,1,597.55,201.65Z" transform="translate(0 -0.01)"/><g id="hair_shape" data-name="hair shape"><path id="Path-14" class="cls-6" d="M680.8,138.1c-19.5.3-34.3,1.2-43.1,2.9h0c-71.6,16.3-60,69.3-60,69.3s35,6.7,63.5-35.5c0,0,39.1,31.9,97,44.8.9-.2,2-.5,3-.8v2.9a46.67,46.67,0,0,1,14.6-1.5c-.6-20.9-4.4-47.3-21.6-64.3C722,143.8,704,137.8,680.8,138.1Z" transform="translate(0 -0.01)"/><path id="Path-15" class="cls-1" d="M639.29,134.53A351.89,351.89,0,0,1,684.13,132c30.91.33,51.57,11.72,63.81,31.8a88.66,88.66,0,0,1,10.44,27,171,171,0,0,1,3.41,23.94,3,3,0,0,1-6,.52l-.16-1.8c-1.86-20.15-5.06-33.79-12.84-46.54-11.15-18.29-29.87-28.61-58.73-28.92h-1.76a344.23,344.23,0,0,0-42.21,2.48,3,3,0,1,1-.83-5.94Z" transform="translate(0 -0.01)"/><path id="Path-16" class="cls-6" d="M868.7,94.6C844,24,774-15.7,712.3,5.9c-50.7,17.7-80,71.4-75.2,129.1,9.3-1.6,23.9-2.6,43.7-2.9,24.9-.3,44.3,6.2,57.7,19.5,19,18.8,22.9,47.3,23.4,69.5,9.2,2.5,17.7,10,18.4,28.9.1,1.9-1.6,16.6-1.2,16.5a31.55,31.55,0,0,0,4.5,16.4c6.9,11.1,20.9,18,41.7,20.4h.4a3,3,0,0,0,.4-5.9c-18.8-2.2-31.4-8.1-37.3-17.6a24.48,24.48,0,0,1-3.6-11.1c5.1,6,14,12.5,28.1,12.5a56.72,56.72,0,0,0,11.1-1.2,3,3,0,0,0-1.2-5.8c-18.2,3.8-28.3-3.1-33.6-9.3a103.42,103.42,0,0,0,12.1-3.4C863.3,239.8,893.3,165.1,868.7,94.6Z" transform="translate(0 -0.01)"/></g><g id="glasses"><path id="Oval" class="cls-5" d="M688.5,289.6a39.59,39.59,0,1,1,15.41-3.11h0A39.36,39.36,0,0,1,688.5,289.6Zm0-73.2A33.6,33.6,0,1,0,722.1,250,33.6,33.6,0,0,0,688.5,216.4Z" transform="translate(0 -0.01)"/><path id="Path-17" class="cls-5" d="M651.1,246.1a3,3,0,0,1,.18,6h-24a3,3,0,0,1-.18-6h24Z" transform="translate(0 -0.01)"/><path id="Path-18" class="cls-5" d="M739.72,218a3,3,0,0,1,3.11,5.13l-.15.09L722,234.91a3,3,0,0,1-3.11-5.13l.15-.09Z" transform="translate(0 -0.01)"/><path id="Oval-2" class="cls-5" d="M589.5,289.6a39.59,39.59,0,1,1,15.41-3.11h0A39.36,39.36,0,0,1,589.5,289.6Zm0-73.2A33.6,33.6,0,1,0,623.1,250,33.6,33.6,0,0,0,589.5,216.4Z" transform="translate(0 -0.01)"/></g></g></g><g id="laptop"><path id="shape" class="cls-7" d="M841.2,667.8H820.4L810.2,516.5a20.85,20.85,0,0,0-20.5-19.2H499.8a17.67,17.67,0,0,0-18,17.38c0,.61,0,1.21.06,1.82L493.2,684a20.85,20.85,0,0,0,20.5,19.2l327.4-.4A10.82,10.82,0,0,0,851.9,692V678.7a10.7,10.7,0,0,0-10.48-10.9Z" transform="translate(0 -0.01)"/><g id="icon"><path id="Path-19" class="cls-1" d="M665.2,597.4a28.17,28.17,0,0,0-15.4-8.3,10.28,10.28,0,0,0,1.7-4.6,10.45,10.45,0,0,0-8.6-11.2h-.3c-1.1-4.1-3.2-10.9-5.6-13.8a3.09,3.09,0,0,0-3.8-.8,2.08,2.08,0,0,0-.65,2.87,1.59,1.59,0,0,0,.25.33c1.6,1.9,3.5,7.8,4.7,12.3a9.19,9.19,0,0,0-4.9,7.5,10.61,10.61,0,0,0,2.8,8.1,23.17,23.17,0,0,0-5.1,2.3c-10.4,6.5-11.7,19.3-2.9,28.8s24.5,11.8,34.9,5.3S674.1,606.8,665.2,597.4Z" transform="translate(0 -0.01)"/><path id="Path-20" class="cls-1" d="M660.8,559s-15-3-17,9.5C643.9,568.5,655.7,572.7,660.8,559Z" transform="translate(0 -0.01)"/></g></g><path id="line" class="cls-5" d="M1222.1,703.2a3,3,0,0,1,.18,6H3a3,3,0,0,1-.18-6H1222.1Z" transform="translate(0 -0.01)"/></g></g></g></svg>