<svg width="550" height="400" viewBox="0 0 550 400" fill="none" xmlns="http://www.w3.org/2000/svg">
<g clip-path="url(#clip0_23_73)">
<path d="M306.995 393.667C416.295 393.667 504.9 305.542 504.9 196.833C504.9 88.1253 416.295 0 306.995 0C197.695 0 109.09 88.1253 109.09 196.833C109.09 305.542 197.695 393.667 306.995 393.667Z" fill="#F2F2F2"/>
<path d="M367.482 122.956C395.905 122.956 418.948 100.038 418.948 71.7683C418.948 43.4984 395.905 20.5811 367.482 20.5811C339.058 20.5811 316.016 43.4984 316.016 71.7683C316.016 100.038 339.058 122.956 367.482 122.956Z" fill="#FF6584"/>
<path d="M151.725 38.2499L153.132 67.4195C158.964 75.1551 165.255 84.0073 171.464 93.6549L172.35 49.1537L172.839 49.4646C165.657 44.3618 158.357 40.4577 151.236 37.9795L151.725 38.2499Z" fill="#FB7F4B"/>
<path d="M152.107 66.0644L150.745 37.8087C142.748 35.0963 134.989 34.1964 127.897 35.4544C127.528 35.5199 127.166 35.5952 126.804 35.6716C128.606 37.5944 139.107 48.9503 152.107 66.0644Z" fill="#FB7F4B"/>
<path d="M216.674 100.865L217.146 101.313C215.208 97.6872 213.154 94.1624 210.983 90.7383L197.759 142.491L197.535 142.295C198.491 144.566 199.4 146.82 200.263 149.06L216.674 100.865Z" fill="#FB7F4B"/>
<path d="M196.529 71.4421L197.016 71.8298C190.024 63.5905 182.076 56.2039 173.337 49.8242L172.434 95.1734C178.211 104.242 183.384 113.175 187.953 121.971L196.529 71.4421Z" fill="#FB7F4B"/>
<path d="M100.599 85.6001C101.342 93.2438 102.859 100.793 105.128 108.133L183.989 116.223C179.872 108.673 175.622 101.589 171.496 95.1325L100.799 86.2168L100.599 85.6001Z" fill="#FB7F4B"/>
<path d="M107.997 116.598L107.785 115.983L187.599 123.039C186.635 121.163 185.66 119.312 184.674 117.486L105.523 109.366L105.314 108.75C106.112 111.337 107.006 113.953 107.997 116.598Z" fill="#FB7F4B"/>
<path d="M210.085 89.6592L210.565 90.08C206.608 83.8901 202.236 77.9729 197.477 72.3687L188.785 123.581C191.798 129.464 194.526 135.264 196.971 140.981L210.085 89.6592Z" fill="#FB7F4B"/>
<path d="M208.397 175.207C211.569 188.859 212.771 201.768 211.978 213.789C216.441 204.331 233.415 165.147 227.07 128.629L208.397 175.207Z" fill="#FB7F4B"/>
<path d="M122.639 144.199C126.862 149.857 131.462 155.227 136.407 160.273L136.214 159.589L207.211 174.116C205.364 166.492 203.059 158.986 200.308 151.638L122.639 144.199Z" fill="#FB7F4B"/>
<path d="M151.495 66.5406C137.425 48.0279 126.323 36.327 126.163 36.1595L126.346 35.7695C115.669 38.1804 108.13 45.4054 103.982 55.8631L151.495 66.5406Z" fill="#FB7F4B"/>
<path d="M200.92 150.797C201.182 151.494 201.449 152.192 201.702 152.885C204.14 159.528 206.213 166.299 207.911 173.167L226.407 127.03L226.858 127.481C225.687 121.061 223.703 114.814 220.954 108.89C219.863 106.568 218.72 104.28 217.527 102.027L200.92 150.797Z" fill="#FB7F4B"/>
<path d="M170.67 93.8462C164.525 84.3124 158.305 75.5667 152.54 67.9221L103.938 56.9992L103.773 56.3892C100.739 64.3362 99.6299 74.099 100.549 85.0031L170.67 93.8462Z" fill="#FB7F4B"/>
<path d="M207.499 175.327L137.021 160.907C166.666 191.173 208.14 214.385 210.787 215.852C212.022 202.517 210.621 188.82 207.499 175.327Z" fill="#FB7F4B"/>
<path d="M199.809 150.395L199.824 150.349C196.436 141.463 192.568 132.766 188.239 124.294L108.229 117.22C109.587 120.798 111.122 124.414 112.834 128.068C115.328 133.274 118.294 138.243 121.695 142.914L199.809 150.395Z" fill="#FB7F4B"/>
<path d="M301.585 136.501L283.963 159.86C283.493 169.517 282.662 180.326 281.257 191.695L310.478 157.983L310.655 158.533C308.396 150.047 305.277 142.408 301.382 135.983L301.585 136.501Z" fill="#FB7F4B"/>
<path d="M284.042 158.165L301.113 135.539C296.693 128.377 291.295 122.762 285.025 119.232C284.699 119.048 284.372 118.876 284.044 118.706C284.199 121.33 285.004 136.738 284.042 158.165Z" fill="#FB7F4B"/>
<path d="M311.454 225.928L311.531 226.572C312.363 222.551 313.041 218.533 313.565 214.519L270.191 245.989L270.144 245.696C269.425 248.051 268.679 250.365 267.907 252.637L311.454 225.928Z" fill="#FB7F4B"/>
<path d="M314.807 190.487L314.933 191.094C314.832 180.313 313.448 169.582 310.808 159.125L281.03 193.479C279.665 204.129 277.921 214.29 275.798 223.963L314.807 190.487Z" fill="#FB7F4B"/>
<path d="M231.843 140.537C227.513 146.896 223.841 153.673 220.881 160.765L276.43 217.022C278.102 208.595 279.371 200.443 280.334 192.854L231.602 141.139L231.843 140.537Z" fill="#FB7F4B"/>
<path d="M217.662 169.105L217.893 168.496L274.84 224.561C275.301 222.505 275.737 220.461 276.148 218.429L220.394 161.965L220.629 161.358C219.584 163.857 218.595 166.439 217.662 169.105Z" fill="#FB7F4B"/>
<path d="M313.565 213.117L313.665 213.746C314.587 206.468 315.014 199.137 314.943 191.802L275.406 225.731C273.954 232.173 272.336 238.371 270.553 244.326L313.565 213.117Z" fill="#FB7F4B"/>
<path d="M257.405 277.935C251.093 290.462 243.74 301.166 235.42 309.922C244.923 305.468 283.124 286.057 301.656 253.906L257.405 277.935Z" fill="#FB7F4B"/>
<path d="M211.239 199.65C210.863 206.687 210.962 213.74 211.535 220.764L211.825 220.115L257.19 276.341C260.656 269.298 263.694 262.055 266.289 254.65L211.239 199.65Z" fill="#FB7F4B"/>
<path d="M283.265 158.144C284.3 134.96 283.253 118.906 283.237 118.676L283.628 118.491C273.859 113.575 263.42 114.357 253.519 119.78L283.265 158.144Z" fill="#FB7F4B"/>
<path d="M267.3 254.391C267.055 255.094 266.813 255.801 266.563 256.495C264.181 263.159 261.435 269.688 258.339 276.055L302.171 252.254L302.23 252.888C305.445 247.2 307.923 241.131 309.604 234.824C310.253 232.343 310.84 229.856 311.366 227.364L267.3 254.391Z" fill="#FB7F4B"/>
<path d="M280.523 191.338C281.904 180.097 282.722 169.416 283.185 159.871L252.756 120.627L253.021 120.053C245.588 124.249 238.472 131.064 232.188 140.045L280.523 191.338Z" fill="#FB7F4B"/>
<path d="M256.635 277.457L211.602 221.643C215.024 263.758 232.081 307.946 233.179 310.755C242.682 301.268 250.387 289.83 256.635 277.457Z" fill="#FB7F4B"/>
<path d="M266.701 253.376L266.743 253.351C269.831 244.357 272.431 235.205 274.529 225.934L217.442 169.73C216.194 173.348 215.057 177.107 214.033 181.007C212.615 186.599 211.712 192.307 211.337 198.062L266.701 253.376Z" fill="#FB7F4B"/>
<path d="M125.873 167.687L136.277 194.996C144.227 200.56 152.961 207.045 161.864 214.311L148.877 171.717L149.439 171.862C141.023 169.217 132.866 167.749 125.324 167.581L125.873 167.687Z" fill="#FB7F4B"/>
<path d="M134.88 194.022L124.803 167.569C116.355 167.448 108.697 168.977 102.343 172.354C102.012 172.53 101.691 172.713 101.37 172.897C103.682 174.172 117.198 181.743 134.88 194.022Z" fill="#FB7F4B"/>
<path d="M207.101 207.269L207.689 207.55C204.72 204.698 201.671 201.977 198.542 199.388L202.049 252.672L201.775 252.555C203.39 254.42 204.956 256.285 206.472 258.15L207.101 207.269Z" fill="#FB7F4B"/>
<path d="M178.798 185.48L179.381 185.699C170.172 180.013 160.317 175.432 150.023 172.051L163.258 215.457C171.571 222.305 179.267 229.21 186.345 236.172L178.798 185.48Z" fill="#FB7F4B"/>
<path d="M91.9648 228.437C95.0469 235.478 98.8364 242.191 103.275 248.474L180.788 231.925C174.527 226.009 168.283 220.579 162.353 215.707L92.3472 228.962L91.9648 228.437Z" fill="#FB7F4B"/>
<path d="M108.635 255.642L108.242 255.122L186.34 237.296C184.84 235.808 183.338 234.348 181.833 232.914L104.034 249.525L103.645 249.003C105.207 251.218 106.871 253.431 108.635 255.642Z" fill="#FB7F4B"/>
<path d="M197.351 198.638L197.939 198.891C192.252 194.221 186.254 189.937 179.987 186.07L187.636 237.447C192.33 242.116 196.727 246.793 200.829 251.478L197.351 198.638Z" fill="#FB7F4B"/>
<path d="M222.333 280.516C229.592 292.524 234.747 304.431 237.729 316.108C239.034 305.741 242.999 263.257 225.616 230.478L222.333 280.516Z" fill="#FB7F4B"/>
<path d="M131.138 277.39C136.912 281.472 142.956 285.165 149.227 288.444L148.831 287.853L220.866 279.842C216.74 273.16 212.215 266.73 207.316 260.587L131.138 277.39Z" fill="#FB7F4B"/>
<path d="M134.445 194.664C115.311 181.383 101.116 173.668 100.912 173.558L100.965 173.131C91.5602 178.706 86.6361 187.895 85.9414 199.116L134.445 194.664Z" fill="#FB7F4B"/>
<path d="M207.637 259.6C208.102 260.182 208.573 260.763 209.029 261.345C213.413 266.914 217.488 272.716 221.238 278.725L224.489 229.162L225.059 229.451C221.95 223.706 218.122 218.375 213.666 213.587C211.906 211.713 210.109 209.888 208.274 208.113L207.637 259.6Z" fill="#FB7F4B"/>
<path d="M161.168 214.737C152.361 207.56 143.728 201.154 135.87 195.656L86.253 200.21L85.9068 199.68C85.491 208.171 87.47 217.797 91.7327 227.884L161.168 214.737Z" fill="#FB7F4B"/>
<path d="M221.516 280.906L150.008 288.858C187.606 308.529 234.263 317.854 237.237 318.436C234.267 305.374 228.678 292.778 221.516 280.906Z" fill="#FB7F4B"/>
<path d="M206.454 259.559L206.455 259.51C200.471 252.101 194.09 245.019 187.339 238.292L109.049 256.162C111.453 259.147 114.036 262.114 116.8 265.063C120.79 269.248 125.155 273.062 129.841 276.458L206.454 259.559Z" fill="#FB7F4B"/>
<path d="M550 334.565C550 358.172 427.901 400 277.284 400C126.667 400 4.56738 358.172 4.56738 334.565C4.56738 310.958 126.667 314.512 277.284 314.512C427.901 314.512 550 310.958 550 334.565Z" fill="#3F3D56"/>
<path opacity="0.1" d="M550 334.565C550 358.172 427.901 400 277.284 400C126.667 400 4.56738 358.172 4.56738 334.565C4.56738 310.958 126.667 314.512 277.284 314.512C427.901 314.512 550 310.958 550 334.565Z" fill="black"/>
<path d="M277.284 377.309C427.901 377.309 550 358.172 550 334.565C550 310.958 427.901 291.821 277.284 291.821C126.667 291.821 4.56738 310.958 4.56738 334.565C4.56738 358.172 126.667 377.309 277.284 377.309Z" fill="#3F3D56"/>
<path opacity="0.1" d="M324.565 289.888C324.565 315.607 288.52 307.652 244.388 307.652C200.255 307.652 164.746 315.607 164.746 289.888C164.746 264.169 200.786 258.576 244.918 258.576C289.051 258.576 324.565 264.169 324.565 289.888Z" fill="black"/>
<path d="M324.565 283.556C324.565 309.275 288.52 301.32 244.388 301.32C200.255 301.32 164.746 309.275 164.746 283.556C164.746 257.837 200.786 252.243 244.918 252.243C289.051 252.243 324.565 257.837 324.565 283.556Z" fill="#3F3D56"/>
<path d="M182.592 212.787C183.562 212.1 184.634 211.566 185.768 211.203C192.96 208.542 200.495 206.91 208.149 206.358C214.804 205.888 222.016 206.446 227.214 210.605C228.023 211.195 228.684 211.962 229.148 212.846C229.802 214.25 229.604 215.881 229.392 217.414C229.345 218.008 229.194 218.59 228.947 219.133C228.247 220.458 226.525 220.922 225.029 220.763C223.534 220.604 222.13 219.974 220.655 219.683C219.742 219.524 218.818 219.431 217.892 219.403L208.639 218.905C202.885 218.595 197.055 218.29 191.411 219.445C189.674 219.756 187.995 220.331 186.434 221.151C185.144 221.871 184.276 222.904 183.08 221.574C180.979 219.238 179.815 214.945 182.592 212.787Z" fill="#2F2E41"/>
<path d="M196.93 216.857C196.93 216.857 209.376 211.309 214.097 217.711C218.818 224.114 211.522 221.553 211.522 221.553L203.368 224.114L194.355 222.406L196.93 216.857Z" fill="#F2F2F2"/>
<path d="M197.574 212.802C197.574 212.802 199.291 220.912 198.003 223.046C196.716 225.18 205.299 228.168 205.299 228.168L213.453 224.754C213.453 224.754 211.307 211.522 213.453 208.96L197.574 212.802Z" fill="#FFB9B9"/>
<path opacity="0.1" d="M197.574 212.802C197.574 212.802 199.291 220.912 198.003 223.046C196.716 225.18 205.299 228.168 205.299 228.168L213.453 224.754C213.453 224.754 211.307 211.522 213.453 208.96L197.574 212.802Z" fill="black"/>
<path d="M189.532 310.319C190.686 312.699 191.635 315.172 192.368 317.711C192.38 317.795 192.41 317.875 192.455 317.947C192.501 318.019 192.561 318.08 192.632 318.127C192.703 318.174 192.783 318.205 192.867 318.219C192.951 318.233 193.037 318.229 193.119 318.208L200.753 318.2C201.695 318.198 202.959 317.897 202.949 316.961C202.942 316.302 202.265 315.892 201.762 315.465C200.365 314.279 200.001 312.323 199.422 310.589C198.297 307.249 196.129 304.353 193.234 302.323C192.843 302.019 192.393 301.797 191.911 301.673C191.428 301.603 190.935 301.63 190.461 301.751C189.121 302.02 184.117 302.94 185.062 304.879C185.469 305.714 186.978 306.583 187.61 307.362C188.347 308.282 188.991 309.273 189.532 310.319Z" fill="#575A89"/>
<path d="M216.077 301.513C215.808 302.076 215.509 302.624 215.18 303.154C214.074 304.968 212.769 306.66 211.739 308.518C211.045 309.653 210.616 310.929 210.485 312.251C210.426 312.912 210.528 313.578 210.781 314.191C211.035 314.805 211.433 315.35 211.942 315.779C213.05 316.615 214.569 316.654 215.946 316.459C217.324 316.264 218.693 315.872 220.08 315.975C219.612 313.343 221.844 311.026 222.403 308.411C222.559 307.677 222.583 306.915 222.793 306.194C223.019 305.535 223.308 304.898 223.657 304.294C224.768 302.141 225.554 299.837 225.988 297.456C226.041 297.167 219.203 297.12 218.561 297.257C216.559 297.688 216.852 299.862 216.077 301.513Z" fill="#575A89"/>
<path d="M163.371 260.16C161.419 263.198 161.869 267.225 163.24 270.563C164.611 273.9 166.793 276.851 168.287 280.137C169.239 282.231 169.907 284.452 170.979 286.489C172.307 289.01 174.245 291.233 175.136 293.938C175.704 295.663 175.834 297.552 176.754 299.119C177.31 299.957 177.945 300.74 178.65 301.458C180.631 303.716 182.119 306.359 183.019 309.22C183.859 306.728 186.377 305.095 188.963 304.556C191.549 304.017 194.229 304.383 196.845 304.751C195.386 302.502 193.912 300.225 193.042 297.693C192.201 295.243 191.953 292.637 191.386 290.111C190.224 284.93 187.741 280.152 185.283 275.44L197.916 274.444C199.978 274.237 202.051 274.161 204.123 274.215C207.384 274.367 210.578 275.162 213.822 275.53C217.065 275.897 220.496 275.801 223.387 274.292C217.86 282.18 214.981 291.603 215.163 301.215C216.398 300.263 217.832 299.598 219.359 299.269C220.886 298.939 222.468 298.953 223.989 299.31C225.51 299.667 226.932 300.358 228.15 301.332C229.367 302.306 230.351 303.538 231.028 304.939C235.979 298.21 235.39 288.843 239.313 281.474C240.12 279.959 241.109 278.547 241.979 277.067C243.624 274.096 245.033 271 246.191 267.809C247.289 265.018 248.394 261.911 247.342 259.103C246.905 258.037 246.268 257.064 245.466 256.234C243.203 253.753 240.052 251.917 236.684 251.84C231.513 251.723 227.242 255.535 222.706 258.006C217.292 260.869 211.167 262.132 205.055 261.647C198.824 261.208 192.874 259.18 186.938 257.394C183.969 256.459 180.951 255.684 177.897 255.074C175.352 254.599 172.928 255.125 170.419 255.773C167.688 256.478 164.943 257.713 163.371 260.16Z" fill="#2F2E41"/>
<path d="M217.315 204.692C217.312 208.088 215.955 211.343 213.541 213.744C211.127 216.145 207.854 217.495 204.44 217.498C203.673 217.499 202.907 217.43 202.153 217.293C199.743 216.86 197.508 215.753 195.709 214.101C193.909 212.449 192.621 210.322 191.995 207.968C191.368 205.613 191.43 203.13 192.172 200.81C192.915 198.489 194.307 196.427 196.186 194.866C198.065 193.304 200.352 192.308 202.78 191.994C205.208 191.68 207.676 192.061 209.894 193.093C212.112 194.124 213.988 195.763 215.303 197.818C216.617 199.872 217.315 202.257 217.315 204.692Z" fill="#FFB9B9"/>
<path d="M196.93 216.857C196.93 216.857 199.291 217.924 200.149 218.778C201.007 219.631 203.582 224.327 207.874 221.339C212.166 218.351 212.595 216.644 213.882 216.644C215.17 216.644 216.886 219.205 216.886 219.205L228.688 254.419C225.508 257.99 221.821 261.081 217.745 263.596C210.878 267.864 202.724 269.999 198.862 268.291C194.999 266.584 187.703 265.303 186.416 261.889C185.128 258.474 182.982 248.23 182.982 248.23L188.991 222.192L196.93 216.857Z" fill="#F2F2F2"/>
<path d="M195.273 252.472C196.209 250.462 196.345 248.187 196.424 245.973C196.55 243.781 196.492 241.582 196.249 239.399C195.869 236.544 194.934 233.793 194.344 230.973C193.826 228.5 193.575 225.979 193.593 223.453C193.602 222.301 193.686 221.087 194.317 220.121C194.758 219.447 195.447 218.925 195.722 218.169C196.262 216.686 194.928 215.134 193.467 214.523C191.686 213.859 189.739 213.782 187.911 214.302C186.098 214.823 184.346 215.535 182.685 216.428C181.43 216.96 180.275 217.703 179.271 218.623C177.939 219.994 177.353 221.904 176.88 223.751C176.501 225.23 176.165 226.772 176.453 228.271C176.921 230.705 178.916 232.536 179.979 234.777C181.214 237.379 181.131 240.412 180.64 243.248C180.149 246.084 179.277 248.857 179.008 251.722C178.739 254.587 179.152 257.667 180.957 259.916C181.692 260.833 183.687 263.005 185.034 262.759C186.091 262.566 187.625 260.25 188.477 259.516C190.939 257.395 193.86 255.509 195.273 252.472Z" fill="#2F2E41"/>
<path d="M217.758 215.465C217.796 217.846 216.74 220.109 215.5 222.145C214.259 224.181 212.801 226.107 211.887 228.307C210.751 231.062 210.519 234.103 211.224 236.996C211.486 237.982 211.802 238.952 212.171 239.904L214.522 246.318C214.839 247.327 215.298 248.286 215.886 249.166C216.417 249.84 217.041 250.436 217.739 250.939C219.525 252.373 221.58 253.44 223.785 254.076C226.005 254.707 228.375 254.573 230.508 253.694C230.735 244.998 232.14 236.372 234.685 228.049C235.155 226.513 235.669 224.895 235.306 223.33C234.9 221.577 233.484 220.261 232.138 219.059C228.023 215.384 223.497 211.522 217.988 211.027C214.8 210.74 217.731 213.744 217.758 215.465Z" fill="#2F2E41"/>
<path d="M189.594 265.092C189.921 265.727 190.124 266.419 190.447 267.057C190.923 267.911 191.512 268.699 192.198 269.399C195.067 272.563 198.575 275.716 202.855 275.907C203.28 275.946 203.709 275.892 204.111 275.749C204.473 275.565 204.784 275.295 205.017 274.964C205.25 274.633 205.398 274.25 205.448 273.848C205.752 272.195 205.018 270.546 204.283 269.033C202.691 265.753 200.9 262.39 197.919 260.275C196.431 259.261 194.73 258.595 192.946 258.328C191.162 258.061 189.34 258.2 187.617 258.734C186.064 259.209 183.489 260.04 185.545 261.449C187.105 262.518 188.69 263.332 189.594 265.092Z" fill="#FFB9B9"/>
<path d="M208.098 223.338C207.651 222.138 206.966 221.039 206.084 220.108C205.194 219.36 204.14 218.829 203.007 218.558C201.539 218.14 200.021 217.924 198.494 217.914C196.676 217.903 194.569 218.388 193.797 220.025C193.184 221.324 193.659 222.863 194.276 224.161C194.54 224.833 194.979 225.423 195.549 225.87C196.332 226.397 197.346 226.38 198.275 226.557C199.716 226.921 201.08 227.535 202.305 228.373L205.489 230.287L210.957 233.574C210.813 233.488 210.864 229.758 210.696 229.147C210.155 227.178 208.937 225.202 208.098 223.338Z" fill="#FFB9B9"/>
<path d="M192.169 316.745C190.889 318.474 191.146 320.946 190.012 322.773C189.03 324.357 187.179 325.188 185.95 326.591C185.558 327.058 185.208 327.558 184.905 328.086C183.765 329.985 182.839 332.419 183.962 334.328C184.865 335.864 186.763 336.464 188.504 336.873C190.704 337.39 192.991 337.804 195.216 337.409C197.442 337.014 199.618 335.658 200.411 333.552C200.567 333.023 200.753 332.502 200.967 331.993C202.173 329.631 205.957 329.606 207.192 327.258C208.056 325.615 207.262 323.629 206.468 321.951L204.043 316.827C203.238 315.127 199.976 316.105 198.275 315.698C196.057 315.166 193.764 314.581 192.169 316.745Z" fill="#2F2E41"/>
<path d="M210.925 312.343C209.932 313.121 209.173 314.155 208.731 315.332C207.531 318.086 207.119 321.105 206.719 324.08C206.491 325.263 206.467 326.476 206.649 327.667C207.167 330.097 209.38 331.886 211.763 332.629C214.145 333.371 216.7 333.257 219.194 333.135C219.999 333.156 220.797 332.995 221.53 332.664C222.784 331.976 223.273 330.361 223.058 328.953C222.843 327.546 222.07 326.294 221.314 325.086C220.557 323.877 219.783 322.626 219.567 321.219C219.202 318.852 220.231 315.378 218.769 313.237C217.304 311.091 212.881 310.98 210.925 312.343Z" fill="#2F2E41"/>
<path d="M216.992 198.019C216.763 197.253 216.258 196.598 215.575 196.179C215.61 195.358 215.509 194.538 215.275 193.75C214.496 191.458 212.649 191.589 210.906 190.576C210.15 190.136 210.196 189.747 209.803 189.025C209.287 188.078 208.514 187.294 207.573 186.762C206.455 186.054 205.275 185.324 203.952 185.234C201.172 185.046 199.041 187.646 196.384 188.481C195.213 188.849 193.955 188.864 192.778 189.212C191.601 189.559 190.426 190.39 190.251 191.598C190.17 192.157 190.313 192.729 190.23 193.287C190.067 194.396 189.089 195.173 188.434 196.085C186.986 198.102 187.152 200.951 188.31 203.146C188.554 203.6 188.833 204.034 189.145 204.445C189.241 205.482 189.541 206.491 190.026 207.414C191.184 209.609 193.177 211.248 195.259 212.611C195.088 211.883 194.985 211.141 194.95 210.395C194.92 210.146 194.953 209.894 195.045 209.661C195.276 209.179 195.889 209.05 196.356 208.786C197.323 208.24 197.703 207.03 197.731 205.923C197.759 204.817 197.523 203.709 197.639 202.609C197.644 202.356 197.702 202.106 197.809 201.877C197.917 201.647 198.071 201.443 198.263 201.276C198.62 201.074 199.028 200.977 199.438 200.998C201.42 200.917 203.491 200.881 205.239 199.949C205.803 199.576 206.409 199.271 207.045 199.04C208.531 198.655 210.049 199.691 210.905 200.958C211.762 202.226 212.189 203.734 212.979 205.044C213.769 206.353 215.133 207.521 216.661 207.366C216.747 207.366 216.832 207.348 216.911 207.313C216.989 207.279 217.06 207.228 217.117 207.164C217.183 207.046 217.212 206.912 217.201 206.778L217.286 200.97C217.357 199.977 217.258 198.979 216.992 198.019Z" fill="#2F2E41"/>
<path d="M176.246 228.395C175.018 230.198 173.601 231.931 172.926 234.002C172.529 235.22 172.406 236.507 172.119 237.754C171.162 241.909 168.397 245.6 168.119 249.854C168.022 250.799 168.161 251.754 168.525 252.632C169.318 254.348 171.216 255.253 173.027 255.821C174.838 256.39 176.782 256.8 178.227 258.025C178.955 258.719 179.615 259.479 180.198 260.297C182.556 263.214 185.728 265.372 189.315 266.502C189.032 264.559 188.899 262.218 190.46 261.018C191.305 260.368 192.434 260.252 193.498 260.161L198.527 259.729C195.174 256.494 191.478 253.63 187.504 251.188C186.113 250.334 184.6 249.433 183.965 247.935C183.637 246.97 183.501 245.95 183.564 244.933C183.53 241.214 183.213 237.502 182.617 233.83C182.203 231.28 181.655 228.753 181.028 226.247C180.852 225.543 179.812 222.387 178.531 223.126C178.23 223.3 177.948 225.302 177.772 225.717C177.352 226.657 176.842 227.554 176.246 228.395Z" fill="#2F2E41"/>
<path d="M234.163 221.584L236.216 225.831C237.205 227.578 237.656 229.575 237.511 231.575L237.633 244.316C237.727 246.018 237.585 247.726 237.211 249.39C237.083 249.938 236.842 250.454 236.503 250.905C236.155 251.293 235.744 251.622 235.289 251.878C231.402 254.293 226.363 255.665 222.257 253.642C221.316 253.143 220.422 252.563 219.585 251.907C217.948 250.702 216.288 249.473 215.064 247.854C213.782 246.16 213.048 244.133 212.186 242.194C210.639 238.716 208.64 235.456 206.24 232.495C205.843 232.104 205.584 231.594 205.504 231.044C205.479 229.927 206.811 229.377 207.85 228.952C209.624 228.226 211.298 226.826 211.595 224.94C215.369 229.862 219.533 235.062 225.488 236.861C225.581 236.92 225.689 236.953 225.8 236.957C225.911 236.96 226.02 236.934 226.117 236.88C226.214 236.827 226.295 236.748 226.35 236.653C226.406 236.557 226.434 236.449 226.433 236.339C226.771 234.932 226.891 233.483 227.138 232.058C227.591 229.463 228.465 226.958 229.724 224.641C230.429 223.341 232.713 218.585 234.163 221.584Z" fill="#2F2E41"/>
<path opacity="0.1" d="M183.205 233.867C183.262 236.882 182.618 239.869 181.323 242.596C180.987 243.199 180.738 243.847 180.586 244.52C180.361 245.955 181.182 247.344 182.121 248.457C183.972 250.645 186.373 252.307 189.08 253.272" fill="black"/>
<path opacity="0.1" d="M227.796 231.326C227.493 232.135 227.768 233.03 228.001 233.862C228.677 236.274 228.992 238.772 228.937 241.275C228.947 241.319 228.946 241.365 228.933 241.408C228.921 241.451 228.898 241.49 228.867 241.522C228.835 241.555 228.796 241.578 228.753 241.592C228.71 241.605 228.664 241.607 228.62 241.599C227.629 241.659 226.495 241.665 225.823 240.939" fill="black"/>
<path opacity="0.1" d="M396.133 351.979C433.055 351.979 462.986 345.6 462.986 337.731C462.986 329.862 433.055 323.483 396.133 323.483C359.211 323.483 329.28 329.862 329.28 337.731C329.28 345.6 359.211 351.979 396.133 351.979Z" fill="black"/>
<path d="M429.559 210.554L424.784 215.304L429.559 220.053L434.335 210.554H429.559Z" fill="#A0616A"/>
<path d="M430.634 169.372C431.974 169.918 432.612 171.409 433.117 172.758L439.311 189.313L440.517 192.535C441.108 194.116 441.7 195.697 442.2 197.308C442.516 198.327 442.795 199.357 443.038 200.397C443.289 201.287 443.385 202.213 443.323 203.135C443.156 204.15 442.783 205.12 442.228 205.988C440.073 209.721 437.004 212.852 433.306 215.089C433.093 213.72 432.538 212.426 431.692 211.326C430.846 210.226 429.736 209.354 428.464 208.79L431.667 207.038C432.345 206.722 432.954 206.278 433.462 205.731C433.772 205.304 433.993 204.819 434.111 204.306C434.228 203.792 434.241 203.261 434.148 202.742C433.955 201.708 433.636 200.701 433.197 199.744C432.122 197.076 431.19 194.354 430.403 191.589C429.938 189.953 429.51 188.272 428.588 186.841C427.752 185.542 426.541 184.504 425.781 183.16C424.622 181.111 424.652 178.589 425.164 176.294C425.595 174.357 426.32 172.493 426.929 170.607C427.407 169.125 429.199 168.788 430.634 169.372Z" fill="#D0CDE1"/>
<path d="M401.101 125.142C398.638 125.969 396.406 127.904 395.902 130.441C395.668 131.617 395.811 132.839 395.615 134.021C395.158 136.764 392.994 138.858 390.998 140.804C389.001 142.749 386.94 145.01 386.794 147.786C386.634 150.825 388.851 153.673 388.467 156.693C388.022 160.201 384.296 162.475 383.375 165.891C382.76 168.171 383.513 170.628 384.753 172.642C387.116 176.48 391.155 179.085 395.456 180.481C399.757 181.878 404.337 182.172 408.862 182.219C414.37 182.276 420.351 181.806 424.49 178.19C426.854 176.106 428.339 173.21 428.647 170.083C429.04 165.895 427.282 161.567 428.495 157.537C429.258 155 431.171 152.684 430.886 150.051C430.606 147.478 428.346 145.654 426.796 143.574C425.348 141.633 424.47 139.341 423.609 137.08L420.663 129.347C420.084 127.827 419.448 126.228 418.158 125.23C415.742 123.362 411.857 123.729 409.032 124.115C406.411 124.472 403.621 124.295 401.101 125.142Z" fill="#2F2E41"/>
<path d="M403.379 150.627C403.379 150.627 403.668 159.23 402.803 160.091C401.938 160.951 406.263 166.686 406.263 166.686L414.047 166.399L418.084 163.245L414.624 158.657C414.624 158.657 413.182 151.201 414.336 149.48C415.489 147.76 403.379 150.627 403.379 150.627Z" fill="#A0616A"/>
<path opacity="0.1" d="M403.379 150.627C403.379 150.627 403.668 159.23 402.803 160.091C401.938 160.951 406.263 166.686 406.263 166.686L414.047 166.399L418.084 163.245L414.624 158.657C414.624 158.657 413.182 151.201 414.336 149.48C415.489 147.76 403.379 150.627 403.379 150.627Z" fill="black"/>
<path d="M385.359 217.013L390.261 227.91L394.009 223.322L386.513 213.572L385.359 217.013Z" fill="#A0616A"/>
<path d="M372.241 326.125L370.223 337.31L366.763 342.185L368.781 343.331L372.241 342.758L376.278 341.324L378.007 334.729L381.179 326.125H372.241Z" fill="#A0616A"/>
<path d="M409.147 319.243L407.993 335.302L410.876 337.596L415.49 333.581V321.824L409.147 319.243Z" fill="#A0616A"/>
<path d="M408.137 153.925C413.87 153.925 418.517 149.303 418.517 143.602C418.517 137.9 413.87 133.278 408.137 133.278C402.405 133.278 397.758 137.9 397.758 143.602C397.758 149.303 402.405 153.925 408.137 153.925Z" fill="#A0616A"/>
<path d="M416.147 157.487C415.836 157.338 415.496 157.258 415.151 157.251C414.806 157.244 414.463 157.312 414.147 157.449C413.517 157.726 412.906 158.043 412.317 158.397C410.802 159.181 409.084 159.492 407.389 159.289C407.19 159.274 406.995 159.224 406.813 159.141C406.62 159.022 406.443 158.88 406.285 158.718C405.671 158.221 404.886 157.981 404.097 158.049C403.308 158.116 402.576 158.486 402.056 159.08C401.751 159.458 401.542 159.909 401.21 160.263C400.348 161.179 398.926 161.216 397.665 161.214C395.049 161.142 392.435 161.38 389.876 161.924C387.306 162.476 384.939 163.723 383.037 165.529C382.518 166.014 382.104 166.6 381.822 167.251C381.474 168.144 381.52 169.146 381.207 170.051C380.859 171.059 380.088 171.886 379.776 172.905C379.54 173.673 379.573 174.528 379.18 175.229C380.865 176.679 382.292 178.614 383.977 180.064C385.093 181.025 386.261 182.064 386.68 183.471C386.869 184.338 386.952 185.225 386.93 186.112C387.138 190.354 389.451 194.202 392.038 197.581C392.747 198.583 393.596 199.48 394.558 200.244C395.866 201.13 397.35 201.723 398.91 201.982C401.856 202.581 404.888 202.578 407.894 202.549C411.001 202.518 414.163 202.452 417.116 201.492C418.619 201.075 419.971 200.24 421.014 199.085C422.229 197.601 422.703 195.454 424.36 194.482C424.761 194.299 425.141 194.074 425.493 193.809C425.831 193.445 426.07 193.001 426.188 192.52C426.768 190.719 427.087 188.845 427.137 186.954C427.094 185.82 427.171 184.684 427.368 183.566C427.654 182.58 428.072 181.637 428.609 180.761L432.044 174.566C432.323 174.063 432.251 173.322 432.276 172.748C432.25 171.919 431.995 171.114 431.537 170.422C429.31 166.506 425.81 163.459 421.613 161.781C421.282 161.67 420.967 161.516 420.676 161.325C420.332 161.037 420.042 160.693 419.817 160.306C418.906 158.94 417.793 157.402 416.147 157.487Z" fill="#D0CDE1"/>
<path d="M373.342 191.226C372.665 192.864 372.168 194.57 371.859 196.314C371.527 198.723 371.918 201.177 372.982 203.366C374.833 207.155 378.477 209.725 381.048 213.073C383.438 216.183 384.861 219.91 386.93 223.24C386.569 222.392 387.008 221.411 387.598 220.702C388.189 219.994 388.943 219.406 389.376 218.592C389.671 217.963 389.856 217.288 389.924 216.596C390.233 214.532 390.4 212.288 389.342 210.486C388.545 209.129 387.169 208.228 386.08 207.09C384.99 205.933 384.189 204.537 383.742 203.015C383.294 201.493 383.213 199.888 383.503 198.329C383.713 197.256 384.098 196.225 384.387 195.17C384.745 193.753 385.016 192.315 385.198 190.864L386.496 181.995C386.842 179.636 387.134 177.025 385.79 175.051C385.528 174.637 385.166 174.296 384.737 174.059C384.381 173.897 384.003 173.791 383.615 173.745C382.202 173.515 380.288 172.9 379.598 174.406C378.765 176.223 378.185 178.205 377.488 180.079L373.342 191.226Z" fill="#D0CDE1"/>
<path d="M422.827 196.079C422.827 196.079 405.687 199.377 401.65 199.377H394.442C394.442 199.377 391.847 203.965 391.847 208.553C391.847 213.141 374.836 277.376 374.836 277.376C374.836 277.376 358.69 330.14 376.566 330.427C394.442 330.714 405.687 331.574 405.975 325.552C406.263 319.53 407.993 241.818 407.993 241.818L410.685 281.777C411.408 291.67 410.635 301.614 408.393 311.279C407.102 316.697 407.303 322.637 413.76 323.832C426.158 326.126 441.727 324.118 441.727 319.817C441.727 315.515 433.654 220.024 433.654 220.024C433.654 220.024 429.618 205.972 427.311 204.825C425.004 203.678 422.827 196.079 422.827 196.079Z" fill="#2F2E41"/>
<path d="M369.07 341.611L375.413 339.317L379.738 328.42L384.351 327.846C384.351 327.846 381.756 333.295 380.314 334.155C378.873 335.015 376.566 342.184 376.566 342.184C376.566 342.184 377.719 345.052 372.241 346.199C366.763 347.346 362.726 348.206 362.726 348.206C362.726 348.206 362.15 347.059 364.745 344.192C367.34 341.324 370.37 336.496 370.37 336.496L369.07 341.611Z" fill="#2F2E41"/>
<path d="M407.993 328.42L406.84 337.023C406.84 337.023 410.011 341.611 410.876 341.611C411.741 341.611 416.355 337.596 416.355 337.596C416.355 337.596 416.066 333.295 416.355 332.148C416.643 331.001 417.219 325.552 416.355 325.265C415.49 324.979 415.49 331.657 415.49 331.657L411.741 335.589L408.127 333.434L407.993 328.42Z" fill="#2F2E41"/>
<path d="M409.002 143.602C415.213 143.602 420.247 140.905 420.247 137.58C420.247 134.254 415.213 131.558 409.002 131.558C402.792 131.558 397.758 134.254 397.758 137.58C397.758 140.905 402.792 143.602 409.002 143.602Z" fill="#2F2E41"/>
<path d="M0 255.757C0 289.538 21.3081 316.874 47.6409 316.874L0 255.757Z" fill="#3F3D56"/>
<path d="M47.6406 316.874C47.6406 282.713 71.4193 255.07 100.805 255.07L47.6406 316.874Z" fill="#FB7F4B"/>
<path d="M17.2607 258.819C17.2607 290.908 30.8485 316.874 47.6405 316.874L17.2607 258.819Z" fill="#FB7F4B"/>
<path d="M47.6406 316.874C47.6406 273.224 75.125 237.902 109.09 237.902L47.6406 316.874Z" fill="#3F3D56"/>
<path d="M37.6182 317.305C37.6182 317.305 44.3744 317.098 46.4106 315.656C48.4468 314.214 56.8034 312.492 57.3086 314.805C57.8137 317.117 67.462 326.307 59.8342 326.368C52.2064 326.43 42.1106 325.187 40.0783 323.956C38.0461 322.724 37.6182 317.305 37.6182 317.305Z" fill="#A8A8A8"/>
<path opacity="0.2" d="M59.9703 325.563C52.3425 325.624 42.2467 324.381 40.2145 323.15C38.6668 322.213 38.0501 318.848 37.8437 317.296C37.7008 317.302 37.6182 317.305 37.6182 317.305C37.6182 317.305 38.0461 322.724 40.0783 323.955C42.1106 325.187 52.2064 326.429 59.8342 326.368C62.036 326.351 62.7966 325.571 62.7548 324.417C62.4489 325.115 61.6092 325.55 59.9703 325.563Z" fill="black"/>
</g>
<defs>
<clipPath id="clip0_23_73">
<rect width="550" height="400" fill="white"/>
</clipPath>
</defs>
</svg>
